<?xml version="1.0" encoding="utf-8"?>
<svg viewBox="0 0 100 100" xmlns="http://www.w3.org/2000/svg" xmlns:bx="https://boxy-svg.com">
<defs>
<linearGradient gradientUnits="userSpaceOnUse" x1="50" y1="27" x2="50" y2="58" id="gradient-0" gradientTransform="matrix(1, 0, 0, 1, 0, -110)">
<stop offset="0" style="stop-color: rgba(216, 184, 68, 0.36);"/>
<stop offset="1" style="stop-color: rgba(216, 184, 68, 0);"/>
</linearGradient>
</defs>
<circle style="fill: #2882DC;" r="50" cx="-180" cy="-240"/>
<g transform="matrix(1, 0, 0, 1, -230, -290)">
<path d="M 46 17 L 45 18 L 43 19 L 41 21 L 41 22 L 38 23 L 36 26 L 34 30 L 35 33 L 34 35 L 34 39 L 37 40 L 37 42 L 42 46 L 46 44 L 48 45 L 53 43 L 59 47 L 60 52 L 61 56 L 64 58 L 64 62 L 61 66 L 61 69 L 64 71 L 64 75 L 65 79 L 66 82 L 70 83 L 75 79 L 78 74 L 79 73 L 81 69 L 86 64 L 86 58 L 87 51 L 91 47 L 93 38 L 89 40 L 86 36 L 84 35 L 84 32 L 82 31 L 82 29 L 80 28 L 78 24 L 82 28 L 87 34 L 88 38 L 92 35 L 94 31 L 93 30 L 91 28 L 91 26 L 89 28 L 86 23 L 90 26 L 92 25 L 92 27 L 94 28 L 96 31 C 96 31 88 6 59 1 L 52 3 L 57 6 L 54 5 L 51 8 L 49 8 L 46 8 L 49 10 L 49 12 L 45 11 L 43 14 L 43 16 L 45 17 L 48 16 L 50 15 L 51 13 L 52 13 L 52 11 L 55 12 L 56 11 L 58 12 L 59 13 L 62 14 L 66 15 L 67 16 L 68 15 L 70 14 L 69 13 L 69 10 L 70 10 L 73 12 L 72 10 L 74 11 L 74 12 L 77 14 L 77 15 L 73 14 L 71 14 L 70 15 L 71 16 L 73 17 L 74 18 L 76 17 L 77 19 L 77 21 L 74 21 L 69 20 L 67 20 L 67 21 L 64 21 L 62 19 L 60 17 L 54 16 L 51 16 L 48 17 L 46 17 Z" style="fill: #869B70;"/>
<polygon style="fill: #869B70;" points="85 74 86 70 87 69 87 66 89 65 91 62 89 69"/>
<path d="M 18 88 L 15 84 L 14 80 L 14 75 L 13 73 L 16 71 L 17 66 L 16 62 L 18 59 L 17 55 L 15 55 L 14 53 L 11 53 L 9 50 L 8 48 L 8 45 L 5 45 L 3 40 L 1 40 C -2 55 2 75 18 88 Z" style="fill: #869B70;"/>
<polygon style="fill: #869B70;" points="48 7 50 7 51 7 49 4 48 4 49 6"/>
<polygon style="fill: #869B70;" points="45 6 47 7 46 5"/>
</g>
<polygon style="fill: #C99E93;" points="464 129 456 127 455 133 456 141 462 141 461 146 470 146 469 139"/>
<polygon style="fill: #FFFFFF;" points="486 208 489 214 492 212 491 205 487 203"/>
<polygon style="fill: #C99E93;" points="436 163 430 163 429 165 434 166 432 168 437 166"/>
<polygon style="fill: #C99E93;" points="493 163 495 168 495 171 492 168 491 170 490 164"/>
<polygon style="fill: #FFFFFF;" points="464 210 461 216 464 217 469 212 468 209"/>
<polygon style="fill: #35A5CA;" points="470 143 460 144 452 148 447 158 435 163 437 166 451 163 456 154 457 171 455 192 463 210 469 210 464 191 466 177 474 192 486 207 490 204 481 187 475 171 476 153 483 156 490 165 493 163 487 152 477 145"/>
<polygon style="fill: #C13549;" points="455 127 464 125 469 127 469 139 463 136 463 132 461 130 460 135 458 134 458 130"/>
<polygon style="fill: #C99E93;" points="-33 301 -34 307 -36 308 -36 304 -38 304 -35 299"/>
<polygon style="fill: #C99E93;" points="-65 299 -65 305 -63 307 -63 302 -61 302 -63 298"/>
<ellipse style="fill: rgba(0, 0, 0, 0.2);" cx="-48" cy="335" rx="18" ry="3"/>
<polygon style="fill: #2B0C10;" points="-42 329 -38 330 -33 335 -35 336 -39 336 -43 333"/>
<polygon style="fill: #2B0C10;" points="-53 329 -57 330 -62 335 -60 336 -56 336 -52 333"/>
<polygon style="fill: #35A5CA;" points="-45 265 -55 266 -63 269 -67 285 -65 299 -62 299 -62 286 -59 277 -58 294 -60 314 -59 331 -52 330 -52 314 -49 299 -45 314 -44 330 -36 331 -37 314 -40 294 -39 276 -37 286 -36 300 -33 301 -32 285 -35 269"/>
<polygon style="fill: #C99E93;" points="-48 250 -58 248 -60 256 -57 262 -53 262 -54 267 -50 270 -45 267 -46 260"/>
<polygon style="fill: #C13549;" points="-60 248 -51 246 -46 248 -46 260 -48 258 -48 253 -50 252 -50 255 -52 254 -51 251"/>
<polygon style="fill: #C99E93;" points="156 178 154 184 152 185 153 181 151 181 154 177"/>
<polygon style="fill: #C99E93;" points="124 179 125 185 127 187 127 182 129 182 127 179"/>
<ellipse style="fill: rgba(0, 0, 0, 0.2);" cx="139" cy="214" rx="18" ry="3"/>
<polygon style="fill: #2B0C10;" points="144 208 148 209 153 214 151 215 147 214 143 212"/>
<polygon style="fill: #2B0C10;" points="134 208 130 209 125 214 127 215 131 214 135 212"/>
<polygon style="fill: #555457;" points="136 144 146 145 154 149 158 164 156 178 153 178 153 165 150 156 149 173 151 193 150 210 143 209 143 193 140 178 136 193 135 209 127 210 128 193 131 173 130 155 128 165 127 179 124 180 123 164 126 148"/>
<polygon style="fill: #C99E93;" points="142 129 132 127 130 136 133 141 137 141 136 146 140 154 145 146 144 139"/>
<polygon style="fill: #D8D8D8;" points="131 127 140 125 145 128 144 139 142 136 142 132 140 131 139 135 138 141 133 142 131 138 137 135 138 130"/>
<ellipse style="fill: rgba(0, 0, 0, 0.2);" cx="139" cy="334" rx="18" ry="3"/>
<polygon style="fill: #2B0C10;" points="144 328 148 329 153 334 151 335 148 335 143 332"/>
<polygon style="fill: #2B0C10;" points="134 328 130 329 125 334 127 335 130 335 135 332"/>
<path d="M 131 293 L 140 280 L 149 293 L 151 313 L 149 330 L 143 329 L 143 313 L 140 298 L 136 313 L 135 329 L 129 330 L 128 313 L 131 293 Z" style="fill: #131B37;"/>
<polygon style="fill: #C99E93;" points="156 299 154 305 152 306 153 302 151 302 154 298"/>
<polygon style="fill: #C99E93;" points="124 299 125 305 127 307 127 302 129 302 127 299"/>
<path d="M 136 265 L 145 265 L 154 270 L 158 285 L 156 299 L 153 298 L 153 286 L 150 278 L 150 293 L 151 308 L 144 307 L 140 294 L 136 307 L 128 308 L 130 292 L 130 278 L 128 286 L 127 299 L 124 300 L 123 285 L 126 269 L 136 265 Z" style="fill: #555457;"/>
<polygon style="fill: #131B37;" points="137 263 133 265 136 269 134 274 140 291 146 274 145 269 148 265 144 263"/>
<polygon style="fill: #C99E93;" points="142 249 133 248 131 256 133 261 137 261 136 266 140 274 145 266 144 259"/>
<polygon style="fill: #131B37;" points="131 248 139 245 145 248 144 259 142 256 142 252 140 251 139 255 138 261 133 262 131 257 137 255 138 250"/>
<ellipse style="fill: rgba(0, 0, 0, 0.2);" cy="334" rx="18" ry="3" cx="210"/>
<polygon style="fill: #2B0C10;" points="205 328 201 329 196 334 198 335 202 334 206 332"/>
<polygon style="fill: #2B0C10;" points="215 328 219 329 224 334 222 335 218 334 214 332"/>
<path d="M 218 293 L 200 293 L 198 313 L 200 330 L 206 329 L 206 313 L 209 298 L 213 313 L 214 329 L 220 329 L 221 313 L 218 293 Z" style="fill: #5A5A5A;"/>
<polygon style="fill: #C99E93;" points="193 299 195 305 197 306 196 302 198 302 195 298"/>
<polygon style="fill: #C99E93;" points="225 300 224 305 222 307 222 302 220 302 222 299"/>
<path d="M 213 265 L 204 265 L 195 269 L 191 284 L 193 299 L 196 298 L 196 285 L 199 277 L 200 293 L 198 310 L 208 311 L 210 307 L 211 311 L 221 309 L 218 293 L 219 277 L 221 285 L 222 299 L 225 300 L 226 284 L 223 268 L 213 265 Z" style="fill: #E6E4EC;"/>
<polygon style="fill: #C99E93;" points="205 250 217 247 219 256 216 261 212 261 213 266 209 268 204 266 205 259"/>
<polygon style="fill: #2B0C10;" points="218 247 210 245 204 248 205 258 206 255 207 251 209 252 210 255 211 263 216 264 218 258 212 255 211 250"/>
<ellipse style="fill: rgba(0, 0, 0, 0.2);" cx="79" cy="334" rx="18" ry="3"/>
<polygon style="fill: #05070E;" points="84 328 88 329 93 334 91 335 88 335 83 332"/>
<polygon style="fill: #05070E;" points="74 328 70 329 65 334 67 335 70 335 75 332"/>
<path d="M 71 293 L 80 280 L 89 293 L 91 313 L 89 330 L 83 329 L 83 313 L 80 298 L 76 313 L 75 329 L 69 330 L 68 313 L 71 293 Z" style="fill: #404040;"/>
<polygon style="fill: #B68F85;" points="96 299 94 305 92 306 93 302 91 302 94 298"/>
<polygon style="fill: #B68F85;" points="64 300 65 305 67 307 67 302 69 302 66 299"/>
<path d="M 76 265 L 85 265 L 94 270 L 98 285 L 96 299 L 93 298 L 93 286 L 90 278 L 90 293 L 91 308 L 81 309 L 79 304 L 78 309 L 68 308 L 70 292 L 70 278 L 68 286 L 67 299 L 64 300 L 63 285 L 66 269 L 76 265 Z" style="fill: #606060;"/>
<polygon style="fill: #404040;" points="77 263 73 265 76 269 74 274 80 292 87 274 85 269 88 265 84 263"/>
<polygon style="fill: #B68F85;" points="82 249 71 248 71 256 73 261 77 261 76 266 80 267 85 266 84 259"/>
<polygon style="fill: #404040;" points="70 248 75 244 84 247 84 259 82 256 82 252 80 252 79 255 78 261 73 263 72 258 77 255 78 250"/>
<polygon style="fill: #A7A7A7;" points="79 267 80 270 78 274 80 281 83 274 81 270 82 267"/>
<polygon style="fill: #C99E93;" points="-1 300 0 306 2 307 2 303 4 303 1 298"/>
<polygon style="fill: #C99E93;" points="31 298 30 304 27 306 28 301 26 301 28 298"/>
<ellipse style="fill: rgba(0, 0, 0, 0.2);" cy="334" rx="18" ry="3" cx="14"/>
<polygon style="fill: #05070E;" points="8 328 4 329 -1 334 1 335 5 335 9 332"/>
<polygon style="fill: #05070E;" points="19 328 23 329 28 334 26 335 22 335 18 332"/>
<polygon style="fill: #35A5CA;" points="11 264 21 265 29 269 33 285 31 298 28 298 28 286 25 276 24 293 26 313 25 330 18 329 18 313 15 300 11 313 10 329 2 330 3 313 6 293 5 277 3 286 2 299 -1 300 -2 285 1 268"/>
<polygon style="fill: #C99E93;" points="14 249 24 247 26 255 23 261 19 261 20 266 16 269 11 266 12 259"/>
<polygon style="fill: #C13549;" points="26 247 17 245 12 247 12 259 14 257 14 252 16 251 16 254 18 253 17 250"/>
<polygon style="fill: #D8D8D8; stroke: #000000;" points="185 155"/>
<path d="M 220 -349 C 220 -337 212 -337 206 -337 C 202 -337 199 -339 196 -342 C 192 -337 172 -335 172 -335 L 172 -363 C 172 -363 192 -361 196 -356 C 199 -359 202 -361 206 -361 C 212 -361 220 -361 220 -349 Z" style="fill: #4B573F;"/>
<path d="M 168 -362 L 172 -363 L 172 -335 L 168 -336 L 168 -362 Z" style="fill: #E0E1E6;"/>
<path d="M 168 -362 L 162 -362 L 162 -336 L 168 -336 L 168 -362 Z" style="fill: #4B573F;"/>
<path d="M 162 -362 L 151 -362 L 151 -336 L 162 -336 L 162 -362 Z" style="fill: #E0E1E6;"/>
<path d="M 151 -362 L 146 -365 L 146 -333 L 151 -336 L 151 -362 Z" style="fill: #4B573F;"/>
<ellipse style="fill: #D8D8D8;" cx="209" cy="-354" rx="3" ry="2"/>
<rect x="151" width="21" height="7" style="fill: #4E4C4E;" y="-371"/>
<rect x="151" width="21" height="10" style="fill: #4E4C4E;" y="-382"/>
<rect x="151" width="21" height="14" style="fill: #4E4C4E;" y="-397"/>
<rect x="151" y="-334" width="21" height="7" style="fill: #4E4C4E;"/>
<rect x="151" width="21" height="10" style="fill: #4E4C4E;" y="-326"/>
<rect x="151" width="21" height="14" style="fill: #4E4C4E;" y="-315"/>
<path d="M 135 -349 C 135 -342 120 -341 120 -341 L 120 -357 C 120 -357 135 -356 135 -349 Z" style="fill: #4E4C4E;"/>
<path d="M 135 -365 L 133 -356 L 133 -342 L 135 -333 L 135 -365 Z" style="fill: #4B573F;"/>
<path d="M 220 -349 C 220 -344 219 -343 219 -343 C 218 -343 218 -355 219 -355 C 219 -355 220 -354 220 -349 Z" style="fill: #E0E1E6;"/>
<path d="M 146 -365 L 135 -368 L 135 -330 L 146 -333 L 146 -365 Z" style="fill: #E0E1E6;"/>
<path d="M -34 144 L -34 147 L -19 156 L -14 170 L -20 172 L -24 163 L -33 159 L -32 173 L -36 181 L -36 191 L -24 201 L -27 213 L -32 213 L -32 204 L -42 197 L -47 186 L -52 196 L -43 208 L -45 214 L -48 219 L -53 218 L -52 210 L -60 196 L -57 177 L -57 170 L -54 160 L -61 163 L -68 171 L -72 168 L -66 155 L -54 148 L -51 147 L -51 144 L -34 144 Z" style="fill: #D8D8D8;"/>
<ellipse style="fill: rgba(0, 0, 0, 0.2);" cx="269" cy="334" rx="18" ry="3"/>
<polygon style="fill: #2B0C10;" points="274 328 278 329 283 334 281 335 277 334 273 332"/>
<polygon style="fill: #2B0C10;" points="265 328 261 329 256 334 258 335 262 334 266 332"/>
<path d="M 262 293 L 278 293 L 279 314 L 278 329 L 273 329 L 272 314 L 270 298 L 267 314 L 266 329 L 261 329 L 260 313 L 262 293 Z" style="fill: #5A5A5A;"/>
<polygon style="fill: #C99E93;" points="286 299 284 305 282 306 283 302 281 302 284 298"/>
<polygon style="fill: #C99E93;" points="254 300 255 305 257 307 257 302 259 302 256 299"/>
<path d="M 268 268 L 273 268 L 282 272 L 285 284 L 286 299 L 283 298 L 281 285 L 279 278 L 278 290 L 281 312 L 271 313 L 270 309 L 268 313 L 258 310 L 262 290 L 261 278 L 259 285 L 257 299 L 254 300 L 255 284 L 259 272 L 268 268 Z" style="fill: #E6E4EC;"/>
<polygon style="fill: #C99E93;" points="272 252 265 252 264 258 266 264 267 264 268 269 271 270 273 269 274 262"/>
<polygon style="fill: #836A63;" points="265 252 271 250 278 256 276 261 277 266 274 266"/>
<ellipse style="fill: rgba(0, 0, 0, 0.2);" cx="329" cy="334" rx="18" ry="3"/>
<polygon style="fill: #2B0C10;" points="334 328 338 329 343 334 341 335 337 334 333 332"/>
<polygon style="fill: #2B0C10;" points="324 328 320 329 315 334 317 335 321 334 325 332"/>
<path d="M 322 296 L 338 296 L 341 313 L 339 330 L 334 329 L 333 314 L 330 298 L 326 314 L 325 329 L 320 329 L 318 313 L 322 296 Z" style="fill: #5A5A5A;"/>
<polygon style="fill: #C99E93;" points="346 299 344 305 342 306 343 302 341 302 344 298"/>
<polygon style="fill: #C99E93;" points="314 300 315 305 317 307 317 302 319 302 317 299"/>
<path d="M 326 264 L 335 264 L 343 269 L 348 284 L 346 299 L 343 298 L 343 285 L 340 278 L 339 293 L 341 310 L 331 311 L 329 309 L 328 311 L 319 308 L 321 293 L 321 277 L 318 285 L 317 299 L 314 300 L 313 284 L 317 269 L 326 264 Z" style="fill: #E6E4EC;"/>
<polygon style="fill: #C99E93;" points="334 249 323 247 321 254 324 261 327 260 326 265 331 267 334 265 334 258"/>
<polygon style="fill: #836A63;" points="323 247 330 250 329 254 331 254 332 250 333 251 334 257 336 248 328 244"/>
<polygon style="fill: #0A8CC8;" points="233 395 236 455 261 458 269 396"/>
<polygon style="fill: #5A5A5A;" points="246 386 247 369 259 369 258 386"/>
<polygon style="fill: #D8D8D8;" points="233 395 269 396 258 386 245 386"/>
<polygon style="fill: #D8A572;" points="403 372 407 359 411 372"/>
<polygon style="fill: #656565;" points="403 372 403 459 411 459 411 372"/>
<polygon style="fill: #656565;" points="405 366 407 359 409 366"/>
<polygon style="fill: #0A8CC8;" points="146 409 184 455 206 443 176 388"/>
<polygon style="fill: #5A5A5A;" points="150 394 141 380 151 373 160 387"/>
<polygon style="fill: #D8D8D8;" points="146 409 175 388 161 387 150 395"/>
<path d="M 340 -349 C 340 -337 332 -337 326 -337 C 322 -337 319 -339 316 -342 C 312 -337 292 -335 292 -335 L 292 -363 C 292 -363 312 -361 316 -356 C 319 -359 322 -361 326 -361 C 332 -361 340 -361 340 -349 Z" style="fill: #4B573F;"/>
<path d="M 340 -349 C 340 -344 339 -343 339 -343 C 338 -343 338 -355 339 -355 C 339 -355 340 -354 340 -349 Z" style="fill: #E0E1E6;"/>
<path d="M 341 -350 C 341 -345 340 -344 340 -344 C 339 -344 339 -356 340 -356 C 340 -356 341 -355 341 -350 Z" style="fill: #E0E1E6;" transform="matrix(-0.587379, 0.809312, -0.809312, -0.587379, 260.114937, -820.617461)" bx:origin="0 1"/>
<path d="M 340 -349 C 340 -345 339 -344 339 -344 C 338 -344 338 -354 339 -354 C 339 -354 340 -353 340 -349 Z" style="fill: #AAABAF;"/>
<path d="M 288 -362 L 292 -363 L 292 -335 L 288 -336 L 288 -362 Z" style="fill: #E0E1E6;"/>
<path d="M 288 -362 L 282 -362 L 282 -336 L 288 -336 L 288 -362 Z" style="fill: #4B573F;"/>
<path d="M 282 -362 L 271 -362 L 271 -336 L 282 -336 L 282 -362 Z" style="fill: #E0E1E6;"/>
<path d="M 271 -362 L 266 -365 L 266 -333 L 271 -336 L 271 -362 Z" style="fill: #4B573F;"/>
<ellipse style="fill: #D8D8D8;" cx="329" cy="-354" rx="3" ry="2"/>
<rect x="271" width="21" height="7" style="fill: #4E4C4E;" y="-371"/>
<rect x="271" width="21" height="10" style="fill: #4E4C4E;" y="-382"/>
<rect x="271" width="21" height="14" style="fill: #4E4C4E;" y="-397"/>
<rect x="271" y="-334" width="21" height="7" style="fill: #4E4C4E;"/>
<rect x="271" width="21" height="10" style="fill: #4E4C4E;" y="-326"/>
<rect x="271" width="21" height="14" style="fill: #4E4C4E;" y="-315"/>
<path d="M 255 -349 C 255 -342 240 -341 240 -341 L 240 -357 C 240 -357 255 -356 255 -349 Z" style="fill: #4E4C4E;"/>
<path d="M 255 -365 L 253 -356 L 253 -342 L 255 -333 L 255 -365 Z" style="fill: #4B573F;"/>
<path d="M 266 -365 L 255 -368 L 255 -330 L 266 -333 L 266 -365 Z" style="fill: #E0E1E6;"/>
<path d="M 470 -349 C 470 -337 462 -337 456 -337 C 452 -337 449 -339 446 -342 C 442 -337 422 -335 422 -335 L 422 -363 C 422 -363 442 -361 446 -356 C 449 -359 452 -361 456 -361 C 462 -361 470 -361 470 -349 Z" style="fill: #4B573F;"/>
<path d="M 470 -349 C 470 -344 469 -343 469 -343 C 468 -343 468 -355 469 -355 C 469 -355 470 -354 470 -349 Z" style="fill: #E0E1E6;"/>
<path d="M 470 -349 C 470 -345 469 -344 469 -344 C 468 -344 468 -354 469 -354 C 469 -354 470 -353 470 -349 Z" style="fill: #AAABAF;"/>
<path d="M 418 -362 L 422 -363 L 422 -335 L 418 -336 L 418 -362 Z" style="fill: #E0E1E6;"/>
<path d="M 418 -362 L 412 -362 L 412 -336 L 418 -336 L 418 -362 Z" style="fill: #4B573F;"/>
<path d="M 412 -362 L 401 -362 L 401 -336 L 412 -336 L 412 -362 Z" style="fill: #E0E1E6;"/>
<path d="M 401 -362 L 396 -365 L 396 -333 L 401 -336 L 401 -362 Z" style="fill: #4B573F;"/>
<ellipse style="fill: #D8D8D8;" cx="459" cy="-354" rx="3" ry="2"/>
<rect x="401" width="21" height="7" style="fill: #4E4C4E;" y="-371"/>
<rect x="401" width="21" height="10" style="fill: #4E4C4E;" y="-382"/>
<rect x="401" width="21" height="14" style="fill: #4E4C4E;" y="-397"/>
<rect x="401" y="-334" width="21" height="7" style="fill: #4E4C4E;"/>
<rect x="401" width="21" height="10" style="fill: #4E4C4E;" y="-326"/>
<rect x="401" width="21" height="14" style="fill: #4E4C4E;" y="-315"/>
<path d="M 385 -349 C 385 -342 370 -341 370 -341 L 370 -357 C 370 -357 385 -356 385 -349 Z" style="fill: #4E4C4E;"/>
<path d="M 385 -365 L 383 -356 L 383 -342 L 385 -333 L 385 -365 Z" style="fill: #4B573F;"/>
<path d="M 396 -365 L 385 -368 L 385 -330 L 396 -333 L 396 -365 Z" style="fill: #E0E1E6;"/>
<ellipse style="fill: #AAABAF;" cx="473" cy="-349" rx="3" ry="6"/>
<g transform="matrix(1, 0, 0, 1, -230, -290)">
<polygon style="fill: rgba(255, 255, 255, 0.53);" points="9 70 21 76 33 77 46 76 50 82 56 79 62 80 72 75 78 76 83 73 77 79 73 77 63 83 58 81 48 84 44 78 37 79 20 77"/>
<polygon style="fill: rgba(255, 255, 255, 0.53);" points="2 55 10 61 19 62 22 66 38 67 43 70 55 69 40 72 37 68 23 68 17 64 9 63"/>
<polygon style="fill: rgba(255, 255, 255, 0.53);" points="87 84 83 84 79 83 74 87 63 88 76 88 80 85 85 86"/>
<polygon style="fill: rgba(255, 255, 255, 0.53);" points="9 79 18 84 26 85 28 87 35 89 43 87 49 89 43 89 33 91 26 87 18 86 15 86"/>
<polygon style="fill: rgba(255, 255, 255, 0.53);" points="41 94 50 93 54 95 60 93 66 94 73 91 65 96 59 96 52 97 47 95 38 96 30 92"/>
<polygon style="fill: rgba(255, 255, 255, 0.53);" points="10 36 17 45 28 47 33 52 42 51 49 55 56 54 48 53 39 49 33 50 26 44 18 43"/>
<polygon style="fill: rgba(255, 255, 255, 0.53);" points="6 26 12 30 21 32 24 37 30 39 25 35 21 30 13 28 9 21"/>
<polygon style="fill: rgba(255, 255, 255, 0.53);" points="15 16 20 22 26 23 31 29 47 30 56 34 66 30 56 32 43 27 32 28 28 20 21 21"/>
<polygon style="fill: rgba(255, 255, 255, 0.53);" points="73 46 81 47 85 44 94 44 99 40 100 46 87 45 81 49"/>
<polygon style="fill: rgba(255, 255, 255, 0.53);" points="57 61 71 58 81 60 90 55 96 56 90 57 81 62 70 60"/>
<polygon style="fill: rgba(255, 255, 255, 0.53);" points="86 15 81 21 73 23 71 26 77 23 84 23 88 17"/>
<polygon style="fill: rgba(255, 255, 255, 0.53);" points="21 9 26 12 34 12 39 16 47 14 39 14 33 10 29 10 28 5"/>
<polygon style="fill: rgba(255, 255, 255, 0.53);" points="67 3 63 7 54 9 65 8 73 5"/>
<polygon style="fill: rgba(255, 255, 255, 0.53);" points="33 3 40 7 49 5 41 5 39 1"/>
<polygon style="fill: rgba(255, 255, 255, 0.53);" points="53 47 62 45 69 40 79 40 87 31 78 38 67 38 61 43"/>
<polygon style="fill: rgba(255, 255, 255, 0.53);" points="0 45 8 44 14 47 18 50 26 50 32 57 26 52 18 53 12 47 6 46 0 49"/>
</g>
<polygon style="fill: #D8D8D8; stroke: #000000;" points="-7 92"/>
<polygon style="fill: #D8D8D8;" points="87 15"/>
<circle style="fill: #2882DC;" r="50" cx="-60" cy="-240"/>
<g transform="matrix(1, 0, 0, 1, 10, -180)">
<path d="M -40 -46 L -40 -48 L -40 -50 L -41 -53 L -41 -56 L -42 -60 L -45 -63 L -48 -64 L -49 -66 L -52 -68 L -55 -66 L -57 -67 L -63 -65 L -63 -60 L -65 -59 L -66 -54 L -72 -51 L -77 -52 L -81 -54 L -84 -52 L -88 -54 L -89 -59 L -92 -60 L -95 -59 L -99 -61 L -103 -62 L -106 -63 L -109 -60 L -108 -54 L -105 -48 L -105 -47 L -102 -43 L -101 -36 L -96 -33 L -90 -29 L -89 -23 L -82 -17 L -82 -21 L -77 -22 L -75 -23 L -72 -22 L -70 -23 L -69 -22 L -67 -23 L -62 -23 L -68 -21 L -76 -20 L -79 -21 L -79 -16 L -77 -12 L -75 -13 L -72 -14 L -71 -12 L -71 -15 L -66 -15 L -70 -13 L -70 -11 L -72 -12 L -74 -11 L -78 -11 C -78 -11 -51 -4 -32 -28 L -31 -34 L -36 -31 L -34 -33 L -35 -37 L -34 -39 L -32 -42 L -35 -40 L -37 -41 L -34 -44 L -36 -47 L -37 -48 L -39 -47 L -40 -44 L -40 -42 L -39 -40 L -39 -39 L -38 -38 L -40 -36 L -40 -35 L -42 -34 L -43 -33 L -45 -31 L -48 -28 L -50 -28 L -49 -26 L -50 -24 L -48 -25 L -46 -23 L -46 -22 L -49 -21 L -47 -20 L -49 -19 L -50 -20 L -53 -18 L -54 -19 L -51 -22 L -50 -23 L -50 -25 L -52 -24 L -54 -23 L -55 -23 L -55 -21 L -58 -21 L -59 -22 L -58 -24 L -54 -28 L -53 -30 L -54 -30 L -53 -33 L -50 -34 L -47 -34 L -43 -39 L -42 -42 L -41 -45 L -40 -46 Z" style="fill: #869B70;"/>
<polygon style="fill: #869B70;" points="-109 -43 -106 -40 -105 -38 -103 -37 -103 -35 -101 -31 -106 -37"/>
<path d="M -86 -107 L -81 -107 L -77 -106 L -73 -103 L -71 -103 L -71 -100 L -67 -96 L -63 -95 L -61 -92 L -57 -91 L -56 -92 L -54 -92 L -53 -95 L -49 -95 L -47 -95 L -44 -93 L -43 -96 L -37 -95 L -35 -96 C -49 -109 -67 -114 -86 -107 Z" style="fill: #869B70;"/>
<polygon style="fill: #869B70;" points="-32 -40 -33 -38 -34 -37 -30 -37 -29 -38 -32 -38"/>
<polygon style="fill: #869B70;" points="-29 -42 -31 -41 -29 -40"/>
</g>
<g transform="matrix(1, 0, 0, 1, 10, -180)">
<polygon style="fill: #D4D8D8;" points="-66 -105 -77 -98 -84 -88 -90 -76 -97 -76 -98 -69 -102 -65 -103 -54 -107 -49 -107 -43 -109 -51 -105 -54 -105 -66 -101 -69 -98 -79 -91 -79 -88 -86 -78 -99"/>
<polygon style="fill: #D4D8D8;" points="-50 -104 -59 -100 -64 -93 -69 -92 -78 -79 -84 -76 -89 -66 -84 -80 -79 -81 -72 -93 -65 -96 -60 -102"/>
<polygon style="fill: #D4D8D8;" points="-117 -43 -116 -49 -113 -52 -114 -58 -109 -68 -116 -57 -115 -52 -119 -49"/>
<polygon style="fill: #D4D8D8;" points="-74 -110 -82 -105 -87 -99 -90 -98 -96 -93 -98 -85 -103 -81 -100 -86 -96 -96 -89 -100 -84 -106 -81 -109"/>
<polygon style="fill: #D4D8D8;" points="-103 -90 -107 -82 -111 -79 -112 -73 -116 -69 -117 -61 -117 -70 -114 -76 -111 -82 -107 -85 -103 -94 -96 -98"/>
<polygon style="fill: #D4D8D8;" points="-37 -87 -48 -86 -56 -78 -63 -76 -66 -68 -73 -64 -76 -57 -71 -64 -63 -69 -61 -75 -52 -78 -47 -84"/>
<polygon style="fill: #D4D8D8;" points="-26 -84 -33 -82 -39 -75 -45 -75 -50 -71 -44 -74 -38 -74 -32 -80 -24 -80"/>
<polygon style="fill: #D4D8D8;" points="-23 -72 -30 -71 -34 -66 -42 -65 -51 -52 -59 -46 -61 -36 -57 -45 -47 -54 -42 -64 -33 -63 -30 -70"/>
<polygon style="fill: #D4D8D8;" points="-79 -38 -84 -32 -83 -27 -88 -19 -87 -13 -92 -15 -85 -25 -86 -33"/>
<polygon style="fill: #D4D8D8;" points="-83 -59 -87 -46 -94 -38 -94 -28 -98 -24 -96 -29 -96 -39 -88 -48"/>
<polygon style="fill: #D4D8D8;" points="-56 -12 -61 -18 -58 -26 -60 -30 -60 -23 -64 -17 -61 -11"/>
<polygon style="fill: #D4D8D8;" points="-20 -64 -25 -61 -29 -54 -35 -52 -38 -44 -34 -51 -27 -54 -25 -58 -20 -56"/>
<polygon style="fill: #D4D8D8;" points="-39 -21 -40 -27 -37 -36 -42 -26 -43 -18"/>
<polygon style="fill: #D4D8D8;" points="-21 -50 -28 -46 -31 -38 -27 -45 -22 -46"/>
<polygon style="fill: #D4D8D8;" points="-69 -56 -72 -47 -71 -38 -77 -30 -73 -18 -74 -30 -69 -39 -70 -47"/>
<polygon style="fill: #D4D8D8;" points="-40 -100 -43 -93 -49 -89 -54 -88 -58 -81 -67 -79 -59 -82 -56 -89 -48 -91 -44 -96 -43 -102"/>
</g>
<path d="M 90 -239 C 90 -227 82 -227 76 -227 C 72 -227 69 -229 66 -232 C 62 -227 42 -225 42 -225 L 42 -253 C 42 -253 62 -251 66 -246 C 69 -249 72 -251 76 -251 C 82 -251 90 -251 90 -239 Z" style="fill: #4B573F;" id="SoyuzBody"/>
<path d="M 38 -252 L 42 -253 L 42 -225 L 38 -226 L 38 -252 Z" style="fill: #E0E1E6;"/>
<path d="M 38 -252 L 32 -252 L 32 -226 L 38 -226 L 38 -252 Z" style="fill: #4B573F;"/>
<path d="M 32 -252 L 20 -252 L 20 -226 L 32 -226 L 32 -252 Z" style="fill: #E0E1E6;"/>
<path d="M 20 -252 L 14 -256 L 14 -222 L 20 -226 L 20 -252 Z" style="fill: #4B573F;"/>
<rect x="21" width="21" height="7" style="fill: #4E4C4E;" y="-261"/>
<rect x="21" width="21" height="10" style="fill: #4E4C4E;" y="-272"/>
<rect x="21" width="21" height="14" style="fill: #4E4C4E;" y="-287"/>
<rect x="21" y="-224" width="21" height="7" style="fill: #4E4C4E;"/>
<rect x="21" width="21" height="10" style="fill: #4E4C4E;" y="-216"/>
<rect x="21" width="21" height="14" style="fill: #4E4C4E;" y="-205"/>
<path d="M 90 -239 C 90 -234 89 -233 89 -233 C 88 -233 88 -245 89 -245 C 89 -245 90 -244 90 -239 Z" style="fill: #E0E1E6;"/>
<path d="M 220 -239 C 220 -227 212 -227 206 -227 C 202 -227 199 -229 196 -232 C 192 -227 172 -225 172 -225 L 172 -253 C 172 -253 192 -251 196 -246 C 199 -249 202 -251 206 -251 C 212 -251 220 -251 220 -239 Z" style="fill: #4B573F;"/>
<path d="M 168 -252 L 172 -253 L 172 -225 L 168 -226 L 168 -252 Z" style="fill: #E0E1E6;"/>
<path d="M 168 -252 L 162 -252 L 162 -226 L 168 -226 L 168 -252 Z" style="fill: #4B573F;"/>
<path d="M 162 -252 L 150 -252 L 150 -226 L 162 -226 L 162 -252 Z" style="fill: #E0E1E6;"/>
<path d="M 150 -252 L 144 -256 L 144 -222 L 150 -226 L 150 -252 Z" style="fill: #4B573F;"/>
<rect x="151" width="21" height="7" style="fill: #4E4C4E;" y="-261"/>
<rect x="151" width="21" height="10" style="fill: #4E4C4E;" y="-272"/>
<rect x="151" width="21" height="14" style="fill: #4E4C4E;" y="-287"/>
<rect x="151" y="-224" width="21" height="7" style="fill: #4E4C4E;"/>
<rect x="151" width="21" height="10" style="fill: #4E4C4E;" y="-216"/>
<rect x="151" width="21" height="14" style="fill: #4E4C4E;" y="-205"/>
<path d="M 220 -239 C 220 -234 219 -233 219 -233 C 218 -233 218 -245 219 -245 C 219 -245 220 -244 220 -239 Z" style="fill: #E0E1E6;"/>
<polygon style="fill: #4E4C4E;" points="172 -253 174 -256 177 -255 178 -252"/>
<circle style="fill: #262526;" cx="175" cy="-254" r="1"/>
<polygon style="fill: #4E4C4E;" points="172 -225 174 -222 177 -223 178 -226"/>
<circle style="fill: #262526;" cx="175" cy="-224" r="1"/>
<circle style="stroke: #323B2A; fill: #252425;" cx="56" r="3" cy="-239"/>
<path d="M 90 -239 C 90 -234 89 -233 89 -233 C 88 -233 88 -245 89 -245 C 89 -245 90 -244 90 -239 Z" style="fill: #E0E1E6;"/>
<path d="M 111 -240 C 111 -235 110 -234 110 -234 C 109 -234 109 -246 110 -246 C 110 -246 111 -245 111 -240 Z" style="fill: #E0E1E6;" transform="matrix(-0.587379, 0.809312, -0.809312, -0.587379, -15.957881, -459.864006)" bx:origin="0 1"/>
<path d="M 110 -239 C 110 -235 109 -234 109 -234 C 108 -234 108 -244 109 -244 C 109 -244 110 -243 110 -239 Z" style="fill: #AAABAF;"/>
<rect x="459" y="373" width="66" height="84" style="fill: #FFFFFF;"/>
<rect x="459" y="361" width="66" height="12" style="fill: #DFDFDF;"/>
<polygon style="fill: #BEBEBE;" points="39 180 60 183 64 173 63 144 56 141"/>
<ellipse style="fill: #D8D8D8;" cx="47" cy="135" rx="12" ry="14"/>
<path d="M 57 142 L 58 148 L 73 157 L 78 171 L 72 173 L 68 164 L 59 160 L 60 174 L 56 182 L 57 192 L 68 202 L 65 214 L 60 214 L 60 205 L 50 198 L 45 187 L 41 197 L 49 209 L 47 215 L 44 220 L 39 219 L 40 211 L 32 197 L 35 178 L 35 171 L 36 161 L 31 164 L 24 172 L 20 169 L 26 156 L 36 149 L 40 148 L 41 145 L 57 142 Z" style="fill: #D8D8D8;"/>
<polygon style="fill: #BEBEBE;" points="24 172 23 177 21 176 20 180 17 179 17 173 20 169"/>
<polygon style="fill: #BEBEBE;" points="72 173 72 178 74 178 74 182 77 182 79 175 78 171"/>
<ellipse style="fill: #E9E9E9;" cx="58" cy="136" rx="2" ry="4"/>
<path d="M 58 135 C 58 141 54 145 46 145 C 38 145 34 141 34 135 C 34 129 40 127 46 127 C 54 127 58 129 58 135 Z" style="fill: #E9E9E9;"/>
<path d="M 56 135 C 56 142 52 144 46 144 C 40 144 36 142 36 135 C 36 128 41 128 46 128 C 52 128 56 128 56 135 Z" style="fill: #CEB56B;"/>
<line style="stroke: #DFDFDF; stroke-width: 2px;" x1="470" y1="384" x2="514" y2="385"/>
<line style="stroke: #DFDFDF; stroke-width: 2px;" x1="470" y1="394" x2="514" y2="395"/>
<line style="stroke: #DFDFDF; stroke-width: 2px;" x1="470" y1="404" x2="514" y2="405"/>
<line style="stroke: #DFDFDF; stroke-width: 2px;" x1="470" y1="414" x2="514" y2="415"/>
<line style="stroke: #DFDFDF; stroke-width: 2px;" x1="470" y1="424" x2="514" y2="425"/>
<line style="stroke: #DFDFDF; stroke-width: 2px;" x1="470" y1="434" x2="514" y2="435"/>
<line style="stroke: #DFDFDF; stroke-width: 2px;" x1="470" y1="444" x2="514" y2="445"/>
<polygon style="fill: #FFFFFF;" points="239 208 242 214 245 212 244 205 240 203"/>
<polygon style="fill: #C99E93;" points="189 163 183 163 181 165 187 166 186 168 190 166"/>
<polygon style="fill: #C99E93;" points="246 163 249 169 248 172 245 168 244 170 243 164"/>
<polygon style="fill: #FFFFFF;" points="217 210 214 216 217 217 222 212 221 209"/>
<polygon style="fill: #35A5CA;" points="222 143 213 144 205 148 200 158 188 163 190 166 204 163 209 154 210 171 208 192 216 210 221 209 217 191 219 177 227 192 239 207 243 204 234 187 228 171 229 153 236 156 243 165 246 163 240 152 230 145"/>
<polygon style="fill: #C99E93;" points="219 128 209 126 207 134 210 140 214 140 213 145 217 147 222 144 221 138"/>
<polygon style="fill: #C13549;" points="207 126 216 124 221 126 221 138 219 136 219 131 217 130 217 133 215 132 216 129"/>
<ellipse style="fill: rgba(0, 0, 0, 0.2);" cx="389" cy="334" rx="18" ry="3"/>
<polygon style="fill: #2B0C10;" points="394 328 398 329 403 334 401 335 397 334 393 332"/>
<polygon style="fill: #2B0C10;" points="384 328 380 329 375 334 377 335 381 334 385 332"/>
<path d="M 382 295 L 398 295 L 400 315 L 399 330 L 393 329 L 393 315 L 390 298 L 386 315 L 385 329 L 379 329 L 379 315 L 382 295 Z" style="fill: #5A5A5A;"/>
<polygon style="fill: #C99E93;" points="406 301 404 307 402 308 403 304 401 304 404 300"/>
<polygon style="fill: #C99E93;" points="374 302 375 307 377 309 377 304 378 304 376 301"/>
<path d="M 387 268 L 394 268 L 403 272 L 407 288 L 406 301 L 403 300 L 402 289 L 399 279 L 399 296 L 400 312 L 390 312 L 390 308 L 388 312 L 378 310 L 380 296 L 381 279 L 378 288 L 377 301 L 374 302 L 373 288 L 378 272 L 387 268 Z" style="fill: #E6E4EC;"/>
<polygon style="fill: #C99E93;" points="394 253 383 251 381 260 384 265 387 264 387 268 390 269 394 268 394 262"/>
<polygon style="fill: #D8D8D8;" points="383 251 382 249 387 250 391 249 397 252 395 261 393 262 393 256 391 259 391 255 390 253"/>
<ellipse style="fill: rgba(0, 0, 0, 0.2);" cx="449" cy="334" rx="18" ry="3"/>
<polygon style="fill: #2B0C10;" points="454 326 458 329 463 334 461 335 457 334 453 332"/>
<polygon style="fill: #2B0C10;" points="444 327 440 329 435 334 437 335 441 334 445 332"/>
<path d="M 440 301 L 460 301 L 460 315 L 459 329 L 453 328 L 453 315 L 450 303 L 446 315 L 445 329 L 439 328 L 439 315 L 440 301 Z" style="fill: #5A5A5A;"/>
<polygon style="fill: #C99E93;" points="467 301 465 307 463 308 464 304 462 304 465 300"/>
<polygon style="fill: #C99E93;" points="433 302 434 307 436 309 436 304 437 304 435 301"/>
<path d="M 446 268 L 455 268 L 464 272 L 468 288 L 467 301 L 464 300 L 462 289 L 460 281 L 461 294 L 460 312 L 451 313 L 450 310 L 448 312 L 439 311 L 439 296 L 440 282 L 438 288 L 435 301 L 432 303 L 432 287 L 437 272 L 446 268 Z" style="fill: #E6E4EC;"/>
<polygon style="fill: #C99E93;" points="454 254 448 249 443 252 442 259 443 263 447 265 446 269 450 270 455 269 454 263"/>
<polygon style="fill: #D8D8D8;" points="450 249"/>
<polygon style="fill: #D8D8D8;" points="448 249 451 256 453 254 453 259 454 263 456 256 454 250"/>
<polygon style="fill: #5A5A5A;" points="442 254 441 255 441 256 442 257 444 257 445 256 446 257 448 257 449 256 449 255 453 254 446 254 445 255 444 254"/>
<polygon style="fill: #D8D8D8;" points="443 263 445 267 447 263"/>
<ellipse style="fill: rgba(0, 0, 0, 0.2);" cx="509" cy="334" rx="18" ry="3"/>
<polygon style="fill: #2B0C10;" points="514 329 518 330 523 334 521 335 517 334 513 332"/>
<polygon style="fill: #2B0C10;" points="504 330 500 330 495 334 497 335 501 334 505 332"/>
<path d="M 502 301 L 518 301 L 517 318 L 518 330 L 514 329 L 513 318 L 510 304 L 506 318 L 504 330 L 500 330 L 502 319 L 502 301 Z" style="fill: #C99E93;"/>
<polygon style="fill: #C99E93;" points="525 306 523 312 521 313 522 309 520 309 523 305"/>
<polygon style="fill: #C99E93;" points="494 308 495 312 497 314 497 309 498 309 496 306"/>
<path d="M 507 277 L 514 277 L 522 284 L 524 294 L 525 306 L 522 305 L 520 295 L 519 289 L 519 303 L 518 325 L 511 324 L 510 318 L 507 324 L 500 325 L 500 302 L 501 290 L 499 296 L 497 306 L 494 308 L 495 295 L 498 284 L 507 277 Z" style="fill: #7E592C;"/>
<polygon style="fill: #D8D8D8;" points="510 262 517 264 519 271 513 274 507 271"/>
<polygon style="fill: #C99E93;" points="515 268 511 261 506 262 504 267 505 272 507 274 507 278 510 283 514 278 514 272"/>
<polygon style="fill: #7E592C;" points="505 264 517 264 513 258 507 260"/>
<polygon style="fill: #35A5CA;" points="372 147 381 148 389 154 393 162 401 169 398 172 389 166 385 159 388 173 401 179 400 196 393 194 394 185 385 182 389 192 386 204 381 204 381 191 372 180 370 159 367 166 370 174 368 177 361 167 365 154"/>
<polygon style="fill: #C99E93;" points="375 133 385 131 387 140 384 145 380 145 381 149 376 152 372 148 373 143"/>
<polygon style="fill: #2B0C10;" points="386 131 377 129 372 132 373 143 375 140 375 136 377 135 378 139 379 145 384 146 386 142 380 139 379 134"/>
<polygon style="fill: #FFFFFF;" points="381 207 387 213 391 211 386 204 382 204"/>
<polygon style="fill: #FFFFFF;" points="394 199 400 201 405 199 399 196 394 194"/>
<polygon style="fill: #C99E93;" points="401 169 405 170 407 174 402 172 401 174 399 171"/>
<polygon style="fill: #C99E93;" points="370 174 374 175 372 177 375 180 371 182 368 177"/>
<polygon style="fill: #35A5CA;" points="292 147 301 148 307 151 314 152 318 144 322 147 315 157 305 158 308 173 318 188 316 202 311 201 311 190 305 182 309 192 306 204 301 204 301 191 292 180 290 159 287 166 290 174 288 177 281 167 285 154"/>
<polygon style="fill: #C99E93;" points="295 133 305 131 307 140 304 145 300 145 301 149 296 152 292 148 293 143"/>
<polygon style="fill: #2B0C10;" points="306 131 297 129 292 132 293 143 295 140 295 136 297 135 298 139 299 145 304 146 306 142 300 139 299 134"/>
<polygon style="fill: #FFFFFF;" points="301 207 307 213 311 211 306 204 302 204"/>
<polygon style="fill: #FFFFFF;" points="311 205 317 207 322 205 316 202 311 200"/>
<polygon style="fill: #C99E93;" points="318 141 320 142 322 139 324 140 321 147 318 144"/>
<polygon style="fill: #C99E93;" points="290 174 294 175 292 177 295 180 291 182 288 177"/>
<rect width="100" height="100" style="fill: #3D4532;" x="-110" y="-110"/>
<path d="M -49 -30 C -58 -30 -65 -33 -72 -40 L -76 -40 C -82 -36 -97 -32 -107 -30 L -107 -88 C -97 -86 -82 -82 -76 -78 L -72 -78 C -65 -85 -58 -88 -49 -88 C -38 -88 -24 -88 -18 -75 C -15 -75 -13 -68 -13 -59 C -13 -50 -15 -43 -18 -43 C -24 -30 -38 -30 -49 -30 Z" style="fill: #CACBCF; stroke: #4B573F; stroke-width: 2px;"/>
<path d="M -77 -70 L -71 -70 C -70 -80 -56 -85 -49 -85 C -33 -85 -18 -83 -18 -59 C -18 -35 -33 -33 -49 -33 C -56 -33 -70 -38 -71 -48 L -77 -48 C -77 -40 -102 -33 -106 -33 L -106 -85 C -102 -85 -77 -78 -77 -70 Z" style="fill: #E0E1E6;"/>
<rect width="9" height="22" style="fill: #3D4532;" x="-72" y="-70"/>
<ellipse style="fill: #CACBCF;" cx="-64" rx="7" ry="10" cy="-59"/>
<ellipse style="fill: #F0F1F6;" cx="-63" rx="6" ry="9" cy="-59" id="InnerHatch"/>
<circle style="fill: #0A8CC8; stroke-width: 2px; stroke: #CACBCF;" cx="-91" r="5" cy="-59" id="Window"/>
<rect x="-76" width="4" height="22" style="fill: #CACBCF;" y="-70"/>
<polygon style="fill: #A9A9A9;" points="-100 -79 -105 -68 -102 -46 -94 -48 -94 -44 -106 -35 -106 -83" id="Seats"/>
<line style="fill: none; stroke: #F9FAFF;" x1="-74" y1="-48" x2="-74" y2="-70"/>
<line style="fill: none; stroke: #CACBCF;" x1="-41" y1="-33" x2="-41" y2="-85"/>
<path d="M -52 -80 L -59 -80 L -61 -70 L -71 -70 L -71 -71 C -69 -80 -56 -85 -49 -85 L -52 -80 Z" style="fill: #4B573F;" id="Storage1"/>
<path d="M -56 -48 L -50 -38 L -50 -33 C -57 -33 -69 -38 -71 -47 L -71 -48 Z" style="fill: #4B573F;" id="Storage2"/>
<path d="M -90 -77 L -88 -80 C -82 -77 -77 -74 -77 -70 Z" style="fill: #A9A9A9;" id="Radio"/>
<path d="M -86 -46 L -80 -56 L -77 -48 C -77 -45 -80 -43 -84 -40 L -86 -46 Z" style="fill: #A9A9A9;" id="Controls"/>
<g transform="matrix(0.443206, 0, 0, 0.443206, -248.700058, -163.647339)" style="">
<polygon style="fill: #35A5CA;" points="341 34 350 35 356 38 363 39 367 31 371 34 364 44 354 45 357 60 367 75 365 89 360 88 360 77 354 69 358 79 355 91 350 91 350 78 341 67 339 46 336 53 339 61 337 64 330 54 334 41"/>
<polygon style="fill: #C99E93;" points="344 20 354 18 356 27 353 32 349 32 350 36 345 39 341 35 342 30"/>
<polygon style="fill: #2B0C10;" points="355 18 346 16 341 19 342 30 344 27 344 23 346 22 347 26 348 32 353 33 355 29 349 26 348 21"/>
<polygon style="fill: #FFFFFF;" points="350 94 356 100 360 98 355 91 351 91"/>
<polygon style="fill: #FFFFFF;" points="360 92 366 94 371 92 365 89 360 87"/>
<polygon style="fill: #C99E93;" points="367 28 369 29 371 26 373 27 370 34 367 31"/>
<polygon style="fill: #C99E93;" points="339 61 343 62 341 64 344 67 340 69 337 64"/>
</g>
<path d="M -19 -72 C -17 -72 -17 -46 -19 -46 C -21 -46 -23 -51 -23 -59 C -23 -67 -21 -72 -19 -72 Z" style="fill: #F0F1F6;" id="Hatch"/>
<line style="fill: none; stroke: #CACBCF;" x1="-36" y1="-33" x2="-36" y2="-85"/>
<g style="" transform="matrix(0.452857, 0, 0, 0.452857, -84.675804, -120.017632)">
<polygon style="fill: #C99E93;" points="92 -81 84 -83 83 -77 84 -69 90 -69 89 -64 98 -64 97 -71"/>
<polygon style="fill: #FCFCFC;" points="114 -2 117 4 120 2 119 -5 115 -7"/>
<polygon style="fill: #C99E93;" points="64 -47 58 -47 57 -45 62 -44 60 -42 65 -44"/>
<polygon style="fill: #C99E93;" points="121 -47 123 -42 123 -39 120 -42 119 -40 118 -46"/>
<polygon style="fill: #FCFCFC;" points="92 0 89 6 92 7 97 2 96 -1"/>
<polygon style="fill: #35A5CA;" points="98 -67 88 -66 80 -62 75 -52 63 -47 65 -44 79 -47 84 -56 85 -39 83 -18 91 0 97 0 92 -19 94 -33 102 -18 114 -3 118 -6 109 -23 103 -39 104 -57 111 -54 118 -45 121 -47 115 -58 105 -65"/>
<polygon style="fill: #C13549;" points="83 -83 92 -85 97 -83 97 -71 91 -74 91 -78 89 -80 88 -75 86 -76 86 -80"/>
</g>
<path d="M -550 -110 L -230 -110 L -230 210 L -550 210 L -550 -110 Z M -390 11 C -412 11 -429 28 -429 50 C -429 72 -412 89 -390 89 C -368 89 -351 72 -351 50 C -351 28 -368 11 -390 11 Z" style="fill: #E0E1E6;"/>
<path d="M -220 -110 L -120 -110 L -120 -10 L -220 -10 Z M -170 -99 C -192 -99 -209 -82 -209 -60 C -209 -38 -192 -21 -170 -21 C -148 -21 -131 -38 -131 -60 C -131 -82 -148 -99 -170 -99 Z" style="fill: #E0E1E6;"/>
<circle style="stroke: #CACBCF; stroke-width: 8px; fill: none;" cx="-170" r="39" cy="-60"/>
<rect width="100" height="100" style="fill: #2B1F89;" y="-110" x="110"/>
<polygon style="fill: #3A29B7;" points="136 -27 148 -32 158 -28 172 -31 187 -28 197 -31 208 -28 206 -40 208 -53 206 -65 208 -87 201 -91 182 -89 170 -92 160 -89 148 -92 136 -89 125 -92 112 -89 114 -73 112 -61 115 -47 113 -40 112 -29 123 -31"/>
<path d="M 125 -83 L 196 -84 L 195 -40 L 127 -42 L 125 -83 Z" style="fill: #D9D4D9;"/>
<path d="M 127 -42 L 195 -40 L 204 -33 L 116 -33 L 127 -42 Z" style="fill: #FAF4FA;"/>
<path d="M 127 -42 L 125 -83 L 116 -87 L 116 -33 L 127 -42 Z" style="fill: #E3DDE3;"/>
<path d="M 195 -40 L 196 -84 L 204 -87 L 204 -33 L 195 -40 Z" style="fill: #E3DDE3;"/>
<path d="M 125 -83 L 196 -84 L 204 -87 L 116 -87 L 125 -83 Z" style="fill: #FAF4FA;"/>
<rect width="100" height="100" style="fill: #2B1F89;" y="-110"/>
<polygon style="fill: #3A29B7;" points="26 -27 38 -32 48 -28 62 -31 77 -28 87 -31 98 -28 96 -40 98 -53 96 -65 98 -87 91 -91 72 -89 60 -92 50 -89 38 -92 26 -89 15 -92 2 -89 4 -73 2 -61 5 -47 3 -40 2 -29 13 -31"/>
<path d="M 15 -84 L 85 -82 L 83 -41 L 15 -39 L 15 -84 Z" style="fill: #7C624B;"/>
<polygon style="fill: #624D3B;" points="66 -53 66 -64 51 -64 50 -53"/>
<polygon style="fill: #624D3B;" points="65 -66 64 -76 49 -75 49 -66"/>
<path d="M 15 -39 L 83 -41 L 94 -33 L 6 -33 L 15 -39 Z" style="fill: #624D3B;"/>
<path d="M 15 -39 L 15 -84 L 6 -87 L 6 -33 L 15 -39 Z" style="fill: #9C7B5F;"/>
<path d="M 83 -41 L 85 -82 L 94 -87 L 94 -33 L 83 -41 Z" style="fill: #9C7B5F;"/>
<path d="M 15 -84 L 85 -82 L 94 -87 L 6 -87 L 15 -84 Z" style="fill: #624D3B;"/>
<rect width="100" height="100" style="fill: #2B1F89;" x="220" y="-110"/>
<polygon style="fill: #3A29B7;" points="246 -27 258 -32 268 -28 282 -31 297 -28 307 -31 318 -28 316 -40 318 -53 316 -65 318 -87 311 -91 292 -89 280 -92 270 -89 258 -92 246 -89 235 -92 222 -89 224 -73 222 -61 225 -47 223 -40 222 -29 233 -31"/>
<path d="M 314 -87 L 226 -87 L 226 -60 L 314 -60 L 314 -87 Z" style="fill: #6C6A6C;"/>
<path d="M 314 -60 L 226 -60 L 226 -33 L 314 -33 L 314 -60 Z" style="fill: #7E7B7E;"/>
<path d="M 231 -53 L 231 -87 L 228 -87 L 228 -45 L 241 -48 L 231 -53 Z" style="stroke-linejoin: bevel; stroke-width: 0.5px; fill: #A8982D;"/>
<path d="M 251 -50 C 250 -45 260 -46 257 -42 C 254 -38 240 -44 244 -37" style="fill: none; stroke-linecap: round; stroke: #9F9F9F;"/>
<path d="M 280 -59 C 280 -51 275 -51 271 -51 C 268 -51 266 -52 264 -54 C 261 -51 248 -49 248 -49 L 248 -68 C 248 -68 261 -67 264 -63 C 266 -65 268 -67 271 -67 C 275 -67 280 -67 280 -59 Z" style="fill: #4B573F;"/>
<path d="M 245 -67 L 248 -68 L 248 -49 L 245 -50 L 245 -67 Z" style="fill: #E0E1E6;"/>
<path d="M 242 -63 L 240 -63 L 240 -87 L 242 -87 L 242 -80 L 252 -80 L 252 -87 L 254 -87 L 254 -78 L 242 -78 Z" style="fill: #4F4F4F;"/>
<path d="M 245 -67 L 241 -67 L 241 -50 L 245 -50 L 245 -67 Z" style="fill: #4B573F;"/>
<path d="M 241 -67 L 233 -67 L 233 -50 L 241 -50 L 241 -67 Z" style="fill: #E0E1E6;"/>
<path d="M 233 -67 L 229 -70 L 229 -47 L 233 -50 L 233 -67 Z" style="fill: #4B573F;"/>
<circle style="stroke: #323B2A; fill: #252425;" cx="257" r="2" cy="-58"/>
<path d="M 232 -55 L 229 -55 L 229 -71 L 233 -73 L 229 -73 L 229 -80 L 226 -84 L 226 -37 L 239 -40 L 229 -45 L 229 -53 L 232 -55 Z" style="fill: #D7C23A; stroke-linejoin: bevel; stroke-width: 0.5px;"/>
<path d="M 285 -67 C 285 -67 278 -64 279 -63 C 279 -63 286 -66 285 -67 Z" style="fill: #E0E1E6;"/>
<rect x="237" y="-87" width="2" height="20" style="fill: #4F4F4F;"/>
<polyline style="fill: none; stroke: #D7C23A; stroke-linejoin: bevel; stroke-width: 0.5px;" points="250 -73 247 -75 244 -73 241 -75 238 -73 235 -75 232 -73 229 -75"/>
<polyline style="fill: none; stroke: #D7C23A; stroke-linejoin: bevel; stroke-width: 0.5px;" points="250 -75 247 -73 244 -75 241 -73 238 -75 235 -73 232 -75 229 -73"/>
<polyline style="fill: none; stroke: #D7C23A; stroke-width: 0.5px;" points="229 -75 250 -75 250 -73 229 -73"/>
<polyline style="fill: none; stroke: #D7C23A; stroke-linejoin: bevel; stroke-width: 0.5px;" points="239 -55 236 -57 233 -55 230 -57 227 -55"/>
<polyline style="fill: none; stroke: #D7C23A; stroke-linejoin: bevel; stroke-width: 0.5px;" points="239 -57 236 -55 233 -57 230 -55 227 -57"/>
<polyline style="fill: none; stroke: #D7C23A; stroke-width: 0.5px;" points="229 -57 239 -57 239 -55 229 -55"/>
<path d="M 314 -78 L 263 -78 L 263 -87 L 265 -87 L 265 -80 L 300 -80 L 300 -87 L 302 -87 L 302 -80 L 303 -80 L 303 -87 L 305 -87 L 305 -80 L 314 -80 Z" style="fill: #4F4F4F;"/>
<path d="M 280 -59 C 280 -56 279 -55 279 -55 C 278 -55 278 -63 279 -63 C 279 -63 280 -62 280 -59 Z" style="fill: #323B2A;"/>
<path d="M 254 -51 C 253 -46 262 -46 264 -43 C 266 -40 273 -43 279 -41" style="fill: none; stroke-linecap: round; stroke: #9F9F9F;"/>
<polygon style="fill: #CBCCD0;" points="240 -65 240 -61 234 -61 234 -65" id="ConFlap"/>
<polygon style="fill: #D9D4D9;" points="303 -60 310 -60 310 -74 303 -74" id="ToInfL"/>
<g style="" transform="matrix(3.690097, 0, 0, 3.690097, 721.866272, -43.011864)"/>
<polygon style="fill: #4F4F4F;" points="19 -69 19 -48 46 -49 45 -71" id=""/>
<text style="fill: #727272; font-family: monospace; font-size: 2.5px; white-space: pre;" x="23" y="-152">x²+y²+z²-c²t²</text>
<polygon style="fill: #3D3025;" points="19 -70 19 -38 18 -38 18 -69"/>
<polygon style="fill: #3D3025;" points="46 -71 47 -39 46 -39 45 -72"/>
<polygon style="fill: #D8D8D8; stroke: #000000;" points="102 122"/>
<polygon style="fill: #624D3B;" points="12 -37 12 -78 8 -79 8 -34"/>
<ellipse style="stroke: #624D3B; stroke-width: 0.5px; fill: #A3A3A3;" cx="26" cy="-77" rx="3" ry="3"/>
<circle style="fill: #D8B844;" cx="50" cy="-79" r="1"/>
<polygon style="fill: none; stroke-linecap: round; stroke-width: 0.5px;" points="17 -50 83 -50 50 -83"/>
<g transform="matrix(0.401383, 0, 0, 0.401383, -124.301453, -250.764709)" style="">
<ellipse style="fill: rgba(0, 0, 0, 0.2);" cx="449" cy="334" rx="18" ry="3"/>
<polygon style="fill: #2B0C10;" points="454 326 458 329 463 334 461 335 457 334 453 332"/>
<polygon style="fill: #2B0C10;" points="444 327 440 329 435 334 437 335 441 334 445 332"/>
<path d="M 440 301 L 460 301 L 460 315 L 459 329 L 453 328 L 453 315 L 450 303 L 446 315 L 445 329 L 439 328 L 439 315 L 440 301 Z" style="fill: #5A5A5A;"/>
<polygon style="fill: #C99E93;" points="467 301 465 307 463 308 464 304 462 304 465 300"/>
<polygon style="fill: #C99E93;" points="433 302 434 307 436 309 436 304 437 304 435 301"/>
<path d="M 446 268 L 455 268 L 464 272 L 468 288 L 467 301 L 464 300 L 462 289 L 460 281 L 461 294 L 460 312 L 451 313 L 450 310 L 448 312 L 439 311 L 439 296 L 440 282 L 438 288 L 435 301 L 432 303 L 432 287 L 437 272 L 446 268 Z" style="fill: #E6E4EC;"/>
<polygon style="fill: #C99E93;" points="454 254 448 249 443 252 442 259 443 263 447 265 446 269 450 270 455 269 454 263"/>
<polygon style="fill: #D8D8D8;" points="448 249 451 256 453 254 453 259 454 263 456 256 454 250"/>
<polygon style="fill: #5A5A5A;" points="442 254 441 255 441 256 442 257 444 257 445 256 446 257 448 257 449 256 449 255 453 254 446 254 445 255 444 254"/>
<polygon style="fill: #D8D8D8;" points="443 263 445 267 447 263"/>
</g>
<polygon style="fill: #47382B;" points="12 -37 12 -78 11 -78 11 -37"/>
<polygon style="fill: #47382B;" points="12 -78 8 -79 11 -78"/>
<polygon style="fill: #D8D8D8; stroke: #000000;" points="-6 79"/>
<path d="M 20 -60 C 22 -45 21 -60 22 -61 C 25 -64 43 -66 44 -64" style="fill: none; stroke-linecap: round; stroke-width: 0.3px; stroke: #727272;"/>
<path d="M 25 -61 C 25 -61 27 -61 26 -60 C 26 -60 25 -59 26 -59" style="fill: none; stroke-linecap: round; stroke-linejoin: round; stroke-width: 0.3px; stroke: #727272;"/>
<line style="fill: none; stroke-linecap: round; stroke-linejoin: round; stroke-width: 0.3px; stroke: #727272;" x1="23" y1="-56" x2="25" y2="-58"/>
<line style="fill: none; stroke-linecap: round; stroke-linejoin: round; stroke-width: 0.3px; stroke: #727272;" x1="23" y1="-58" x2="25" y2="-56"/>
<line style="fill: none; stroke-linecap: round; stroke-linejoin: round; stroke-width: 0.3px; stroke: #727272;" x1="28" y1="-58" x2="29" y2="-56"/>
<line style="fill: none; stroke-linecap: round; stroke-linejoin: round; stroke-width: 0.3px; stroke: #727272;" x1="30" y1="-58" x2="28" y2="-54"/>
<path d="M 33 -58 L 34 -58 L 33 -56 L 34 -56" style="fill: none; stroke-linecap: round; stroke-linejoin: round; stroke-width: 0.3px; stroke: #727272;"/>
<path d="M 39 -58 C 38 -58 37 -56 39 -56" style="fill: none; stroke-linecap: round; stroke-linejoin: round; stroke-width: 0.3px; stroke: #727272;"/>
<path d="M 41 -60 C 41 -60 40 -56 42 -56" style="fill: none; stroke-linecap: round; stroke-linejoin: round; stroke-width: 0.3px; stroke: #727272;"/>
<line style="stroke-width: 0.3px; stroke-linecap: round; stroke: #727272;" x1="25" y1="-57" x2="27" y2="-57"/>
<line style="fill: none; stroke-width: 0.3px; stroke-linecap: round; stroke: #727272;" x1="26" y1="-58" x2="26" y2="-56"/>
<path d="M 29 -61 C 29 -61 31 -61 30 -60 C 30 -60 29 -59 30 -59" style="fill: none; stroke-linecap: round; stroke-linejoin: round; stroke-width: 0.3px; stroke: #727272;"/>
<path d="M 34 -61 C 34 -61 36 -61 35 -60 C 35 -60 34 -59 35 -59" style="fill: none; stroke-linecap: round; stroke-linejoin: round; stroke-width: 0.3px; stroke: #727272;"/>
<path d="M 38 -61 C 38 -61 40 -61 39 -60 C 39 -60 38 -59 39 -59" style="fill: none; stroke-linecap: round; stroke-linejoin: round; stroke-width: 0.3px; stroke: #727272;"/>
<path d="M 42 -61 C 42 -61 44 -61 43 -60 C 43 -60 42 -59 43 -59" style="fill: none; stroke-linecap: round; stroke-linejoin: round; stroke-width: 0.3px; stroke: #727272;"/>
<line style="stroke-width: 0.3px; stroke-linecap: round; stroke: #727272;" x1="40" y1="-58" x2="42" y2="-58"/>
<line style="stroke-width: 0.3px; stroke-linecap: round; stroke: #727272;" x1="30" y1="-57" x2="32" y2="-57"/>
<line style="fill: none; stroke-width: 0.3px; stroke-linecap: round; stroke: #727272;" x1="31" y1="-58" x2="31" y2="-56"/>
<line style="stroke-width: 0.3px; stroke-linecap: round; stroke: #727272;" x1="35" y1="-57" x2="37" y2="-57"/>
<polygon style="fill: url(#gradient-0);" points="18 -52 82 -52 50 -83"/>
<polygon style="fill: #624D3B;" points="45 -79 55 -79 50 -85"/>
<polygon style="fill: #3D3025;" points="37 -49 38 -47 44 -47 45 -50"/>
<polygon style="fill: #A6A6A6;" points="70 -40 70 -65 72 -63 74 -50 73 -37"/>
<polygon style="fill: #D1D1D1;" points="70 -65 83 -65 85 -63 72 -63"/>
<polygon style="fill: #B9B9B9;" points="73 -37 87 -37 87 -50 74 -50"/>
<polygon style="fill: #C6C6C6;" points="72 -63 85 -63 87 -50 74 -50"/>
<polygon style="fill: #3D3025;" points="74 -61 84 -61 85 -54 75 -54" id="Computer"/>
<polygon style="fill: #D8D8D8;" points="39 -49 41 -49 41 -50 39 -50"/>
<polygon style="fill: #2B221A;" points="8 -35 8 -79 11 -78 11 -37" id="ToInfR"/>
<g transform="matrix(0.398488, 0, 0, 0.398488, 10.721924, -248.960022)" style="">
<polygon style="fill: #C99E93;" points="-1 300 0 306 2 307 2 303 4 303 1 298"/>
<polygon style="fill: #C99E93;" points="31 298 30 304 27 306 28 301 26 301 28 298"/>
<ellipse style="fill: rgba(0, 0, 0, 0.2);" cx="-14" cy="334" rx="18" ry="3" transform="matrix(-1, 0, 0, 1, 0, 0)"/>
<polygon style="fill: #05070E;" points="8 328 4 329 -1 334 1 335 5 335 9 332"/>
<polygon style="fill: #05070E;" points="19 328 23 329 28 334 26 335 22 335 18 332"/>
<polygon style="fill: #35A5CA;" points="11 264 21 265 29 269 33 285 31 298 28 298 28 286 25 276 24 293 26 313 25 330 18 329 18 313 15 300 11 313 10 329 2 330 3 313 6 293 5 277 3 286 2 299 -1 300 -2 285 1 268"/>
<polygon style="fill: #C99E93;" points="14 249 24 247 26 255 23 261 19 261 20 266 16 269 11 266 12 259"/>
<polygon style="fill: #C13549;" points="26 247 17 245 12 247 12 259 14 257 14 252 16 251 16 254 18 253 17 250"/>
</g>
<g transform="matrix(-0.398488, 0, 0, 0.398488, 191.278076, -250.960022)" style="">
<polygon style="fill: #C99E93;" points="-1 300 0 306 2 307 2 303 4 303 1 298"/>
<polygon style="fill: #C99E93;" points="31 298 30 304 27 306 28 301 26 301 28 298"/>
<ellipse style="fill: rgba(0, 0, 0, 0.2);" cx="-14" cy="334" rx="18" ry="3" transform="matrix(-1, 0, 0, 1, 0, 0)"/>
<polygon style="fill: #05070E;" points="8 328 4 329 -1 334 1 335 5 335 9 332"/>
<polygon style="fill: #05070E;" points="19 328 23 329 28 334 26 335 22 335 18 332"/>
<polygon style="fill: #35A5CA;" points="11 264 21 265 29 269 33 285 31 298 28 298 28 286 25 276 24 293 26 313 25 330 18 329 18 313 15 300 11 313 10 329 2 330 3 313 6 293 5 277 3 286 2 299 -1 300 -2 285 1 268"/>
<polygon style="fill: #C99E93;" points="14 249 24 247 26 255 23 261 19 261 20 266 16 269 11 266 12 259"/>
<polygon style="fill: #C13549;" points="26 247 17 245 12 247 12 259 14 257 14 252 16 251 16 254 18 253 17 250"/>
</g>
<g transform="matrix(0.433975, 0, 0, 0.433975, 15.684723, -261.87027)" style="">
<ellipse style="fill: rgba(0, 0, 0, 0.2);" cx="269" cy="334" rx="18" ry="3"/>
<polygon style="fill: #2B0C10;" points="274 328 278 329 283 334 281 335 277 334 273 332"/>
<polygon style="fill: #2B0C10;" points="265 328 261 329 256 334 258 335 262 334 266 332"/>
<path d="M 262 293 L 278 293 L 279 314 L 278 329 L 273 329 L 272 314 L 270 298 L 267 314 L 266 329 L 261 329 L 260 313 L 262 293 Z" style="fill: #5A5A5A;"/>
<polygon style="fill: #C99E93;" points="286 299 284 305 282 306 283 302 281 302 284 298"/>
<polygon style="fill: #C99E93;" points="254 300 255 305 257 307 257 302 259 302 256 299"/>
<path d="M 268 268 L 273 268 L 282 272 L 285 284 L 286 299 L 283 298 L 281 285 L 279 278 L 278 290 L 281 312 L 271 313 L 270 309 L 268 313 L 258 310 L 262 290 L 261 278 L 259 285 L 257 299 L 254 300 L 255 284 L 259 272 L 268 268 Z" style="fill: #E6E4EC;"/>
<polygon style="fill: #C99E93;" points="272 252 265 252 264 258 266 264 267 264 268 269 271 270 273 269 274 262"/>
<polygon style="fill: #836A63;" points="265 252 271 250 278 256 276 261 277 266 274 266"/>
</g>
<ellipse style="fill: #D8D8D8;" cx="85" cy="397" rx="21" ry="6"/>
<rect x="64" y="391" width="42" height="6" style="fill: #D8D8D8;"/>
<ellipse style="fill: #F6F6F6;" cx="85" cy="391" rx="21" ry="6"/>
<ellipse style="fill: #D8D8D8;" cx="85" cy="437" rx="21" ry="6" transform="matrix(0.5, 0.866025, -0.866025, 0.5, 418.354998, 143.387859)"/>
<rect x="64" y="431" width="42" height="6" style="fill: #D8D8D8;" transform="matrix(0.5, 0.866025, -0.866025, 0.5, 418.355011, 143.387848)"/>
<ellipse style="fill: #F6F6F6;" cx="85" cy="431" rx="21" ry="6" transform="matrix(0.5, 0.866025, -0.866025, 0.5, 418.354998, 143.387859)"/>
<g transform="matrix(-0.393853, 0, 0, 0.393853, 348.608551, -248.460373)" style="">
<ellipse style="fill: rgba(0, 0, 0, 0.2);" cx="209" cy="334" rx="18" ry="3"/>
<polygon style="fill: #2B0C10;" points="214 328 218 329 223 334 221 335 217 334 213 332"/>
<polygon style="fill: #2B0C10;" points="204 328 200 329 195 334 197 335 201 334 205 332"/>
<path d="M 201 293 L 219 293 L 221 313 L 219 330 L 213 329 L 213 313 L 210 298 L 206 313 L 205 329 L 199 329 L 198 313 L 201 293 Z" style="fill: #5A5A5A;"/>
<polygon style="fill: #C99E93;" points="226 299 224 305 222 306 223 302 221 302 224 298"/>
<polygon style="fill: #C99E93;" points="194 300 195 305 197 307 197 302 199 302 197 299"/>
<path d="M 206 265 L 215 265 L 224 269 L 228 284 L 226 299 L 223 298 L 223 285 L 220 277 L 219 293 L 221 310 L 211 311 L 209 307 L 208 311 L 198 309 L 201 293 L 200 277 L 198 285 L 197 299 L 194 300 L 193 284 L 196 268 L 206 265 Z" style="fill: #E6E4EC;"/>
<polygon style="fill: #C99E93;" points="214 250 202 247 200 256 203 261 207 261 206 266 210 268 215 266 214 259"/>
<polygon style="fill: #2B0C10;" points="201 247 209 245 215 248 214 258 213 255 212 251 210 252 209 255 208 263 203 264 201 258 207 255 208 250"/>
</g>
<polygon style="fill: #F5F5F5;" points="147 -78 147 -61 159 -61 159 -78"/>
<polygon style="fill: #E8E8E8;" points="148 -60 147 -61 159 -61 158 -60"/>
<line style="fill: none; stroke: #FF0900;" x1="153" y1="-72" x2="153" y2="-68"/>
<line style="fill: none; stroke: #FF0900;" x1="151" y1="-70" x2="155" y2="-70"/>
<polygon style="fill: #CBCCD0;" points="22 -248 22 -241 30 -241 30 -248" id="Flap"/>
<polygon style="fill: #C1BCC1;" points="124 -39 118 -35 118 -78 123 -77"/>
<polygon style="fill: #535153;" points="118 -37 121 -39 121 -77 118 -78" id="ToCon"/>
<polygon style="fill: #AEA9AE;" points="124 -39 121 -39 121 -77 123 -77"/>
<polygon style="fill: #C1BCC1;" points="197 -38 202 -34 203 -80 198 -78"/>
<polygon style="fill: #535153;" points="199 -38 202 -36 203 -80 200 -78" id="ToLib"/>
<polygon style="fill: #AEA9AE;" points="199 -38 197 -38 198 -78 200 -78"/>
<rect width="100" height="100" style="fill: #E0E1E6;"/>
<polygon style="fill: #9C9D9F;" points="21 38 11 20 89 20 79 38" id="ShutFlap"/>
<polygon style="fill: #CBCCD0;" points="21 38 21 80 79 80 79 38"/>
<polygon style="fill: #BABBBE;" points="27 75 21 80 79 80 73 75"/>
<polygon style="fill: #9C9D9F;" points="27 43 27 75 73 75 73 43"/>
<line style="stroke: #000;" x1="56" y1="70" x2="56" y2="75"/>
<rect x="32" y="48" width="4" height="5" style="fill: none; stroke: #000;"/>
<rect x="40" y="48" width="4" height="5" style="fill: none; stroke: #000;"/>
<rect x="48" y="48" width="4" height="5" style="fill: none; stroke: #000;"/>
<rect x="56" y="48" width="4" height="5" style="fill: none; stroke: #000;"/>
<rect x="64" y="48" width="4" height="5" style="fill: none; stroke: #000;"/>
<polyline style="fill: none; stroke: #000;" points="36 53 36 59 44 59 44 53"/>
<polyline style="fill: none; stroke: #000;" points="60 53 60 59 68 59 68 53"/>
<polyline style="fill: none; stroke: #000;" points="40 59 40 64 52 64 52 53"/>
<polyline style="fill: none; stroke: #000;" points="46 65 46 70 64 70 64 59"/>
<polygon style="fill: #BABBBE;" points="21 38 27 43 73 43 79 38"/>
<polygon style="fill: #E9EAED;" points="11 17 11 20 89 20 88 17"/>
<rect x="25" y="36" width="6" height="3" style="fill: #6E6E6E;"/>
<rect x="69" y="36" width="6" height="3" style="fill: #6E6E6E;"/>
<rect width="100" height="100" style="fill: #A9A9A9;" x="-110"/>
<rect y="40" width="14" height="14" style="stroke-width: 2px; stroke: #959595; fill: #CFCFCF;" rx="3" ry="3" id="Minus" x="-100"/>
<rect x="-82" y="39" width="44" height="16" style="fill: #3B3B3B; stroke: #555555;" rx="3" ry="3"/>
<rect x="-34" y="40" width="14" height="14" style="stroke-width: 2px; fill: #CFCFCF; stroke: #959595;" rx="3" ry="3" id="Plus"/>
<rect x="-34" y="60" width="14" height="14" style="stroke-width: 2px; fill: #76CF59; stroke: #518E3D;" rx="3" ry="3" id="Start"/>
<rect y="60" width="14" height="14" style="stroke-width: 2px; fill: #C13549; stroke: #97293A;" rx="3" ry="3" id="Reset" x="-100"/>
<polygon style="fill: #4F4F4F;" points="310 -60 312 -58 312 -72 310 -74" id=""/>
<polygon style="fill: #FAF4FA;" points="303 -60 310 -60 310 -62 303 -62" id=""/>
<g transform="matrix(-0.398488, 0, 0, 0.398488, 306.278076, -249.960022)" style="">
<polygon style="fill: #C99E93;" points="-1 300 0 306 2 307 2 303 4 303 1 298"/>
<polygon style="fill: #C99E93;" points="31 298 30 304 27 306 28 301 26 301 28 298"/>
<ellipse style="fill: rgba(0, 0, 0, 0.2);" cx="-14" cy="334" rx="18" ry="3" transform="matrix(-1, 0, 0, 1, 0, 0)"/>
<polygon style="fill: #05070E;" points="8 328 4 329 -1 334 1 335 5 335 9 332"/>
<polygon style="fill: #05070E;" points="19 328 23 329 28 334 26 335 22 335 18 332"/>
<polygon style="fill: #35A5CA;" points="11 264 21 265 29 269 33 285 31 298 28 298 28 286 25 276 24 293 26 313 25 330 18 329 18 313 15 300 11 313 10 329 2 330 3 313 6 293 5 277 3 286 2 299 -1 300 -2 285 1 268"/>
<polygon style="fill: #C99E93;" points="14 249 24 247 26 255 23 261 19 261 20 266 16 269 11 266 12 259"/>
<polygon style="fill: #C13549;" points="26 247 17 245 12 247 12 259 14 257 14 252 16 251 16 254 18 253 17 250"/>
</g>
<text style="fill: rgb(255, 255, 255); font-family: monospace; font-size: 11px; text-anchor: end; white-space: pre;" x="-42" y="50">00000</text>
<ellipse style="fill: #D8D8D8;" cx="-83" cy="135" rx="12" ry="14"/>
<ellipse style="fill: #E9E9E9;" cx="-72" cy="136" rx="2" ry="4"/>
<path d="M -72 135 C -72 141 -76 145 -84 145 C -92 145 -96 141 -96 135 C -96 129 -90 127 -84 127 C -76 127 -72 129 -72 135 Z" style="fill: #E9E9E9;"/>
<path d="M -74 135 C -74 142 -78 144 -84 144 C -90 144 -94 142 -94 135 C -94 128 -89 128 -84 128 C -78 128 -74 128 -74 135 Z" style="fill: #CEB56B;"/>
<ellipse style="fill: #D88C5D;" cx="-83" cy="412" rx="11" ry="26"/>
<rect x="-84" y="386" width="22" height="52" style="fill: #D88C5D;"/>
<ellipse style="fill: #B4754D;" cx="-62" cy="412" rx="11" ry="26"/>
<polyline style="fill: #D8D8D8; stroke: #000000;" points="-112 386"/>
<polygon style="fill: #B4754D;" points="-83 438 -103 454 -78 457 -62 438"/>
<polygon style="fill: #D8D8D8; stroke: #000000;" points="-113 453"/>
<ellipse style="fill: #915E3E;" cx="-62" cy="412" rx="6" ry="14"/>
<ellipse style="fill: #D8D8D8;" cy="410" rx="34" ry="40" cx="-160"/>
<ellipse style="fill: #E9E9E9;" cx="-129" cy="413" rx="6" ry="11"/>
<path d="M -129 410 C -129 427 -140 438 -163 438 C -186 438 -197 427 -197 410 C -197 393 -180 387 -163 387 C -140 387 -129 393 -129 410 Z" style="fill: #E9E9E9;"/>
<path d="M -134 410 C -134 430 -146 436 -163 436 C -180 436 -191 430 -191 410 C -191 390 -177 390 -163 390 C -146 390 -134 390 -134 410 Z" style="fill: #CEB56B;"/>
<polygon style="fill: #D8A572;" points="316 393 309 381 322 387"/>
<polygon style="fill: #656565;" points="316 393 363 440 371 434 322 387"/>
<polygon style="fill: #656565;" points="313 388 309 381 316 384"/>
<polyline style="fill: rgb(216, 216, 216); stroke: rgb(0, 0, 0);" points="27 58"/>
<rect x="338" y="-75" width="12" height="9" style="fill: rgb(185, 185, 185);"/>
<rect x="339" y="-74" width="10" height="7" style="fill: rgb(61, 48, 37);"/>
<text style="fill: rgb(255, 255, 255); font-family: monospace; font-size: 1px; white-space: pre; text-anchor: middle;" x="344" y="-72">x²+y²+z²+c²t²</text>
<polygon style="fill: rgb(166, 166, 166);" points="338 -66 340 -59 348 -59 350 -66"/>
<path d="M 67 538 C 62 529 59 519 62 517 L 67 514 L 88 551 L 83 554 C 80 555 73 549 67 538 Z" style="fill: #D8D8D8;"/>
<path d="M 88 551 C 85 552 78 546 72 535 C 67 525 64 516 67 514 C 70 513 77 519 83 529 C 89 540 91 549 88 551 Z" style="fill: #F6F6F6;"/>
<path d="M -18 394 L 36 394 L 36 443 C 36 447 24 451 9 451 C -6 451 -18 447 -18 443 Z" style="fill: #FFFFFF;"/>
<ellipse style="fill: #E1E1E1;" cx="9" cy="394" rx="27" ry="8"/>
<path d="M 9 397 C -3 397 -12 394 -12 391 L -12 376 L 30 376 L 30 391 C 30 394 21 397 9 397 Z" style="fill: #FFFFFF;"/>
<ellipse style="fill: #E1E1E1;" cx="9" cy="376" rx="21" ry="6"/>
<path d="M 113 508 C 118 499 121 489 118 487 L 113 484 L 92 521 L 97 524 C 100 525 107 519 113 508 Z" style="fill: #D8D8D8;"/>
<path d="M 92 521 C 95 522 102 516 108 505 C 113 495 116 486 113 484 C 110 483 103 489 97 499 C 91 510 89 519 92 521 Z" style="fill: #F6F6F6;"/>
<rect x="30" y="46" width="4" height="4" style="" id=""/>
<rect x="38" y="46" width="4" height="4" style="" id=""/>
<rect x="46" y="46" width="4" height="4" style="" id=""/>
<rect x="54" y="46" width="4" height="4" style="" id=""/>
<rect x="62" y="46" width="4" height="4" style="" id=""/>
<rect x="34" y="51" width="4" height="4" style="" id="O1"/>
<rect x="42" y="51" width="4" height="4" style="" id="O2"/>
<rect x="50" y="51" width="4" height="4" style="" id="O3"/>
<rect x="58" y="51" width="4" height="4" style="" id="O4"/>
<rect x="66" y="51" width="4" height="4" style="" id="O5"/>
<rect x="38" y="57" width="4" height="4" style="" id="O6"/>
<rect x="62" y="57" width="4" height="4" style="" id="O7"/>
<rect x="44" y="62" width="4" height="4" style="" id="O8"/>
<rect x="54" y="68" width="4" height="4" style="" id="O9"/>
<text style="fill: #000; font-family: monospace; font-size: 3px; text-anchor: end; white-space: pre;" x="33" y="49">x</text>
<text style="fill: #000; font-family: monospace; font-size: 3px; text-anchor: end; white-space: pre;" x="41" y="49">y</text>
<text style="fill: #000; font-family: monospace; font-size: 3px; text-anchor: end; white-space: pre;" x="49" y="49">z</text>
<text style="fill: #000; font-family: monospace; font-size: 3px; text-anchor: end; white-space: pre;" x="57" y="49">c</text>
<text style="fill: #000; font-family: monospace; font-size: 3px; text-anchor: end; white-space: pre;" x="65" y="49">t</text>
</svg>
