<?xml version="1.0" encoding="utf-8"?>
<svg viewBox="0 0 100 100" xmlns="http://www.w3.org/2000/svg" xmlns:bx="https://boxy-svg.com">
<rect width="80" height="58" style="fill: rgb(101, 117, 85);" x="-332" y="6"/>
<circle style="fill: rgb(10, 140, 200);" r="50" cx="-180" cy="-60"/>
<g transform="matrix(1, 0, 0, 1, -230, -110)">
<path d="M 46 17 L 45 18 L 43 19 L 41 21 L 41 22 L 38 23 L 36 26 L 34 30 L 35 33 L 34 35 L 34 39 L 37 40 L 37 42 L 42 46 L 46 44 L 48 45 L 53 43 L 59 47 L 60 52 L 61 56 L 64 58 L 64 62 L 61 66 L 61 69 L 64 71 L 64 75 L 65 79 L 66 82 L 70 83 L 75 79 L 78 74 L 79 73 L 81 69 L 86 64 L 86 58 L 87 51 L 91 47 L 93 38 L 89 40 L 86 36 L 84 35 L 84 32 L 82 31 L 82 29 L 80 28 L 78 24 L 82 28 L 87 34 L 88 38 L 92 35 L 94 31 L 93 30 L 91 28 L 91 26 L 89 28 L 86 23 L 90 26 L 92 25 L 92 27 L 94 28 L 96 31 C 96 31 88 6 59 1 L 52 3 L 57 6 L 54 5 L 51 8 L 49 8 L 46 8 L 49 10 L 49 12 L 45 11 L 43 14 L 43 16 L 45 17 L 48 16 L 50 15 L 51 13 L 52 13 L 52 11 L 55 12 L 56 11 L 58 12 L 59 13 L 62 14 L 66 15 L 67 16 L 68 15 L 70 14 L 69 13 L 69 10 L 70 10 L 73 12 L 72 10 L 74 11 L 74 12 L 77 14 L 77 15 L 73 14 L 71 14 L 70 15 L 71 16 L 73 17 L 74 18 L 76 17 L 77 19 L 77 21 L 74 21 L 69 20 L 67 20 L 67 21 L 64 21 L 62 19 L 60 17 L 54 16 L 51 16 L 48 17 L 46 17 Z" style="fill: rgb(124, 150, 134);"/>
<polygon style="fill: rgb(124, 150, 134);" points="85 74 86 70 87 69 87 66 89 65 91 62 89 69"/>
<path d="M 18 88 L 15 84 L 14 80 L 14 75 L 13 73 L 16 71 L 17 66 L 16 62 L 18 59 L 17 55 L 15 55 L 14 53 L 11 53 L 9 50 L 8 48 L 8 45 L 5 45 L 3 40 L 1 40 C -2 55 2 75 18 88 Z" style="fill: rgb(124, 150, 134);"/>
<polygon style="fill: rgb(124, 150, 134);" points="48 7 50 7 51 7 49 4 48 4 49 6"/>
<polygon style="fill: rgb(124, 150, 134);" points="45 6 47 7 46 5"/>
</g>
<path style="fill: rgb(225, 186, 167);" d="M 65 25"/>
<path style="fill: rgb(216, 216, 216);" d="M 62 21"/>
<path style="fill: rgb(216, 216, 216);" d="M 59 20"/>
<polygon style="fill: rgb(216, 216, 216); stroke: rgb(0, 0, 0);" points="-64 29"/>
<polygon style="fill: rgb(216, 216, 216); stroke: rgb(0, 0, 0);" points="-74 35"/>
<polygon style="fill: rgb(216, 216, 216); stroke: rgb(0, 0, 0);" points="46 25"/>
<polygon style="fill: rgb(216, 216, 216); stroke: rgb(0, 0, 0);" points="35 24"/>
<polygon style="fill: rgb(201, 158, 147);" points="212 129 204 127 203 133 204 141 210 141 209 146 218 146 217 139"/>
<polygon style="fill: rgb(53, 165, 202);" points="218 143 208 144 200 148 195 158 183 162 185 167 199 163 204 154 205 171 203 192 211 210 218 210 212 191 214 177 222 192 233 208 239 204 229 187 223 171 224 153 234 157 243 166 248 163 238 152 225 145"/>
<polygon style="fill: rgb(193, 53, 73);" points="203 127 212 125 217 127 217 139 211 136 211 132 209 130 208 135 206 134 206 130"/>
<polygon style="fill: rgb(201, 158, 147);" points="295 129 285 127 283 135 286 141 290 141 289 146 298 146 297 139"/>
<polygon style="fill: rgb(53, 165, 202);" points="283 145 270 153 262 169 268 172 274 159 284 154 285 171 283 192 291 210 298 210 292 191 294 177 302 192 313 208 319 204 309 187 305 171 305 154 316 157 324 167 329 162 319 150 302 144"/>
<polygon style="fill: rgb(43, 12, 16);" points="283 127 292 125 297 127 297 139 295 137 295 132 293 131 293 134 291 133 292 130"/>
<polygon style="fill: rgb(201, 158, 147);" points="375 129 365 127 363 136 366 141 370 141 369 146 378 146 377 139"/>
<polygon style="fill: rgb(216, 216, 216);" points="364 127 373 125 378 128 377 139 375 136 375 132 373 131 372 135 371 141 366 142 364 138 370 135 371 130"/>
<polygon style="fill: rgb(53, 165, 202);" points="363 145 350 153 342 169 348 172 354 159 364 154 365 171 363 192 371 210 378 210 372 191 374 177 382 192 393 208 399 204 389 187 385 171 385 154 396 157 404 167 409 162 399 150 382 144"/>
<polygon style="fill: rgb(201, 158, 147);" points="455 129 445 127 443 136 446 141 450 141 449 146 458 146 457 139"/>
<polygon style="fill: rgb(149, 57, 32);" points="444 127 453 125 458 128 457 139 455 136 455 132 453 131 452 135 451 141 446 142 444 138 450 135 451 130"/>
<polygon style="fill: rgb(53, 165, 202);" points="443 145 430 153 422 169 428 172 434 159 444 154 445 171 443 192 451 210 458 210 452 191 454 177 462 192 473 208 479 204 469 187 465 171 465 154 476 157 484 167 489 162 479 150 462 144"/>
<polygon style="fill: rgb(201, 158, 147);" points="-27 301 -28 307 -30 308 -30 304 -32 304 -29 299"/>
<polygon style="fill: rgb(201, 158, 147);" points="-59 299 -59 305 -57 307 -57 302 -55 302 -57 298"/>
<ellipse style="fill: rgba(0, 0, 0, 0.2);" cx="-42" cy="335" rx="18" ry="3"/>
<polygon style="fill: rgb(43, 12, 16);" points="-36 329 -32 330 -27 335 -29 336 -33 336 -37 333"/>
<polygon style="fill: rgb(43, 12, 16);" points="-47 329 -51 330 -56 335 -54 336 -50 336 -46 333"/>
<polygon style="fill: rgb(53, 165, 202);" points="-39 265 -49 266 -57 269 -61 285 -59 299 -56 299 -56 286 -53 277 -52 294 -54 314 -53 331 -46 330 -46 314 -43 299 -39 314 -38 330 -30 331 -31 314 -34 294 -33 276 -31 286 -30 300 -27 301 -26 285 -29 269"/>
<polygon style="fill: rgb(201, 158, 147);" points="-42 250 -52 248 -54 256 -51 262 -47 262 -48 267 -44 270 -39 267 -40 260"/>
<polygon style="fill: rgb(193, 53, 73);" points="-54 248 -45 246 -40 248 -40 260 -42 258 -42 253 -44 252 -44 255 -46 254 -45 251"/>
<polygon style="fill: rgb(201, 158, 147);" points="156 178 154 184 152 185 153 181 151 181 154 177"/>
<polygon style="fill: rgb(201, 158, 147);" points="124 179 125 185 127 187 127 182 129 182 127 179"/>
<ellipse style="fill: rgba(0, 0, 0, 0.2);" cx="139" cy="214" rx="18" ry="3"/>
<polygon style="fill: rgb(43, 12, 16);" points="144 208 148 209 153 214 151 215 147 214 143 212"/>
<polygon style="fill: rgb(43, 12, 16);" points="134 208 130 209 125 214 127 215 131 214 135 212"/>
<polygon style="fill: rgb(85, 84, 87);" points="136 144 146 145 154 149 158 164 156 178 153 178 153 165 150 156 149 173 151 193 150 210 143 209 143 193 140 178 136 193 135 209 127 210 128 193 131 173 130 155 128 165 127 179 124 180 123 164 126 148"/>
<polygon style="fill: rgb(201, 158, 147);" points="142 129 132 127 130 136 133 141 137 141 136 146 140 154 145 146 144 139"/>
<polygon style="fill: rgb(216, 216, 216);" points="131 127 140 125 145 128 144 139 142 136 142 132 140 131 139 135 138 141 133 142 131 138 137 135 138 130"/>
<ellipse style="fill: rgba(0, 0, 0, 0.2);" cx="139" cy="334" rx="18" ry="3"/>
<polygon style="fill: rgb(43, 12, 16);" points="144 328 148 329 153 334 151 335 148 335 143 332"/>
<polygon style="fill: rgb(43, 12, 16);" points="134 328 130 329 125 334 127 335 130 335 135 332"/>
<path d="M 131 293 L 140 280 L 149 293 L 151 313 L 149 330 L 143 329 L 143 313 L 140 298 L 136 313 L 135 329 L 129 330 L 128 313 L 131 293 Z" style="fill: rgb(19, 27, 55);"/>
<polygon style="fill: rgb(201, 158, 147);" points="156 299 154 305 152 306 153 302 151 302 154 298"/>
<polygon style="fill: rgb(201, 158, 147);" points="124 299 125 305 127 307 127 302 129 302 127 299"/>
<path d="M 136 265 L 145 265 L 154 270 L 158 285 L 156 299 L 153 298 L 153 286 L 150 278 L 150 293 L 151 308 L 144 307 L 140 294 L 136 307 L 128 308 L 130 292 L 130 278 L 128 286 L 127 299 L 124 300 L 123 285 L 126 269 L 136 265 Z" style="fill: rgb(85, 84, 87);"/>
<polygon style="fill: rgb(19, 27, 55);" points="137 263 133 265 136 269 134 274 140 291 146 274 145 269 148 265 144 263"/>
<polygon style="fill: rgb(201, 158, 147);" points="142 249 133 248 131 256 133 261 137 261 136 266 140 274 145 266 144 259"/>
<polygon style="fill: rgb(19, 27, 55);" points="131 248 139 245 145 248 144 259 142 256 142 252 140 251 139 255 138 261 133 262 131 257 137 255 138 250"/>
<ellipse style="fill: rgba(0, 0, 0, 0.2);" cx="209" cy="334" rx="18" ry="3"/>
<polygon style="fill: rgb(43, 12, 16);" points="214 328 218 329 223 334 221 335 217 334 213 332"/>
<polygon style="fill: rgb(43, 12, 16);" points="204 328 200 329 195 334 197 335 201 334 205 332"/>
<path d="M 201 293 L 219 293 L 221 313 L 219 330 L 213 329 L 213 313 L 210 298 L 206 313 L 205 329 L 199 329 L 198 313 L 201 293 Z" style="fill: rgb(90, 90, 90);"/>
<polygon style="fill: rgb(201, 158, 147);" points="226 299 224 305 222 306 223 302 221 302 224 298"/>
<polygon style="fill: rgb(201, 158, 147);" points="194 300 195 305 197 307 197 302 199 302 197 299"/>
<path d="M 206 265 L 215 265 L 224 269 L 228 284 L 226 299 L 223 298 L 223 285 L 220 277 L 219 293 L 221 310 L 211 311 L 209 307 L 208 311 L 198 309 L 201 293 L 200 277 L 198 285 L 197 299 L 194 300 L 193 284 L 196 268 L 206 265 Z" style="fill: rgb(230, 228, 236);"/>
<polygon style="fill: rgb(201, 158, 147);" points="214 250 202 247 200 256 203 261 207 261 206 266 210 268 215 266 214 259"/>
<polygon style="fill: rgb(131, 106, 99);" points="201 247 209 245 215 248 214 258 213 255 212 251 210 252 209 255 208 263 203 264 201 258 207 255 208 250"/>
<rect y="362" width="100" height="100" style="fill: rgb(100, 149, 168);"/>
<ellipse style="fill: rgba(0, 0, 0, 0.2);" cy="455" rx="18" ry="3" cx="50"/>
<g transform="matrix(1, 0, 0, 1, -158.329224, 241.218964)">
<polygon style="fill: rgb(43, 12, 16);" points="214 208 218 209 223 214 221 215 217 214 213 212"/>
<polygon style="fill: rgb(43, 12, 16);" points="204 208 200 209 195 214 197 215 201 214 205 212"/>
<path d="M 201 173 L 210 160 L 219 173 L 221 193 L 219 210 L 213 209 L 213 193 L 210 178 L 206 193 L 205 209 L 199 209 L 198 193 L 201 173 Z" style="fill: rgb(90, 90, 90);"/>
<polygon style="fill: rgb(201, 158, 147);" points="226 178 224 184 222 185 223 181 221 181 224 177"/>
<polygon style="fill: rgb(201, 158, 147);" points="194 179 195 185 197 187 197 182 199 182 197 179"/>
<path d="M 206 145 L 215 145 L 224 149 L 228 164 L 226 178 L 223 178 L 223 165 L 220 156 L 219 173 L 221 190 L 211 191 L 209 185 L 208 191 L 198 189 L 201 173 L 200 155 L 198 165 L 197 179 L 194 180 L 193 164 L 196 148 L 206 145 Z" style="fill: rgb(230, 228, 236);"/>
<polygon style="fill: rgb(201, 158, 147);" points="212 129 202 127 200 136 203 141 207 141 206 146 210 148 215 146 214 139"/>
<polygon style="fill: rgb(90, 90, 90);" points="201 127 210 125 215 128 214 139 212 136 212 132 210 131 209 135 208 141 203 142 201 138 207 135 208 130"/>
</g>
<ellipse style="fill: rgba(0, 0, 0, 0.2);" cx="69" cy="334" rx="18" ry="3"/>
<polygon style="fill: rgb(5, 7, 14);" points="74 328 78 329 83 334 81 335 78 335 73 332"/>
<polygon style="fill: rgb(5, 7, 14);" points="64 328 60 329 55 334 57 335 60 335 65 332"/>
<path d="M 61 293 L 70 280 L 79 293 L 81 313 L 79 330 L 73 329 L 73 313 L 70 298 L 66 313 L 65 329 L 59 330 L 58 313 L 61 293 Z" style="fill: rgb(64, 64, 64);"/>
<polygon style="fill: rgb(182, 143, 133);" points="86 299 84 305 82 306 83 302 81 302 84 298"/>
<polygon style="fill: rgb(182, 143, 133);" points="54 300 55 305 57 307 57 302 59 302 56 299"/>
<path d="M 66 265 L 75 265 L 84 270 L 88 285 L 86 299 L 83 298 L 83 286 L 80 278 L 80 293 L 81 308 L 71 309 L 69 304 L 68 309 L 58 308 L 60 292 L 60 278 L 58 286 L 57 299 L 54 300 L 53 285 L 56 269 L 66 265 Z" style="fill: rgb(96, 96, 96);"/>
<polygon style="fill: rgb(64, 64, 64);" points="67 263 63 265 66 269 64 274 70 292 77 274 75 269 78 265 74 263"/>
<polygon style="fill: rgb(182, 143, 133);" points="72 249 61 248 61 256 63 261 67 261 66 266 70 267 75 266 74 259"/>
<polygon style="fill: rgb(64, 64, 64);" points="60 248 65 244 74 247 74 259 72 256 72 252 70 252 69 255 68 261 63 263 62 258 67 255 68 250"/>
<polygon style="fill: rgb(167, 167, 167);" points="69 267 70 270 68 274 70 281 73 274 71 270 72 267"/>
<polygon style="fill: rgb(201, 158, 147);" points="-1 300 0 306 2 307 2 303 4 303 1 298"/>
<polygon style="fill: rgb(201, 158, 147);" points="31 298 30 304 27 306 28 301 26 301 28 298"/>
<ellipse style="fill: rgba(0, 0, 0, 0.2);" cx="-14" cy="334" rx="18" ry="3" transform="matrix(-1, 0, 0, 1, 0, 0)"/>
<polygon style="fill: rgb(5, 7, 14);" points="8 328 4 329 -1 334 1 335 5 335 9 332"/>
<polygon style="fill: rgb(5, 7, 14);" points="19 328 23 329 28 334 26 335 22 335 18 332"/>
<polygon style="fill: rgb(53, 165, 202);" points="11 264 21 265 29 269 33 285 31 298 28 298 28 286 25 276 24 293 26 313 25 330 18 329 18 313 15 300 11 313 10 329 2 330 3 313 6 293 5 277 3 286 2 299 -1 300 -2 285 1 268"/>
<polygon style="fill: rgb(201, 158, 147);" points="14 249 24 247 26 255 23 261 19 261 20 266 16 269 11 266 12 259"/>
<polygon style="fill: rgb(193, 53, 73);" points="26 247 17 245 12 247 12 259 14 257 14 252 16 251 16 254 18 253 17 250"/>
<polygon style="fill: rgb(216, 216, 216); stroke: rgb(0, 0, 0);" points="185 155"/>
<polygon style="fill: rgb(190, 190, 190);" points="40 179 61 182 65 172 64 143 61 142"/>
<ellipse style="fill: rgb(216, 216, 216);" cx="51" cy="135" rx="12" ry="14"/>
<path d="M 60 142 L 59 147 L 74 156 L 79 170 L 73 172 L 69 163 L 60 159 L 61 173 L 57 181 L 58 191 L 69 201 L 66 213 L 61 213 L 61 204 L 51 197 L 46 186 L 42 196 L 50 208 L 48 214 L 45 219 L 40 218 L 41 210 L 33 196 L 36 177 L 36 170 L 39 160 L 32 163 L 25 171 L 21 168 L 27 155 L 39 148 L 42 147 L 41 143 L 60 142 Z" style="fill: rgb(216, 216, 216);"/>
<path d="M 100 -60 C 100 -48 92 -48 86 -48 C 82 -48 79 -50 76 -53 C 72 -48 52 -46 52 -46 L 52 -74 C 52 -74 72 -72 76 -67 C 79 -70 82 -72 86 -72 C 92 -72 100 -72 100 -60 Z" style="fill: rgb(75, 87, 63);"/>
<path d="M 48 -73 L 52 -74 L 52 -46 L 48 -47 L 48 -73 Z" style="fill: rgb(224, 225, 230);"/>
<path d="M 48 -73 L 42 -73 L 42 -47 L 48 -47 L 48 -73 Z" style="fill: rgb(75, 87, 63);"/>
<path d="M 42 -73 L 31 -73 L 31 -47 L 42 -47 L 42 -73 Z" style="fill: rgb(224, 225, 230);"/>
<path d="M 31 -73 L 26 -76 L 26 -44 L 31 -47 L 31 -73 Z" style="fill: rgb(75, 87, 63);"/>
<ellipse style="fill: rgb(216, 216, 216);" cx="89" cy="-65" rx="3" ry="2"/>
<rect x="31" width="21" height="7" style="fill: rgb(78, 76, 78);" y="-82"/>
<rect x="31" width="21" height="10" style="fill: rgb(78, 76, 78);" y="-93"/>
<rect x="31" width="21" height="14" style="fill: rgb(78, 76, 78);" y="-108"/>
<rect x="31" y="-45" width="21" height="7" style="fill: rgb(78, 76, 78);"/>
<rect x="31" width="21" height="10" style="fill: rgb(78, 76, 78);" y="-37"/>
<rect x="31" width="21" height="14" style="fill: rgb(78, 76, 78);" y="-26"/>
<path d="M 15 -60 C 15 -53 0 -52 0 -52 L 0 -68 C 0 -68 15 -67 15 -60 Z" style="fill: rgb(78, 76, 78);"/>
<path d="M 15 -76 L 13 -67 L 13 -53 L 15 -44 L 15 -76 Z" style="fill: rgb(75, 87, 63);"/>
<path d="M 100 -60 C 100 -55 99 -54 99 -54 C 98 -54 98 -66 99 -66 C 99 -66 100 -65 100 -60 Z" style="fill: rgb(224, 225, 230);"/>
<path d="M 26 -76 L 15 -79 L 15 -41 L 26 -44 L 26 -76 Z" style="fill: rgb(224, 225, 230);"/>
<polygon style="fill: rgb(190, 190, 190);" points="25 171 24 176 22 175 21 179 18 178 18 172 21 168"/>
<polygon style="fill: rgb(190, 190, 190);" points="73 172 73 177 75 177 75 181 78 181 80 174 79 170"/>
<path d="M -124 144 L -124 147 L -109 156 L -104 170 L -110 172 L -114 163 L -123 159 L -122 173 L -126 181 L -126 191 L -114 201 L -117 213 L -122 213 L -122 204 L -132 197 L -137 186 L -142 196 L -133 208 L -135 214 L -138 219 L -143 218 L -142 210 L -150 196 L -147 177 L -147 170 L -144 160 L -151 163 L -158 171 L -162 168 L -156 155 L -144 148 L -141 147 L -141 144 L -124 144 Z" style="fill: rgb(216, 216, 216);"/>
<ellipse style="fill: rgb(233, 233, 233);" cx="63" cy="136" rx="1" ry="4"/>
<polygon style="fill: rgb(190, 190, 190);" points="-60 179 -39 182 -35 172 -34 140 -54 140"/>
<path d="M -40 135 C -40 142 -44 144 -50 144 C -56 144 -60 142 -60 135 C -60 128 -55 128 -50 128 C -44 128 -40 128 -40 135 Z" style="fill: rgb(122, 122, 122);"/>
<polygon style="fill: rgb(201, 158, 147);" points="-45 131 -55 129 -57 137 -54 143 -50 143 -51 148 -47 151 -42 148 -43 141"/>
<polygon style="fill: rgb(43, 12, 16);" points="-57 129 -48 127 -43 129 -43 141 -45 139 -45 134 -47 133 -47 136 -49 135 -48 132"/>
<path d="M -41 144 L -41 147 L -26 156 L -21 170 L -27 172 L -31 163 L -40 159 L -39 173 L -43 181 L -43 191 L -31 201 L -34 213 L -39 213 L -39 204 L -49 197 L -54 186 L -59 196 L -50 208 L -52 214 L -55 219 L -60 218 L -59 210 L -67 196 L -64 177 L -64 170 L -61 160 L -68 163 L -75 171 L -79 168 L -73 155 L -61 148 L -58 147 L -58 144 L -41 144 Z" style="fill: rgb(216, 216, 216);"/>
<path d="M -37 135 C -37 143 -42 149 -49 149 C -56 149 -61 143 -61 135 C -61 127 -56 121 -49 121 C -42 121 -37 127 -37 135 Z M -50 128 C -55 128 -60 128 -60 135 C -60 142 -56 144 -50 144 C -44 144 -40 142 -40 135 C -40 128 -44 128 -50 128 Z" style="fill: rgb(216, 216, 216);"/>
<polygon style="fill: rgb(190, 190, 190);" points="-75 171 -76 176 -78 175 -79 179 -82 178 -82 172 -79 168"/>
<polygon style="fill: rgb(190, 190, 190);" points="-27 172 -27 177 -25 177 -25 181 -22 181 -20 174 -21 170"/>
<path d="M 62 135 C 62 141 58 145 50 145 C 42 145 38 141 38 135 C 38 129 44 127 50 127 C 58 127 62 129 62 135 Z" style="fill: rgb(233, 233, 233);"/>
<path d="M 60 135 C 60 142 56 144 50 144 C 44 144 40 142 40 135 C 40 128 45 128 50 128 C 56 128 60 128 60 135 Z" style="fill: rgb(206, 181, 107);"/>
<ellipse style="fill: rgba(0, 0, 0, 0.2);" cx="269" cy="334" rx="18" ry="3"/>
<polygon style="fill: rgb(43, 12, 16);" points="274 328 278 329 283 334 281 335 277 334 273 332"/>
<polygon style="fill: rgb(43, 12, 16);" points="265 328 261 329 256 334 258 335 262 334 266 332"/>
<path d="M 262 293 L 278 293 L 279 314 L 278 329 L 273 329 L 272 314 L 270 298 L 267 314 L 266 329 L 261 329 L 260 313 L 262 293 Z" style="fill: rgb(90, 90, 90);"/>
<polygon style="fill: rgb(201, 158, 147);" points="286 299 284 305 282 306 283 302 281 302 284 298"/>
<polygon style="fill: rgb(201, 158, 147);" points="254 300 255 305 257 307 257 302 259 302 256 299"/>
<path d="M 268 268 L 273 268 L 282 272 L 285 284 L 286 299 L 283 298 L 281 285 L 279 278 L 278 290 L 281 312 L 271 313 L 270 309 L 268 313 L 258 310 L 262 290 L 261 278 L 259 285 L 257 299 L 254 300 L 255 284 L 259 272 L 268 268 Z" style="fill: rgb(230, 228, 236);"/>
<polygon style="fill: rgb(201, 158, 147);" points="272 252 265 252 263 259 266 264 267 264 268 269 271 270 273 269 274 262"/>
<polygon style="fill: rgb(131, 106, 99);" points="265 252 271 250 277 254 276 261 277 266 274 266"/>
<ellipse style="fill: rgba(0, 0, 0, 0.2);" cx="329" cy="334" rx="18" ry="3"/>
<polygon style="fill: rgb(43, 12, 16);" points="334 328 338 329 343 334 341 335 337 334 333 332"/>
<polygon style="fill: rgb(43, 12, 16);" points="324 328 320 329 315 334 317 335 321 334 325 332"/>
<path d="M 322 296 L 338 296 L 341 313 L 339 330 L 334 329 L 333 314 L 330 298 L 326 314 L 325 329 L 320 329 L 318 313 L 322 296 Z" style="fill: rgb(90, 90, 90);"/>
<polygon style="fill: rgb(201, 158, 147);" points="346 299 344 305 342 306 343 302 341 302 344 298"/>
<polygon style="fill: rgb(201, 158, 147);" points="314 300 315 305 317 307 317 302 319 302 317 299"/>
<path d="M 326 264 L 335 264 L 343 269 L 348 284 L 346 299 L 343 298 L 343 285 L 340 278 L 339 293 L 341 310 L 331 311 L 329 309 L 328 311 L 319 308 L 321 293 L 321 277 L 318 285 L 317 299 L 314 300 L 313 284 L 317 269 L 326 264 Z" style="fill: rgb(230, 228, 236);"/>
<polygon style="fill: rgb(201, 158, 147);" points="334 249 323 247 321 254 324 261 327 260 326 265 331 267 334 265 334 258"/>
<polygon style="fill: rgb(131, 106, 99);" points="323 247 330 250 329 254 331 254 332 250 333 251 334 257 336 248 328 244"/>
<polygon style="fill: rgb(216, 140, 93);" points="233 395 236 455 261 458 269 396"/>
<polygon style="fill: rgb(90, 90, 90);" points="246 386 247 369 259 369 258 386"/>
<polygon style="fill: rgb(216, 216, 216);" points="233 395 269 396 258 386 245 386"/>
<polygon style="fill: rgb(216, 165, 114);" points="313 372 317 359 321 372"/>
<polygon style="fill: rgb(101, 101, 101);" points="313 372 313 459 321 459 321 372"/>
<polygon style="fill: rgb(101, 101, 101);" points="315 366 317 359 319 366"/>
<rect y="-221" width="100" height="100" style="fill: rgb(61, 69, 50);" x="5"/>
<path d="M 52 -185 C 52 -185 72 -183 76 -178 C 79 -181 82 -183 86 -183 C 92 -183 100 -183 100 -171 C 100 -159 92 -159 86 -159 C 82 -159 79 -161 76 -164 C 72 -159 52 -157 52 -157 L 48 -158 L 31 -158 L 26 -155 L 15 -152 L 15 -155 L 13 -164 L 13 -178 L 15 -187 L 15 -190 L 26 -187 L 31 -184 L 48 -184 Z" style="fill: rgb(224, 225, 230);"/>
<ellipse style="fill: rgb(52, 143, 247);" cx="89" cy="-176" rx="3" ry="2"/>
<polygon style="fill: rgb(216, 140, 93);" points="161 392 164 452 189 455 197 393" transform="matrix(0.807078, -0.590445, 0.590445, 0.807078, -215.520343, 187.392082)"/>
<polygon style="fill: rgb(90, 90, 90);" points="144 392 145 375 157 375 156 392" transform="matrix(0.807078, -0.590445, 0.590445, 0.807078, -197.400827, 162.847525)"/>
<polygon style="fill: rgb(216, 216, 216);" points="140 399 176 400 165 390 152 390" transform="matrix(0.807078, -0.590445, 0.590445, 0.807078, -202.744027, 169.494464)"/>
<rect y="64" width="100" height="21" style="fill: rgb(77, 90, 65);" x="-340"/>
<g transform="matrix(0, -0.420231, 0.420231, 0, -314.843079, 106.980164)" style="">
<path d="M 198 2 C 198 14 190 14 184 14 C 180 14 177 12 174 9 C 170 14 150 16 150 16 L 150 -12 C 150 -12 170 -10 174 -5 C 177 -8 180 -10 184 -10 C 190 -10 198 -10 198 2 Z" style="fill: rgb(75, 87, 63);"/>
<path d="M 146 -11 L 150 -12 L 150 16 L 146 15 L 146 -11 Z" style="fill: rgb(224, 225, 230);"/>
<path d="M 146 -11 L 140 -11 L 140 15 L 146 15 L 146 -11 Z" style="fill: rgb(75, 87, 63);"/>
<path d="M 140 -11 L 129 -11 L 129 15 L 140 15 L 140 -11 Z" style="fill: rgb(224, 225, 230);"/>
<path d="M 129 -11 L 124 -14 L 124 18 L 129 15 L 129 -11 Z" style="fill: rgb(75, 87, 63);"/>
<ellipse style="fill: rgb(216, 216, 216);" cx="187" cy="-3" rx="3" ry="2"/>
<path d="M 113 -14 L 111 -5 L 111 9 L 113 18 L 113 -14 Z" style="fill: rgb(75, 87, 63);"/>
<path d="M 198 2 C 198 7 197 8 197 8 C 196 8 196 -4 197 -4 C 197 -4 198 -3 198 2 Z" style="fill: rgb(224, 225, 230);"/>
<path d="M 124 -14 L 113 -17 L 113 21 L 124 18 L 124 -14 Z" style="fill: rgb(224, 225, 230);"/>
</g>
<polygon style="fill: rgb(140, 140, 140);" points="-316 58 -312 58 -309 75 -318 75"/>
<polygon style="fill: rgb(140, 140, 140);" points="-307 58 -304 59 -301 73 -306 72"/>
<polygon style="fill: rgb(140, 140, 140);" points="-321 58 -324 59 -327 73 -322 72"/>
<polygon style="fill: rgb(126, 146, 106);" points="-240 85 -240 20 -252 6 -252 64"/>
<polygon style="fill: rgb(126, 146, 106);" points="-340 85 -340 18 -332 6 -332 64"/>
<g style="" transform="matrix(0.351935, 0, 0, 0.351935, -332.961151, 47.579987)">
<polygon style="fill: rgb(201, 158, 147);" points="141 58 142 64 144 65 144 61 146 61 143 56"/>
<polygon style="fill: rgb(201, 158, 147);" points="173 56 172 62 169 64 171 60 169 59 171 55"/>
<ellipse style="fill: rgba(0, 0, 0, 0.2);" cx="-156" cy="92" rx="18" ry="3" transform="matrix(-1, 0, 0, 1, 0, 0)"/>
<polygon style="fill: rgb(5, 7, 14);" points="150 86 146 87 141 92 143 93 147 93 151 90"/>
<polygon style="fill: rgb(5, 7, 14);" points="161 86 165 87 170 92 168 93 164 93 160 90"/>
<polygon style="fill: rgb(53, 165, 202);" points="153 22 163 23 171 27 175 43 173 56 170 56 170 44 167 34 166 51 168 71 167 88 160 87 160 71 157 58 153 71 152 87 144 88 145 71 148 51 147 35 145 44 144 57 141 58 140 43 143 26"/>
<polygon style="fill: rgb(201, 158, 147);" points="156 7 166 5 168 13 165 19 161 19 162 24 158 27 153 24 154 17"/>
<polygon style="fill: rgb(43, 12, 16);" points="168 5 159 3 154 5 154 17 156 15 156 10 158 9 158 12 160 11 159 8"/>
</g>
<circle style="fill: rgb(10, 140, 200);" r="50" cx="-290" cy="-60"/>
<path d="M -260 -46 L -260 -47 L -260 -49 L -260 -52 L -261 -53 L -261 -56 L -262 -59 L -264 -63 L -267 -64 L -269 -66 L -272 -68 L -274 -66 L -276 -67 L -282 -65 L -283 -60 L -285 -59 L -285 -54 L -292 -51 L -297 -53 L -301 -54 L -304 -52 L -307 -54 L -309 -59 L -312 -61 L -315 -59 L -318 -61 L -322 -63 L -325 -63 L -328 -61 L -328 -54 L -325 -49 L -325 -48 L -322 -44 L -321 -37 L -316 -34 L -310 -29 L -309 -24 L -302 -17 L -302 -22 L -297 -22 L -295 -23 L -293 -22 L -291 -23 L -289 -22 L -287 -23 L -283 -22 L -288 -21 L -296 -20 L -300 -21 L -299 -16 L -297 -13 L -296 -13 L -293 -14 L -291 -12 L -292 -15 L -286 -15 L -291 -13 L -291 -11 L -293 -12 L -295 -11 L -298 -11 C -298 -11 -273 -4 -253 -26 L -251 -33 L -256 -31 L -254 -33 L -255 -37 L -254 -39 L -252 -41 L -255 -40 L -257 -41 L -254 -44 L -256 -47 L -257 -48 L -259 -47 L -260 -44 L -260 -41 L -259 -39 L -260 -39 L -258 -38 L -260 -36 L -260 -34 L -262 -33 L -263 -33 L -266 -31 L -269 -28 L -270 -28 L -270 -26 L -270 -24 L -269 -24 L -266 -23 L -267 -22 L -270 -20 L -268 -20 L -269 -19 L -270 -19 L -274 -18 L -274 -19 L -272 -21 L -270 -23 L -271 -24 L -272 -24 L -274 -23 L -275 -23 L -276 -20 L -278 -21 L -280 -22 L -278 -24 L -274 -28 L -273 -30 L -274 -30 L -273 -33 L -270 -33 L -267 -34 L -263 -39 L -262 -41 L -261 -44 L -260 -46 Z" style="fill: rgba(183, 155, 100, 0.66);"/>
<polygon style="fill: rgba(183, 155, 100, 0.66);" points="-328 -43 -326 -40 -325 -38 -323 -37 -323 -35 -322 -31 -326 -37"/>
<path d="M -305 -107 L -300 -108 L -296 -106 L -292 -104 L -290 -103 L -290 -100 L -286 -96 L -282 -95 L -280 -92 L -277 -90 L -275 -92 L -273 -92 L -272 -95 L -268 -95 L -266 -94 L -263 -93 L -262 -95 L -256 -94 L -255 -96 C -266 -107 -286 -114 -305 -107 Z" style="fill: rgba(183, 155, 100, 0.66);"/>
<polygon style="fill: rgba(183, 155, 100, 0.66);" points="-253 -39 -254 -37 -255 -36 -251 -36 -250 -37 -253 -37"/>
<polygon style="fill: rgba(183, 155, 100, 0.66);" points="-250 -41 -252 -40 -250 -39"/>
<path d="M 220 -60 C 220 -48 212 -48 206 -48 C 202 -48 199 -50 196 -53 C 192 -48 172 -46 172 -46 L 172 -74 C 172 -74 192 -72 196 -67 C 199 -70 202 -72 206 -72 C 212 -72 220 -72 220 -60 Z" style="fill: rgb(75, 87, 63);"/>
<path d="M 220 -60 C 220 -55 219 -54 219 -54 C 218 -54 218 -66 219 -66 C 219 -66 220 -65 220 -60 Z" style="fill: rgb(224, 225, 230);"/>
<path d="M 221 -61 C 221 -56 220 -55 220 -55 C 219 -55 219 -67 220 -67 C 220 -67 221 -66 221 -61 Z" style="fill: rgb(224, 225, 230);" transform="matrix(-0.587379, 0.809312, -0.809312, -0.587379, 303.520659, -264.747511)" bx:origin="0 1"/>
<path d="M 220 -60 C 220 -56 219 -55 219 -55 C 218 -55 218 -65 219 -65 C 219 -65 220 -64 220 -60 Z" style="fill: rgb(170, 171, 175);"/>
<path d="M 168 -73 L 172 -74 L 172 -46 L 168 -47 L 168 -73 Z" style="fill: rgb(224, 225, 230);"/>
<path d="M 168 -73 L 162 -73 L 162 -47 L 168 -47 L 168 -73 Z" style="fill: rgb(75, 87, 63);"/>
<path d="M 162 -73 L 151 -73 L 151 -47 L 162 -47 L 162 -73 Z" style="fill: rgb(224, 225, 230);"/>
<path d="M 151 -73 L 146 -76 L 146 -44 L 151 -47 L 151 -73 Z" style="fill: rgb(75, 87, 63);"/>
<ellipse style="fill: rgb(216, 216, 216);" cx="209" cy="-65" rx="3" ry="2"/>
<rect x="151" width="21" height="7" style="fill: rgb(78, 76, 78);" y="-82"/>
<rect x="151" width="21" height="10" style="fill: rgb(78, 76, 78);" y="-93"/>
<rect x="151" width="21" height="14" style="fill: rgb(78, 76, 78);" y="-108"/>
<rect x="151" y="-45" width="21" height="7" style="fill: rgb(78, 76, 78);"/>
<rect x="151" width="21" height="10" style="fill: rgb(78, 76, 78);" y="-37"/>
<rect x="151" width="21" height="14" style="fill: rgb(78, 76, 78);" y="-26"/>
<path d="M 135 -60 C 135 -53 120 -52 120 -52 L 120 -68 C 120 -68 135 -67 135 -60 Z" style="fill: rgb(78, 76, 78);"/>
<path d="M 135 -76 L 133 -67 L 133 -53 L 135 -44 L 135 -76 Z" style="fill: rgb(75, 87, 63);"/>
<path d="M 146 -76 L 135 -79 L 135 -41 L 146 -44 L 146 -76 Z" style="fill: rgb(224, 225, 230);"/>
<path d="M 350 -60 C 350 -48 342 -48 336 -48 C 332 -48 329 -50 326 -53 C 322 -48 302 -46 302 -46 L 302 -74 C 302 -74 322 -72 326 -67 C 329 -70 332 -72 336 -72 C 342 -72 350 -72 350 -60 Z" style="fill: rgb(75, 87, 63);"/>
<path d="M 350 -60 C 350 -55 349 -54 349 -54 C 348 -54 348 -66 349 -66 C 349 -66 350 -65 350 -60 Z" style="fill: rgb(224, 225, 230);"/>
<path d="M 350 -60 C 350 -56 349 -55 349 -55 C 348 -55 348 -65 349 -65 C 349 -65 350 -64 350 -60 Z" style="fill: rgb(170, 171, 175);"/>
<path d="M 298 -73 L 302 -74 L 302 -46 L 298 -47 L 298 -73 Z" style="fill: rgb(224, 225, 230);"/>
<path d="M 298 -73 L 292 -73 L 292 -47 L 298 -47 L 298 -73 Z" style="fill: rgb(75, 87, 63);"/>
<path d="M 292 -73 L 281 -73 L 281 -47 L 292 -47 L 292 -73 Z" style="fill: rgb(224, 225, 230);"/>
<path d="M 281 -73 L 276 -76 L 276 -44 L 281 -47 L 281 -73 Z" style="fill: rgb(75, 87, 63);"/>
<ellipse style="fill: rgb(216, 216, 216);" cx="339" cy="-65" rx="3" ry="2"/>
<rect x="281" width="21" height="7" style="fill: rgb(78, 76, 78);" y="-82"/>
<rect x="281" width="21" height="10" style="fill: rgb(78, 76, 78);" y="-93"/>
<rect x="281" width="21" height="14" style="fill: rgb(78, 76, 78);" y="-108"/>
<rect x="281" y="-45" width="21" height="7" style="fill: rgb(78, 76, 78);"/>
<rect x="281" width="21" height="10" style="fill: rgb(78, 76, 78);" y="-37"/>
<rect x="281" width="21" height="14" style="fill: rgb(78, 76, 78);" y="-26"/>
<path d="M 265 -60 C 265 -53 250 -52 250 -52 L 250 -68 C 250 -68 265 -67 265 -60 Z" style="fill: rgb(78, 76, 78);"/>
<path d="M 265 -76 L 263 -67 L 263 -53 L 265 -44 L 265 -76 Z" style="fill: rgb(75, 87, 63);"/>
<path d="M 276 -76 L 265 -79 L 265 -41 L 276 -44 L 276 -76 Z" style="fill: rgb(224, 225, 230);"/>
<ellipse style="fill: rgb(170, 171, 175);" cx="353" cy="-60" rx="3" ry="6"/>
<g transform="matrix(1, 0, 0, 1, -230, -110)">
<polygon style="fill: rgba(216, 216, 216, 0.53);" points="9 70 21 76 33 77 46 76 50 82 56 79 62 80 72 75 78 76 83 73 77 79 73 77 63 83 58 81 48 84 44 78 37 79 20 77"/>
<polygon style="fill: rgba(216, 216, 216, 0.53);" points="2 55 10 61 19 62 22 66 38 67 43 70 55 69 40 72 37 68 23 68 17 64 9 63"/>
<polygon style="fill: rgba(216, 216, 216, 0.53);" points="87 84 83 84 79 83 74 87 63 88 76 88 80 85 85 86"/>
<polygon style="fill: rgba(216, 216, 216, 0.53);" points="9 79 18 84 26 85 28 87 35 89 43 87 49 89 43 89 33 91 26 87 18 86 15 86"/>
<polygon style="fill: rgba(216, 216, 216, 0.53);" points="41 94 50 93 54 95 60 93 66 94 73 91 65 96 59 96 52 97 47 95 38 96 30 92"/>
<polygon style="fill: rgba(216, 216, 216, 0.53);" points="10 36 17 45 28 47 33 52 42 51 49 55 56 54 48 53 39 49 33 50 26 44 18 43"/>
<polygon style="fill: rgba(216, 216, 216, 0.53);" points="6 26 12 30 21 32 24 37 30 39 25 35 21 30 13 28 9 21"/>
<polygon style="fill: rgba(216, 216, 216, 0.53);" points="15 16 20 22 26 23 31 29 47 30 56 34 66 30 56 32 43 27 32 28 28 20 21 21"/>
<polygon style="fill: rgba(216, 216, 216, 0.53);" points="73 46 81 47 85 44 94 44 99 40 100 46 87 45 81 49"/>
<polygon style="fill: rgba(216, 216, 216, 0.53);" points="57 61 71 58 81 60 90 55 96 56 90 57 81 62 70 60"/>
<polygon style="fill: rgba(216, 216, 216, 0.53);" points="86 15 81 21 73 23 71 26 77 23 84 23 88 17"/>
<polygon style="fill: rgba(216, 216, 216, 0.53);" points="21 9 26 12 34 12 39 16 47 14 39 14 33 10 29 10 28 5"/>
<polygon style="fill: rgba(216, 216, 216, 0.53);" points="67 3 63 7 54 9 65 8 73 5"/>
<polygon style="fill: rgba(216, 216, 216, 0.53);" points="33 3 40 7 49 5 41 5 39 1"/>
<polygon style="fill: rgba(216, 216, 216, 0.53);" points="53 47 62 45 69 40 79 40 87 31 78 38 67 38 61 43"/>
<polygon style="fill: rgba(216, 216, 216, 0.53);" points="0 45 8 44 14 47 18 50 26 50 32 57 26 52 18 53 12 47 6 46 0 49"/>
</g>
<polygon style="fill: rgb(216, 216, 216); stroke: rgb(0, 0, 0);" points="-7 92"/>
<polygon style="fill: rgb(216, 216, 216);" points="87 15"/>
<circle style="fill: rgb(10, 140, 200);" r="50" cy="-60" cx="-70"/>
<path d="M -40 -46 L -40 -48 L -40 -50 L -41 -53 L -41 -56 L -42 -60 L -45 -63 L -48 -64 L -49 -66 L -52 -68 L -55 -66 L -57 -67 L -63 -65 L -63 -60 L -65 -59 L -66 -54 L -72 -51 L -77 -52 L -81 -54 L -84 -52 L -88 -54 L -89 -59 L -92 -60 L -95 -59 L -99 -61 L -103 -62 L -106 -63 L -109 -60 L -108 -54 L -105 -48 L -105 -47 L -102 -43 L -101 -36 L -96 -33 L -90 -29 L -89 -23 L -82 -17 L -82 -21 L -77 -22 L -75 -23 L -72 -22 L -70 -23 L -69 -22 L -67 -23 L -62 -23 L -68 -21 L -76 -20 L -79 -21 L -79 -16 L -77 -12 L -75 -13 L -72 -14 L -71 -12 L -71 -15 L -66 -15 L -70 -13 L -70 -11 L -72 -12 L -74 -11 L -78 -11 C -78 -11 -51 -4 -32 -28 L -31 -34 L -36 -31 L -34 -33 L -35 -37 L -34 -39 L -32 -42 L -35 -40 L -37 -41 L -34 -44 L -36 -47 L -37 -48 L -39 -47 L -40 -44 L -40 -42 L -39 -40 L -39 -39 L -38 -38 L -40 -36 L -40 -35 L -42 -34 L -43 -33 L -45 -31 L -48 -28 L -50 -28 L -49 -26 L -50 -24 L -48 -25 L -46 -23 L -46 -22 L -49 -21 L -47 -20 L -49 -19 L -50 -20 L -53 -18 L -54 -19 L -51 -22 L -50 -23 L -50 -25 L -52 -24 L -54 -23 L -55 -23 L -55 -21 L -58 -21 L -59 -22 L -58 -24 L -54 -28 L -53 -30 L -54 -30 L -53 -33 L -50 -34 L -47 -34 L -43 -39 L -42 -42 L -41 -45 L -40 -46 Z" style="fill: rgb(124, 150, 134);"/>
<polygon style="fill: rgb(124, 150, 134);" points="-109 -43 -106 -40 -105 -38 -103 -37 -103 -35 -101 -31 -106 -37"/>
<path d="M -86 -107 L -81 -107 L -77 -106 L -73 -103 L -71 -103 L -71 -100 L -67 -96 L -63 -95 L -61 -92 L -57 -91 L -56 -92 L -54 -92 L -53 -95 L -49 -95 L -47 -95 L -44 -93 L -43 -96 L -37 -95 L -35 -96 C -49 -109 -67 -114 -86 -107 Z" style="fill: rgb(124, 150, 134);"/>
<polygon style="fill: rgb(124, 150, 134);" points="-32 -40 -33 -38 -34 -37 -30 -37 -29 -38 -32 -38"/>
<polygon style="fill: rgb(124, 150, 134);" points="-29 -42 -31 -41 -29 -40"/>
<polygon style="fill: rgba(216, 216, 216, 0.53);" points="-66 -105 -77 -98 -84 -88 -90 -76 -97 -76 -98 -69 -102 -65 -103 -54 -107 -49 -107 -43 -109 -51 -105 -54 -105 -66 -101 -69 -98 -79 -91 -79 -88 -86 -78 -99"/>
<polygon style="fill: rgba(216, 216, 216, 0.53);" points="-50 -104 -59 -100 -64 -93 -69 -92 -78 -79 -84 -76 -89 -66 -84 -80 -79 -81 -72 -93 -65 -96 -60 -102"/>
<polygon style="fill: rgba(216, 216, 216, 0.53);" points="-117 -43 -116 -49 -113 -52 -114 -58 -109 -68 -116 -57 -115 -52 -119 -49"/>
<polygon style="fill: rgba(216, 216, 216, 0.53);" points="-74 -110 -82 -105 -87 -99 -90 -98 -96 -93 -98 -85 -103 -81 -100 -86 -96 -96 -89 -100 -84 -106 -81 -109"/>
<polygon style="fill: rgba(216, 216, 216, 0.53);" points="-103 -90 -107 -82 -111 -79 -112 -73 -116 -69 -117 -61 -117 -70 -114 -76 -111 -82 -107 -85 -103 -94 -96 -98"/>
<polygon style="fill: rgba(216, 216, 216, 0.53);" points="-37 -87 -48 -86 -56 -78 -63 -76 -66 -68 -73 -64 -76 -57 -71 -64 -63 -69 -61 -75 -52 -78 -47 -84"/>
<polygon style="fill: rgba(216, 216, 216, 0.53);" points="-26 -84 -33 -82 -39 -75 -45 -75 -50 -71 -44 -74 -38 -74 -32 -80 -24 -80"/>
<polygon style="fill: rgba(216, 216, 216, 0.53);" points="-23 -72 -30 -71 -34 -66 -42 -65 -51 -52 -59 -46 -61 -36 -57 -45 -47 -54 -42 -64 -33 -63 -30 -70"/>
<polygon style="fill: rgba(216, 216, 216, 0.53);" points="-79 -38 -84 -32 -83 -27 -88 -19 -87 -13 -92 -15 -85 -25 -86 -33"/>
<polygon style="fill: rgba(216, 216, 216, 0.53);" points="-83 -59 -87 -46 -94 -38 -94 -28 -98 -24 -96 -29 -96 -39 -88 -48"/>
<polygon style="fill: rgba(216, 216, 216, 0.53);" points="-56 -12 -61 -18 -58 -26 -60 -30 -60 -23 -64 -17 -61 -11"/>
<polygon style="fill: rgba(216, 216, 216, 0.53);" points="-20 -64 -25 -61 -29 -54 -35 -52 -38 -44 -34 -51 -27 -54 -25 -58 -20 -56"/>
<polygon style="fill: rgba(216, 216, 216, 0.53);" points="-39 -21 -40 -27 -37 -36 -42 -26 -43 -18"/>
<polygon style="fill: rgba(216, 216, 216, 0.53);" points="-21 -50 -28 -46 -31 -38 -27 -45 -22 -46"/>
<polygon style="fill: rgba(216, 216, 216, 0.53);" points="-69 -56 -72 -47 -71 -38 -77 -30 -73 -18 -74 -30 -69 -39 -70 -47"/>
<polygon style="fill: rgba(216, 216, 216, 0.53);" points="-40 -100 -43 -93 -49 -89 -54 -88 -58 -81 -67 -79 -59 -82 -56 -89 -48 -91 -44 -96 -43 -102"/>
<polygon style="fill: rgb(201, 158, 147);" points="33 60 34 66 36 67 36 63 38 63 35 58"/>
<polygon style="fill: rgb(201, 158, 147);" points="65 58 64 64 61 66 62 61 60 61 62 58"/>
<ellipse style="fill: rgba(0, 0, 0, 0.2);" cx="-48" cy="94" rx="18" ry="3" transform="matrix(-1, 0, 0, 1, 0, 0)"/>
<polygon style="fill: rgb(5, 7, 14);" points="42 88 38 89 33 94 35 95 39 95 43 92"/>
<polygon style="fill: rgb(5, 7, 14);" points="53 88 57 89 62 94 60 95 56 95 52 92"/>
<polygon style="fill: rgb(53, 165, 202);" points="45 24 55 25 63 29 67 45 65 58 62 58 62 46 59 36 58 53 60 73 59 90 52 89 52 73 49 60 45 73 44 89 36 90 37 73 40 53 39 37 37 46 36 59 33 60 32 45 35 28"/>
<polygon style="fill: rgb(201, 158, 147);" points="48 9 58 7 60 15 57 21 53 21 54 26 50 29 45 26 46 19"/>
<polygon style="fill: rgb(193, 53, 73);" points="60 7 51 5 46 7 46 19 48 17 48 12 50 11 50 14 52 13 51 10"/>
</svg>