<?xml version="1.0" encoding="utf-8"?>
<svg viewBox="0 0 100 100" xmlns="http://www.w3.org/2000/svg" xmlns:bx="https://boxy-svg.com">
<rect width="80" height="58" style="fill: rgb(101, 117, 85);" x="-332" y="6"/>
<circle style="fill: rgb(10, 140, 200);" r="50" cx="-180" cy="-60"/>
<g transform="matrix(1, 0, 0, 1, -230, -110)">
<path d="M 46 17 L 45 18 L 43 19 L 41 21 L 41 22 L 38 23 L 36 26 L 34 30 L 35 33 L 34 35 L 34 39 L 37 40 L 37 42 L 42 46 L 46 44 L 48 45 L 53 43 L 59 47 L 60 52 L 61 56 L 64 58 L 64 62 L 61 66 L 61 69 L 64 71 L 64 75 L 65 79 L 66 82 L 70 83 L 75 79 L 78 74 L 79 73 L 81 69 L 86 64 L 86 58 L 87 51 L 91 47 L 93 38 L 89 40 L 86 36 L 84 35 L 84 32 L 82 31 L 82 29 L 80 28 L 78 24 L 82 28 L 87 34 L 88 38 L 92 35 L 94 31 L 93 30 L 91 28 L 91 26 L 89 28 L 86 23 L 90 26 L 92 25 L 92 27 L 94 28 L 96 31 C 96 31 88 6 59 1 L 52 3 L 57 6 L 54 5 L 51 8 L 49 8 L 46 8 L 49 10 L 49 12 L 45 11 L 43 14 L 43 16 L 45 17 L 48 16 L 50 15 L 51 13 L 52 13 L 52 11 L 55 12 L 56 11 L 58 12 L 59 13 L 62 14 L 66 15 L 67 16 L 68 15 L 70 14 L 69 13 L 69 10 L 70 10 L 73 12 L 72 10 L 74 11 L 74 12 L 77 14 L 77 15 L 73 14 L 71 14 L 70 15 L 71 16 L 73 17 L 74 18 L 76 17 L 77 19 L 77 21 L 74 21 L 69 20 L 67 20 L 67 21 L 64 21 L 62 19 L 60 17 L 54 16 L 51 16 L 48 17 L 46 17 Z" style="fill: rgb(124, 150, 134);"/>
<polygon style="fill: rgb(124, 150, 134);" points="85 74 86 70 87 69 87 66 89 65 91 62 89 69"/>
<path d="M 18 88 L 15 84 L 14 80 L 14 75 L 13 73 L 16 71 L 17 66 L 16 62 L 18 59 L 17 55 L 15 55 L 14 53 L 11 53 L 9 50 L 8 48 L 8 45 L 5 45 L 3 40 L 1 40 C -2 55 2 75 18 88 Z" style="fill: rgb(124, 150, 134);"/>
<polygon style="fill: rgb(124, 150, 134);" points="48 7 50 7 51 7 49 4 48 4 49 6"/>
<polygon style="fill: rgb(124, 150, 134);" points="45 6 47 7 46 5"/>
</g>
<path style="fill: rgb(225, 186, 167);" d="M 65 25"/>
<path style="fill: rgb(216, 216, 216);" d="M 62 21"/>
<path style="fill: rgb(216, 216, 216);" d="M 59 20"/>
<polygon style="fill: rgb(216, 216, 216); stroke: rgb(0, 0, 0);" points="-64 29"/>
<polygon style="fill: rgb(216, 216, 216); stroke: rgb(0, 0, 0);" points="-74 35"/>
<polygon style="fill: rgb(216, 216, 216); stroke: rgb(0, 0, 0);" points="46 25"/>
<polygon style="fill: rgb(216, 216, 216); stroke: rgb(0, 0, 0);" points="35 24"/>
<polygon style="fill: rgb(201, 158, 147);" points="212 129 204 127 203 133 204 141 210 141 209 146 218 146 217 139"/>
<polygon style="fill: rgb(255, 255, 255);" points="234 208 237 214 240 212 239 205 235 203"/>
<polygon style="fill: rgb(201, 158, 147);" points="184 163 178 163 177 165 182 166 180 168 185 166"/>
<polygon style="fill: rgb(201, 158, 147);" points="241 163 243 168 243 171 240 168 239 170 238 164"/>
<polygon style="fill: rgb(255, 255, 255);" points="212 210 209 216 212 217 217 212 216 209"/>
<polygon style="fill: rgb(53, 165, 202);" points="218 143 208 144 200 148 195 158 183 163 185 166 199 163 204 154 205 171 203 192 211 210 217 210 212 191 214 177 222 192 234 207 238 204 229 187 223 171 224 153 231 156 238 165 241 163 235 152 225 145"/>
<polygon style="fill: rgb(193, 53, 73);" points="203 127 212 125 217 127 217 139 211 136 211 132 209 130 208 135 206 134 206 130"/>
<polygon style="fill: rgb(201, 158, 147);" points="295 129 285 127 283 135 286 141 290 141 289 146 298 146 297 139"/>
<polygon style="fill: rgb(53, 165, 202);" points="283 145 270 153 262 169 268 172 274 159 284 154 285 171 283 192 291 210 298 210 292 191 294 177 302 192 313 208 319 204 309 187 305 171 305 154 316 157 324 167 329 162 319 150 302 144"/>
<polygon style="fill: rgb(43, 12, 16);" points="283 127 292 125 297 127 297 139 295 137 295 132 293 131 293 134 291 133 292 130"/>
<polygon style="fill: rgb(201, 158, 147);" points="375 129 365 127 363 136 366 141 370 141 369 146 378 146 377 139"/>
<polygon style="fill: rgb(216, 216, 216);" points="364 127 373 125 378 128 377 139 375 136 375 132 373 131 372 135 371 141 366 142 364 138 370 135 371 130"/>
<polygon style="fill: rgb(53, 165, 202);" points="363 145 350 153 342 169 348 172 354 159 364 154 365 171 363 192 371 210 378 210 372 191 374 177 382 192 393 208 399 204 389 187 385 171 385 154 396 157 404 167 409 162 399 150 382 144"/>
<polygon style="fill: rgb(201, 158, 147);" points="455 129 445 127 443 136 446 141 450 141 449 146 458 146 457 139"/>
<polygon style="fill: rgb(149, 57, 32);" points="444 127 453 125 458 128 457 139 455 136 455 132 453 131 452 135 451 141 446 142 444 138 450 135 451 130"/>
<polygon style="fill: rgb(53, 165, 202);" points="443 145 430 153 422 169 428 172 434 159 444 154 445 171 443 192 451 210 458 210 452 191 454 177 462 192 473 208 479 204 469 187 465 171 465 154 476 157 484 167 489 162 479 150 462 144"/>
<polygon style="fill: rgb(201, 158, 147);" points="-27 301 -28 307 -30 308 -30 304 -32 304 -29 299"/>
<polygon style="fill: rgb(201, 158, 147);" points="-59 299 -59 305 -57 307 -57 302 -55 302 -57 298"/>
<ellipse style="fill: rgba(0, 0, 0, 0.2);" cx="-42" cy="335" rx="18" ry="3"/>
<polygon style="fill: rgb(43, 12, 16);" points="-36 329 -32 330 -27 335 -29 336 -33 336 -37 333"/>
<polygon style="fill: rgb(43, 12, 16);" points="-47 329 -51 330 -56 335 -54 336 -50 336 -46 333"/>
<polygon style="fill: rgb(53, 165, 202);" points="-39 265 -49 266 -57 269 -61 285 -59 299 -56 299 -56 286 -53 277 -52 294 -54 314 -53 331 -46 330 -46 314 -43 299 -39 314 -38 330 -30 331 -31 314 -34 294 -33 276 -31 286 -30 300 -27 301 -26 285 -29 269"/>
<polygon style="fill: rgb(201, 158, 147);" points="-42 250 -52 248 -54 256 -51 262 -47 262 -48 267 -44 270 -39 267 -40 260"/>
<polygon style="fill: rgb(193, 53, 73);" points="-54 248 -45 246 -40 248 -40 260 -42 258 -42 253 -44 252 -44 255 -46 254 -45 251"/>
<polygon style="fill: rgb(201, 158, 147);" points="156 178 154 184 152 185 153 181 151 181 154 177"/>
<polygon style="fill: rgb(201, 158, 147);" points="124 179 125 185 127 187 127 182 129 182 127 179"/>
<ellipse style="fill: rgba(0, 0, 0, 0.2);" cx="139" cy="214" rx="18" ry="3"/>
<polygon style="fill: rgb(43, 12, 16);" points="144 208 148 209 153 214 151 215 147 214 143 212"/>
<polygon style="fill: rgb(43, 12, 16);" points="134 208 130 209 125 214 127 215 131 214 135 212"/>
<polygon style="fill: rgb(85, 84, 87);" points="136 144 146 145 154 149 158 164 156 178 153 178 153 165 150 156 149 173 151 193 150 210 143 209 143 193 140 178 136 193 135 209 127 210 128 193 131 173 130 155 128 165 127 179 124 180 123 164 126 148"/>
<polygon style="fill: rgb(201, 158, 147);" points="142 129 132 127 130 136 133 141 137 141 136 146 140 154 145 146 144 139"/>
<polygon style="fill: rgb(216, 216, 216);" points="131 127 140 125 145 128 144 139 142 136 142 132 140 131 139 135 138 141 133 142 131 138 137 135 138 130"/>
<ellipse style="fill: rgba(0, 0, 0, 0.2);" cx="139" cy="334" rx="18" ry="3"/>
<polygon style="fill: rgb(43, 12, 16);" points="144 328 148 329 153 334 151 335 148 335 143 332"/>
<polygon style="fill: rgb(43, 12, 16);" points="134 328 130 329 125 334 127 335 130 335 135 332"/>
<path d="M 131 293 L 140 280 L 149 293 L 151 313 L 149 330 L 143 329 L 143 313 L 140 298 L 136 313 L 135 329 L 129 330 L 128 313 L 131 293 Z" style="fill: rgb(19, 27, 55);"/>
<polygon style="fill: rgb(201, 158, 147);" points="156 299 154 305 152 306 153 302 151 302 154 298"/>
<polygon style="fill: rgb(201, 158, 147);" points="124 299 125 305 127 307 127 302 129 302 127 299"/>
<path d="M 136 265 L 145 265 L 154 270 L 158 285 L 156 299 L 153 298 L 153 286 L 150 278 L 150 293 L 151 308 L 144 307 L 140 294 L 136 307 L 128 308 L 130 292 L 130 278 L 128 286 L 127 299 L 124 300 L 123 285 L 126 269 L 136 265 Z" style="fill: rgb(85, 84, 87);"/>
<polygon style="fill: rgb(19, 27, 55);" points="137 263 133 265 136 269 134 274 140 291 146 274 145 269 148 265 144 263"/>
<polygon style="fill: rgb(201, 158, 147);" points="142 249 133 248 131 256 133 261 137 261 136 266 140 274 145 266 144 259"/>
<polygon style="fill: rgb(19, 27, 55);" points="131 248 139 245 145 248 144 259 142 256 142 252 140 251 139 255 138 261 133 262 131 257 137 255 138 250"/>
<ellipse style="fill: rgba(0, 0, 0, 0.2);" cx="209" cy="334" rx="18" ry="3"/>
<polygon style="fill: rgb(43, 12, 16);" points="214 328 218 329 223 334 221 335 217 334 213 332"/>
<polygon style="fill: rgb(43, 12, 16);" points="204 328 200 329 195 334 197 335 201 334 205 332"/>
<path d="M 201 293 L 219 293 L 221 313 L 219 330 L 213 329 L 213 313 L 210 298 L 206 313 L 205 329 L 199 329 L 198 313 L 201 293 Z" style="fill: rgb(90, 90, 90);"/>
<polygon style="fill: rgb(201, 158, 147);" points="226 299 224 305 222 306 223 302 221 302 224 298"/>
<polygon style="fill: rgb(201, 158, 147);" points="194 300 195 305 197 307 197 302 199 302 197 299"/>
<path d="M 206 265 L 215 265 L 224 269 L 228 284 L 226 299 L 223 298 L 223 285 L 220 277 L 219 293 L 221 310 L 211 311 L 209 307 L 208 311 L 198 309 L 201 293 L 200 277 L 198 285 L 197 299 L 194 300 L 193 284 L 196 268 L 206 265 Z" style="fill: rgb(230, 228, 236);"/>
<polygon style="fill: rgb(201, 158, 147);" points="214 250 202 247 200 256 203 261 207 261 206 266 210 268 215 266 214 259"/>
<polygon style="fill: rgb(131, 106, 99);" points="201 247 209 245 215 248 214 258 213 255 212 251 210 252 209 255 208 263 203 264 201 258 207 255 208 250"/>
<rect y="362" width="100" height="100" style="fill: rgb(100, 149, 168);"/>
<ellipse style="fill: rgba(0, 0, 0, 0.2);" cy="455" rx="18" ry="3" cx="50"/>
<g transform="matrix(1, 0, 0, 1, -158.329224, 241.218964)">
<polygon style="fill: rgb(43, 12, 16);" points="214 208 218 209 223 214 221 215 217 214 213 212"/>
<polygon style="fill: rgb(43, 12, 16);" points="204 208 200 209 195 214 197 215 201 214 205 212"/>
<path d="M 201 173 L 210 160 L 219 173 L 221 193 L 219 210 L 213 209 L 213 193 L 210 178 L 206 193 L 205 209 L 199 209 L 198 193 L 201 173 Z" style="fill: rgb(90, 90, 90);"/>
<polygon style="fill: rgb(201, 158, 147);" points="226 178 224 184 222 185 223 181 221 181 224 177"/>
<polygon style="fill: rgb(201, 158, 147);" points="194 179 195 185 197 187 197 182 199 182 197 179"/>
<path d="M 206 145 L 215 145 L 224 149 L 228 164 L 226 178 L 223 178 L 223 165 L 220 156 L 219 173 L 221 190 L 211 191 L 209 185 L 208 191 L 198 189 L 201 173 L 200 155 L 198 165 L 197 179 L 194 180 L 193 164 L 196 148 L 206 145 Z" style="fill: rgb(230, 228, 236);"/>
<polygon style="fill: rgb(201, 158, 147);" points="212 129 202 127 200 136 203 141 207 141 206 146 210 148 215 146 214 139"/>
<polygon style="fill: rgb(90, 90, 90);" points="201 127 210 125 215 128 214 139 212 136 212 132 210 131 209 135 208 141 203 142 201 138 207 135 208 130"/>
</g>
<ellipse style="fill: rgba(0, 0, 0, 0.2);" cx="69" cy="334" rx="18" ry="3"/>
<polygon style="fill: rgb(5, 7, 14);" points="74 328 78 329 83 334 81 335 78 335 73 332"/>
<polygon style="fill: rgb(5, 7, 14);" points="64 328 60 329 55 334 57 335 60 335 65 332"/>
<path d="M 61 293 L 70 280 L 79 293 L 81 313 L 79 330 L 73 329 L 73 313 L 70 298 L 66 313 L 65 329 L 59 330 L 58 313 L 61 293 Z" style="fill: rgb(64, 64, 64);"/>
<polygon style="fill: rgb(182, 143, 133);" points="86 299 84 305 82 306 83 302 81 302 84 298"/>
<polygon style="fill: rgb(182, 143, 133);" points="54 300 55 305 57 307 57 302 59 302 56 299"/>
<path d="M 66 265 L 75 265 L 84 270 L 88 285 L 86 299 L 83 298 L 83 286 L 80 278 L 80 293 L 81 308 L 71 309 L 69 304 L 68 309 L 58 308 L 60 292 L 60 278 L 58 286 L 57 299 L 54 300 L 53 285 L 56 269 L 66 265 Z" style="fill: rgb(96, 96, 96);"/>
<polygon style="fill: rgb(64, 64, 64);" points="67 263 63 265 66 269 64 274 70 292 77 274 75 269 78 265 74 263"/>
<polygon style="fill: rgb(182, 143, 133);" points="72 249 61 248 61 256 63 261 67 261 66 266 70 267 75 266 74 259"/>
<polygon style="fill: rgb(64, 64, 64);" points="60 248 65 244 74 247 74 259 72 256 72 252 70 252 69 255 68 261 63 263 62 258 67 255 68 250"/>
<polygon style="fill: rgb(167, 167, 167);" points="69 267 70 270 68 274 70 281 73 274 71 270 72 267"/>
<polygon style="fill: rgb(201, 158, 147);" points="-1 300 0 306 2 307 2 303 4 303 1 298"/>
<polygon style="fill: rgb(201, 158, 147);" points="31 298 30 304 27 306 28 301 26 301 28 298"/>
<ellipse style="fill: rgba(0, 0, 0, 0.2);" cx="-14" cy="334" rx="18" ry="3" transform="matrix(-1, 0, 0, 1, 0, 0)"/>
<polygon style="fill: rgb(5, 7, 14);" points="8 328 4 329 -1 334 1 335 5 335 9 332"/>
<polygon style="fill: rgb(5, 7, 14);" points="19 328 23 329 28 334 26 335 22 335 18 332"/>
<polygon style="fill: rgb(53, 165, 202);" points="11 264 21 265 29 269 33 285 31 298 28 298 28 286 25 276 24 293 26 313 25 330 18 329 18 313 15 300 11 313 10 329 2 330 3 313 6 293 5 277 3 286 2 299 -1 300 -2 285 1 268"/>
<polygon style="fill: rgb(201, 158, 147);" points="14 249 24 247 26 255 23 261 19 261 20 266 16 269 11 266 12 259"/>
<polygon style="fill: rgb(193, 53, 73);" points="26 247 17 245 12 247 12 259 14 257 14 252 16 251 16 254 18 253 17 250"/>
<polygon style="fill: rgb(216, 216, 216); stroke: rgb(0, 0, 0);" points="185 155"/>
<polygon style="fill: rgb(190, 190, 190);" points="-50 179 -29 182 -25 172 -26 143 -29 142"/>
<ellipse style="fill: rgb(216, 216, 216);" cx="-39" cy="135" rx="12" ry="14"/>
<path d="M -30 142 L -31 147 L -16 156 L -11 170 L -17 172 L -21 163 L -30 159 L -29 173 L -33 181 L -32 191 L -21 201 L -24 213 L -29 213 L -29 204 L -39 197 L -44 186 L -48 196 L -40 208 L -42 214 L -45 219 L -50 218 L -49 210 L -57 196 L -54 177 L -54 170 L -51 160 L -58 163 L -65 171 L -69 168 L -63 155 L -51 148 L -48 147 L -49 143 L -30 142 Z" style="fill: rgb(216, 216, 216);"/>
<path d="M 220 -60 C 220 -48 212 -48 206 -48 C 202 -48 199 -50 196 -53 C 192 -48 172 -46 172 -46 L 172 -74 C 172 -74 192 -72 196 -67 C 199 -70 202 -72 206 -72 C 212 -72 220 -72 220 -60 Z" style="fill: rgb(75, 87, 63);"/>
<path d="M 168 -73 L 172 -74 L 172 -46 L 168 -47 L 168 -73 Z" style="fill: rgb(224, 225, 230);"/>
<path d="M 168 -73 L 162 -73 L 162 -47 L 168 -47 L 168 -73 Z" style="fill: rgb(75, 87, 63);"/>
<path d="M 162 -73 L 151 -73 L 151 -47 L 162 -47 L 162 -73 Z" style="fill: rgb(224, 225, 230);"/>
<path d="M 151 -73 L 146 -76 L 146 -44 L 151 -47 L 151 -73 Z" style="fill: rgb(75, 87, 63);"/>
<ellipse style="fill: rgb(216, 216, 216);" cx="209" cy="-65" rx="3" ry="2"/>
<rect x="151" width="21" height="7" style="fill: rgb(78, 76, 78);" y="-82"/>
<rect x="151" width="21" height="10" style="fill: rgb(78, 76, 78);" y="-93"/>
<rect x="151" width="21" height="14" style="fill: rgb(78, 76, 78);" y="-108"/>
<rect x="151" y="-45" width="21" height="7" style="fill: rgb(78, 76, 78);"/>
<rect x="151" width="21" height="10" style="fill: rgb(78, 76, 78);" y="-37"/>
<rect x="151" width="21" height="14" style="fill: rgb(78, 76, 78);" y="-26"/>
<path d="M 135 -60 C 135 -53 120 -52 120 -52 L 120 -68 C 120 -68 135 -67 135 -60 Z" style="fill: rgb(78, 76, 78);"/>
<path d="M 135 -76 L 133 -67 L 133 -53 L 135 -44 L 135 -76 Z" style="fill: rgb(75, 87, 63);"/>
<path d="M 220 -60 C 220 -55 219 -54 219 -54 C 218 -54 218 -66 219 -66 C 219 -66 220 -65 220 -60 Z" style="fill: rgb(224, 225, 230);"/>
<path d="M 146 -76 L 135 -79 L 135 -41 L 146 -44 L 146 -76 Z" style="fill: rgb(224, 225, 230);"/>
<polygon style="fill: rgb(190, 190, 190);" points="-65 171 -66 176 -68 175 -69 179 -72 178 -72 172 -69 168"/>
<polygon style="fill: rgb(190, 190, 190);" points="-17 172 -17 177 -15 177 -15 181 -12 181 -10 174 -11 170"/>
<path d="M -194 144 L -194 147 L -179 156 L -174 170 L -180 172 L -184 163 L -193 159 L -192 173 L -196 181 L -196 191 L -184 201 L -187 213 L -192 213 L -192 204 L -202 197 L -207 186 L -212 196 L -203 208 L -205 214 L -208 219 L -213 218 L -212 210 L -220 196 L -217 177 L -217 170 L -214 160 L -221 163 L -228 171 L -232 168 L -226 155 L -214 148 L -211 147 L -211 144 L -194 144 Z" style="fill: rgb(216, 216, 216);"/>
<ellipse style="fill: rgb(233, 233, 233);" cx="-27" cy="136" rx="1" ry="4"/>
<polygon style="fill: rgb(190, 190, 190);" points="-130 179 -109 182 -105 172 -104 140 -124 140"/>
<path d="M -110 135 C -110 142 -114 144 -120 144 C -126 144 -130 142 -130 135 C -130 128 -125 128 -120 128 C -114 128 -110 128 -110 135 Z" style="fill: rgb(122, 122, 122);"/>
<polygon style="fill: rgb(201, 158, 147);" points="-115 131 -125 129 -127 137 -124 143 -120 143 -121 148 -117 151 -112 148 -113 141"/>
<polygon style="fill: rgb(43, 12, 16);" points="-127 129 -118 127 -113 129 -113 141 -115 139 -115 134 -117 133 -117 136 -119 135 -118 132"/>
<path d="M -111 144 L -111 147 L -96 156 L -91 170 L -97 172 L -101 163 L -110 159 L -109 173 L -113 181 L -113 191 L -101 201 L -104 213 L -109 213 L -109 204 L -119 197 L -124 186 L -129 196 L -120 208 L -122 214 L -125 219 L -130 218 L -129 210 L -137 196 L -134 177 L -134 170 L -131 160 L -138 163 L -145 171 L -149 168 L -143 155 L -131 148 L -128 147 L -128 144 L -111 144 Z" style="fill: rgb(216, 216, 216);"/>
<path d="M -107 135 C -107 143 -112 149 -119 149 C -126 149 -131 143 -131 135 C -131 127 -126 121 -119 121 C -112 121 -107 127 -107 135 Z M -120 128 C -125 128 -130 128 -130 135 C -130 142 -126 144 -120 144 C -114 144 -110 142 -110 135 C -110 128 -114 128 -120 128 Z" style="fill: rgb(216, 216, 216);"/>
<polygon style="fill: rgb(190, 190, 190);" points="-145 171 -146 176 -148 175 -149 179 -152 178 -152 172 -149 168"/>
<polygon style="fill: rgb(190, 190, 190);" points="-97 172 -97 177 -95 177 -95 181 -92 181 -90 174 -91 170"/>
<path d="M -28 135 C -28 141 -32 145 -40 145 C -48 145 -52 141 -52 135 C -52 129 -46 127 -40 127 C -32 127 -28 129 -28 135 Z" style="fill: rgb(233, 233, 233);"/>
<path d="M -30 135 C -30 142 -34 144 -40 144 C -46 144 -50 142 -50 135 C -50 128 -45 128 -40 128 C -34 128 -30 128 -30 135 Z" style="fill: rgb(206, 181, 107);"/>
<ellipse style="fill: rgba(0, 0, 0, 0.2);" cx="269" cy="334" rx="18" ry="3"/>
<polygon style="fill: rgb(43, 12, 16);" points="274 328 278 329 283 334 281 335 277 334 273 332"/>
<polygon style="fill: rgb(43, 12, 16);" points="265 328 261 329 256 334 258 335 262 334 266 332"/>
<path d="M 262 293 L 278 293 L 279 314 L 278 329 L 273 329 L 272 314 L 270 298 L 267 314 L 266 329 L 261 329 L 260 313 L 262 293 Z" style="fill: rgb(90, 90, 90);"/>
<polygon style="fill: rgb(201, 158, 147);" points="286 299 284 305 282 306 283 302 281 302 284 298"/>
<polygon style="fill: rgb(201, 158, 147);" points="254 300 255 305 257 307 257 302 259 302 256 299"/>
<path d="M 268 268 L 273 268 L 282 272 L 285 284 L 286 299 L 283 298 L 281 285 L 279 278 L 278 290 L 281 312 L 271 313 L 270 309 L 268 313 L 258 310 L 262 290 L 261 278 L 259 285 L 257 299 L 254 300 L 255 284 L 259 272 L 268 268 Z" style="fill: rgb(230, 228, 236);"/>
<polygon style="fill: rgb(201, 158, 147);" points="272 252 265 252 263 259 266 264 267 264 268 269 271 270 273 269 274 262"/>
<polygon style="fill: rgb(131, 106, 99);" points="265 252 271 250 277 254 276 261 277 266 274 266"/>
<ellipse style="fill: rgba(0, 0, 0, 0.2);" cx="329" cy="334" rx="18" ry="3"/>
<polygon style="fill: rgb(43, 12, 16);" points="334 328 338 329 343 334 341 335 337 334 333 332"/>
<polygon style="fill: rgb(43, 12, 16);" points="324 328 320 329 315 334 317 335 321 334 325 332"/>
<path d="M 322 296 L 338 296 L 341 313 L 339 330 L 334 329 L 333 314 L 330 298 L 326 314 L 325 329 L 320 329 L 318 313 L 322 296 Z" style="fill: rgb(90, 90, 90);"/>
<polygon style="fill: rgb(201, 158, 147);" points="346 299 344 305 342 306 343 302 341 302 344 298"/>
<polygon style="fill: rgb(201, 158, 147);" points="314 300 315 305 317 307 317 302 319 302 317 299"/>
<path d="M 326 264 L 335 264 L 343 269 L 348 284 L 346 299 L 343 298 L 343 285 L 340 278 L 339 293 L 341 310 L 331 311 L 329 309 L 328 311 L 319 308 L 321 293 L 321 277 L 318 285 L 317 299 L 314 300 L 313 284 L 317 269 L 326 264 Z" style="fill: rgb(230, 228, 236);"/>
<polygon style="fill: rgb(201, 158, 147);" points="334 249 323 247 321 254 324 261 327 260 326 265 331 267 334 265 334 258"/>
<polygon style="fill: rgb(131, 106, 99);" points="323 247 330 250 329 254 331 254 332 250 333 251 334 257 336 248 328 244"/>
<polygon style="fill: rgb(216, 140, 93);" points="233 395 236 455 261 458 269 396"/>
<polygon style="fill: rgb(90, 90, 90);" points="246 386 247 369 259 369 258 386"/>
<polygon style="fill: rgb(216, 216, 216);" points="233 395 269 396 258 386 245 386"/>
<polygon style="fill: rgb(216, 165, 114);" points="313 372 317 359 321 372"/>
<polygon style="fill: rgb(101, 101, 101);" points="313 372 313 459 321 459 321 372"/>
<polygon style="fill: rgb(101, 101, 101);" points="315 366 317 359 319 366"/>
<rect y="-221" width="100" height="100" style="fill: rgb(61, 69, 50);" x="124"/>
<path d="M 171 -185 C 171 -185 191 -183 195 -178 C 198 -181 201 -183 205 -183 C 211 -183 219 -183 219 -171 C 219 -159 211 -159 205 -159 C 201 -159 198 -161 195 -164 C 191 -159 171 -157 171 -157 L 167 -158 L 150 -158 L 145 -155 L 134 -152 L 134 -155 L 132 -164 L 132 -178 L 134 -187 L 134 -190 L 145 -187 L 150 -184 L 167 -184 Z" style="fill: rgb(224, 225, 230);"/>
<ellipse style="fill: rgb(52, 143, 247);" cx="208" cy="-176" rx="3" ry="2"/>
<polygon style="fill: rgb(216, 140, 93);" points="161 392 164 452 189 455 197 393" transform="matrix(0.807078, -0.590445, 0.590445, 0.807078, -215.520343, 187.392082)"/>
<polygon style="fill: rgb(90, 90, 90);" points="144 392 145 375 157 375 156 392" transform="matrix(0.807078, -0.590445, 0.590445, 0.807078, -197.400827, 162.847525)"/>
<polygon style="fill: rgb(216, 216, 216);" points="140 399 176 400 165 390 152 390" transform="matrix(0.807078, -0.590445, 0.590445, 0.807078, -202.744027, 169.494464)"/>
<rect y="64" width="100" height="21" style="fill: rgb(77, 90, 65);" x="-340"/>
<g transform="matrix(0, -0.420231, 0.420231, 0, -314.843079, 106.980164)" style="">
<path d="M 198 2 C 198 14 190 14 184 14 C 180 14 177 12 174 9 C 170 14 150 16 150 16 L 150 -12 C 150 -12 170 -10 174 -5 C 177 -8 180 -10 184 -10 C 190 -10 198 -10 198 2 Z" style="fill: rgb(75, 87, 63);"/>
<path d="M 146 -11 L 150 -12 L 150 16 L 146 15 L 146 -11 Z" style="fill: rgb(224, 225, 230);"/>
<path d="M 146 -11 L 140 -11 L 140 15 L 146 15 L 146 -11 Z" style="fill: rgb(75, 87, 63);"/>
<path d="M 140 -11 L 129 -11 L 129 15 L 140 15 L 140 -11 Z" style="fill: rgb(224, 225, 230);"/>
<path d="M 129 -11 L 124 -14 L 124 18 L 129 15 L 129 -11 Z" style="fill: rgb(75, 87, 63);"/>
<ellipse style="fill: rgb(216, 216, 216);" cx="187" cy="-3" rx="3" ry="2"/>
<path d="M 113 -14 L 111 -5 L 111 9 L 113 18 L 113 -14 Z" style="fill: rgb(75, 87, 63);"/>
<path d="M 198 2 C 198 7 197 8 197 8 C 196 8 196 -4 197 -4 C 197 -4 198 -3 198 2 Z" style="fill: rgb(224, 225, 230);"/>
<path d="M 124 -14 L 113 -17 L 113 21 L 124 18 L 124 -14 Z" style="fill: rgb(224, 225, 230);"/>
</g>
<polygon style="fill: rgb(140, 140, 140);" points="-316 58 -312 58 -309 75 -318 75"/>
<polygon style="fill: rgb(140, 140, 140);" points="-307 58 -304 59 -301 73 -306 72"/>
<polygon style="fill: rgb(140, 140, 140);" points="-321 58 -324 59 -327 73 -322 72"/>
<polygon style="fill: rgb(126, 146, 106);" points="-240 85 -240 20 -252 6 -252 64"/>
<polygon style="fill: rgb(126, 146, 106);" points="-340 85 -340 18 -332 6 -332 64"/>
<g style="" transform="matrix(0.351935, 0, 0, 0.351935, -332.961151, 47.579987)">
<polygon style="fill: rgb(201, 158, 147);" points="141 58 142 64 144 65 144 61 146 61 143 56"/>
<polygon style="fill: rgb(201, 158, 147);" points="173 56 172 62 169 64 171 60 169 59 171 55"/>
<ellipse style="fill: rgba(0, 0, 0, 0.2);" cx="-156" cy="92" rx="18" ry="3" transform="matrix(-1, 0, 0, 1, 0, 0)"/>
<polygon style="fill: rgb(5, 7, 14);" points="150 86 146 87 141 92 143 93 147 93 151 90"/>
<polygon style="fill: rgb(5, 7, 14);" points="161 86 165 87 170 92 168 93 164 93 160 90"/>
<polygon style="fill: rgb(53, 165, 202);" points="153 22 163 23 171 27 175 43 173 56 170 56 170 44 167 34 166 51 168 71 167 88 160 87 160 71 157 58 153 71 152 87 144 88 145 71 148 51 147 35 145 44 144 57 141 58 140 43 143 26"/>
<polygon style="fill: rgb(201, 158, 147);" points="156 7 166 5 168 13 165 19 161 19 162 24 158 27 153 24 154 17"/>
<polygon style="fill: rgb(43, 12, 16);" points="168 5 159 3 154 5 154 17 156 15 156 10 158 9 158 12 160 11 159 8"/>
</g>
<circle style="fill: rgb(10, 140, 200);" r="50" cx="-290" cy="-60"/>
<path d="M -260 -46 L -260 -47 L -260 -49 L -260 -52 L -261 -53 L -261 -56 L -262 -59 L -264 -63 L -267 -64 L -269 -66 L -272 -68 L -274 -66 L -276 -67 L -282 -65 L -283 -60 L -285 -59 L -285 -54 L -292 -51 L -297 -53 L -301 -54 L -304 -52 L -307 -54 L -309 -59 L -312 -61 L -315 -59 L -318 -61 L -322 -63 L -325 -63 L -328 -61 L -328 -54 L -325 -49 L -325 -48 L -322 -44 L -321 -37 L -316 -34 L -310 -29 L -309 -24 L -302 -17 L -302 -22 L -297 -22 L -295 -23 L -293 -22 L -291 -23 L -289 -22 L -287 -23 L -283 -22 L -288 -21 L -296 -20 L -300 -21 L -299 -16 L -297 -13 L -296 -13 L -293 -14 L -291 -12 L -292 -15 L -286 -15 L -291 -13 L -291 -11 L -293 -12 L -295 -11 L -298 -11 C -298 -11 -273 -4 -253 -26 L -251 -33 L -256 -31 L -254 -33 L -255 -37 L -254 -39 L -252 -41 L -255 -40 L -257 -41 L -254 -44 L -256 -47 L -257 -48 L -259 -47 L -260 -44 L -260 -41 L -259 -39 L -260 -39 L -258 -38 L -260 -36 L -260 -34 L -262 -33 L -263 -33 L -266 -31 L -269 -28 L -270 -28 L -270 -26 L -270 -24 L -269 -24 L -266 -23 L -267 -22 L -270 -20 L -268 -20 L -269 -19 L -270 -19 L -274 -18 L -274 -19 L -272 -21 L -270 -23 L -271 -24 L -272 -24 L -274 -23 L -275 -23 L -276 -20 L -278 -21 L -280 -22 L -278 -24 L -274 -28 L -273 -30 L -274 -30 L -273 -33 L -270 -33 L -267 -34 L -263 -39 L -262 -41 L -261 -44 L -260 -46 Z" style="fill: rgba(183, 155, 100, 0.66);"/>
<polygon style="fill: rgba(183, 155, 100, 0.66);" points="-328 -43 -326 -40 -325 -38 -323 -37 -323 -35 -322 -31 -326 -37"/>
<path d="M -305 -107 L -300 -108 L -296 -106 L -292 -104 L -290 -103 L -290 -100 L -286 -96 L -282 -95 L -280 -92 L -277 -90 L -275 -92 L -273 -92 L -272 -95 L -268 -95 L -266 -94 L -263 -93 L -262 -95 L -256 -94 L -255 -96 C -266 -107 -286 -114 -305 -107 Z" style="fill: rgba(183, 155, 100, 0.66);"/>
<polygon style="fill: rgba(183, 155, 100, 0.66);" points="-253 -39 -254 -37 -255 -36 -251 -36 -250 -37 -253 -37"/>
<polygon style="fill: rgba(183, 155, 100, 0.66);" points="-250 -41 -252 -40 -250 -39"/>
<path d="M 340 -60 C 340 -48 332 -48 326 -48 C 322 -48 319 -50 316 -53 C 312 -48 292 -46 292 -46 L 292 -74 C 292 -74 312 -72 316 -67 C 319 -70 322 -72 326 -72 C 332 -72 340 -72 340 -60 Z" style="fill: rgb(75, 87, 63);"/>
<path d="M 340 -60 C 340 -55 339 -54 339 -54 C 338 -54 338 -66 339 -66 C 339 -66 340 -65 340 -60 Z" style="fill: rgb(224, 225, 230);"/>
<path d="M 341 -61 C 341 -56 340 -55 340 -55 C 339 -55 339 -67 340 -67 C 340 -67 341 -66 341 -61 Z" style="fill: rgb(224, 225, 230);" transform="matrix(-0.587379, 0.809312, -0.809312, -0.587379, 494.006126, -361.86496)" bx:origin="0 1"/>
<path d="M 340 -60 C 340 -56 339 -55 339 -55 C 338 -55 338 -65 339 -65 C 339 -65 340 -64 340 -60 Z" style="fill: rgb(170, 171, 175);"/>
<path d="M 288 -73 L 292 -74 L 292 -46 L 288 -47 L 288 -73 Z" style="fill: rgb(224, 225, 230);"/>
<path d="M 288 -73 L 282 -73 L 282 -47 L 288 -47 L 288 -73 Z" style="fill: rgb(75, 87, 63);"/>
<path d="M 282 -73 L 271 -73 L 271 -47 L 282 -47 L 282 -73 Z" style="fill: rgb(224, 225, 230);"/>
<path d="M 271 -73 L 266 -76 L 266 -44 L 271 -47 L 271 -73 Z" style="fill: rgb(75, 87, 63);"/>
<ellipse style="fill: rgb(216, 216, 216);" cx="329" cy="-65" rx="3" ry="2"/>
<rect x="271" width="21" height="7" style="fill: rgb(78, 76, 78);" y="-82"/>
<rect x="271" width="21" height="10" style="fill: rgb(78, 76, 78);" y="-93"/>
<rect x="271" width="21" height="14" style="fill: rgb(78, 76, 78);" y="-108"/>
<rect x="271" y="-45" width="21" height="7" style="fill: rgb(78, 76, 78);"/>
<rect x="271" width="21" height="10" style="fill: rgb(78, 76, 78);" y="-37"/>
<rect x="271" width="21" height="14" style="fill: rgb(78, 76, 78);" y="-26"/>
<path d="M 255 -60 C 255 -53 240 -52 240 -52 L 240 -68 C 240 -68 255 -67 255 -60 Z" style="fill: rgb(78, 76, 78);"/>
<path d="M 255 -76 L 253 -67 L 253 -53 L 255 -44 L 255 -76 Z" style="fill: rgb(75, 87, 63);"/>
<path d="M 266 -76 L 255 -79 L 255 -41 L 266 -44 L 266 -76 Z" style="fill: rgb(224, 225, 230);"/>
<path d="M 470 -60 C 470 -48 462 -48 456 -48 C 452 -48 449 -50 446 -53 C 442 -48 422 -46 422 -46 L 422 -74 C 422 -74 442 -72 446 -67 C 449 -70 452 -72 456 -72 C 462 -72 470 -72 470 -60 Z" style="fill: rgb(75, 87, 63);"/>
<path d="M 470 -60 C 470 -55 469 -54 469 -54 C 468 -54 468 -66 469 -66 C 469 -66 470 -65 470 -60 Z" style="fill: rgb(224, 225, 230);"/>
<path d="M 470 -60 C 470 -56 469 -55 469 -55 C 468 -55 468 -65 469 -65 C 469 -65 470 -64 470 -60 Z" style="fill: rgb(170, 171, 175);"/>
<path d="M 418 -73 L 422 -74 L 422 -46 L 418 -47 L 418 -73 Z" style="fill: rgb(224, 225, 230);"/>
<path d="M 418 -73 L 412 -73 L 412 -47 L 418 -47 L 418 -73 Z" style="fill: rgb(75, 87, 63);"/>
<path d="M 412 -73 L 401 -73 L 401 -47 L 412 -47 L 412 -73 Z" style="fill: rgb(224, 225, 230);"/>
<path d="M 401 -73 L 396 -76 L 396 -44 L 401 -47 L 401 -73 Z" style="fill: rgb(75, 87, 63);"/>
<ellipse style="fill: rgb(216, 216, 216);" cx="459" cy="-65" rx="3" ry="2"/>
<rect x="401" width="21" height="7" style="fill: rgb(78, 76, 78);" y="-82"/>
<rect x="401" width="21" height="10" style="fill: rgb(78, 76, 78);" y="-93"/>
<rect x="401" width="21" height="14" style="fill: rgb(78, 76, 78);" y="-108"/>
<rect x="401" y="-45" width="21" height="7" style="fill: rgb(78, 76, 78);"/>
<rect x="401" width="21" height="10" style="fill: rgb(78, 76, 78);" y="-37"/>
<rect x="401" width="21" height="14" style="fill: rgb(78, 76, 78);" y="-26"/>
<path d="M 385 -60 C 385 -53 370 -52 370 -52 L 370 -68 C 370 -68 385 -67 385 -60 Z" style="fill: rgb(78, 76, 78);"/>
<path d="M 385 -76 L 383 -67 L 383 -53 L 385 -44 L 385 -76 Z" style="fill: rgb(75, 87, 63);"/>
<path d="M 396 -76 L 385 -79 L 385 -41 L 396 -44 L 396 -76 Z" style="fill: rgb(224, 225, 230);"/>
<ellipse style="fill: rgb(170, 171, 175);" cx="473" cy="-60" rx="3" ry="6"/>
<g transform="matrix(1, 0, 0, 1, -230, -110)">
<polygon style="fill: rgba(216, 216, 216, 0.53);" points="9 70 21 76 33 77 46 76 50 82 56 79 62 80 72 75 78 76 83 73 77 79 73 77 63 83 58 81 48 84 44 78 37 79 20 77"/>
<polygon style="fill: rgba(216, 216, 216, 0.53);" points="2 55 10 61 19 62 22 66 38 67 43 70 55 69 40 72 37 68 23 68 17 64 9 63"/>
<polygon style="fill: rgba(216, 216, 216, 0.53);" points="87 84 83 84 79 83 74 87 63 88 76 88 80 85 85 86"/>
<polygon style="fill: rgba(216, 216, 216, 0.53);" points="9 79 18 84 26 85 28 87 35 89 43 87 49 89 43 89 33 91 26 87 18 86 15 86"/>
<polygon style="fill: rgba(216, 216, 216, 0.53);" points="41 94 50 93 54 95 60 93 66 94 73 91 65 96 59 96 52 97 47 95 38 96 30 92"/>
<polygon style="fill: rgba(216, 216, 216, 0.53);" points="10 36 17 45 28 47 33 52 42 51 49 55 56 54 48 53 39 49 33 50 26 44 18 43"/>
<polygon style="fill: rgba(216, 216, 216, 0.53);" points="6 26 12 30 21 32 24 37 30 39 25 35 21 30 13 28 9 21"/>
<polygon style="fill: rgba(216, 216, 216, 0.53);" points="15 16 20 22 26 23 31 29 47 30 56 34 66 30 56 32 43 27 32 28 28 20 21 21"/>
<polygon style="fill: rgba(216, 216, 216, 0.53);" points="73 46 81 47 85 44 94 44 99 40 100 46 87 45 81 49"/>
<polygon style="fill: rgba(216, 216, 216, 0.53);" points="57 61 71 58 81 60 90 55 96 56 90 57 81 62 70 60"/>
<polygon style="fill: rgba(216, 216, 216, 0.53);" points="86 15 81 21 73 23 71 26 77 23 84 23 88 17"/>
<polygon style="fill: rgba(216, 216, 216, 0.53);" points="21 9 26 12 34 12 39 16 47 14 39 14 33 10 29 10 28 5"/>
<polygon style="fill: rgba(216, 216, 216, 0.53);" points="67 3 63 7 54 9 65 8 73 5"/>
<polygon style="fill: rgba(216, 216, 216, 0.53);" points="33 3 40 7 49 5 41 5 39 1"/>
<polygon style="fill: rgba(216, 216, 216, 0.53);" points="53 47 62 45 69 40 79 40 87 31 78 38 67 38 61 43"/>
<polygon style="fill: rgba(216, 216, 216, 0.53);" points="0 45 8 44 14 47 18 50 26 50 32 57 26 52 18 53 12 47 6 46 0 49"/>
</g>
<polygon style="fill: rgb(216, 216, 216); stroke: rgb(0, 0, 0);" points="-7 92"/>
<polygon style="fill: rgb(216, 216, 216);" points="87 15"/>
<circle style="fill: rgb(10, 140, 200);" r="50" cy="-60" cx="-70"/>
<g>
<path d="M -40 -46 L -40 -48 L -40 -50 L -41 -53 L -41 -56 L -42 -60 L -45 -63 L -48 -64 L -49 -66 L -52 -68 L -55 -66 L -57 -67 L -63 -65 L -63 -60 L -65 -59 L -66 -54 L -72 -51 L -77 -52 L -81 -54 L -84 -52 L -88 -54 L -89 -59 L -92 -60 L -95 -59 L -99 -61 L -103 -62 L -106 -63 L -109 -60 L -108 -54 L -105 -48 L -105 -47 L -102 -43 L -101 -36 L -96 -33 L -90 -29 L -89 -23 L -82 -17 L -82 -21 L -77 -22 L -75 -23 L -72 -22 L -70 -23 L -69 -22 L -67 -23 L -62 -23 L -68 -21 L -76 -20 L -79 -21 L -79 -16 L -77 -12 L -75 -13 L -72 -14 L -71 -12 L -71 -15 L -66 -15 L -70 -13 L -70 -11 L -72 -12 L -74 -11 L -78 -11 C -78 -11 -51 -4 -32 -28 L -31 -34 L -36 -31 L -34 -33 L -35 -37 L -34 -39 L -32 -42 L -35 -40 L -37 -41 L -34 -44 L -36 -47 L -37 -48 L -39 -47 L -40 -44 L -40 -42 L -39 -40 L -39 -39 L -38 -38 L -40 -36 L -40 -35 L -42 -34 L -43 -33 L -45 -31 L -48 -28 L -50 -28 L -49 -26 L -50 -24 L -48 -25 L -46 -23 L -46 -22 L -49 -21 L -47 -20 L -49 -19 L -50 -20 L -53 -18 L -54 -19 L -51 -22 L -50 -23 L -50 -25 L -52 -24 L -54 -23 L -55 -23 L -55 -21 L -58 -21 L -59 -22 L -58 -24 L -54 -28 L -53 -30 L -54 -30 L -53 -33 L -50 -34 L -47 -34 L -43 -39 L -42 -42 L -41 -45 L -40 -46 Z" style="fill: rgb(124, 150, 134);"/>
<polygon style="fill: rgb(124, 150, 134);" points="-109 -43 -106 -40 -105 -38 -103 -37 -103 -35 -101 -31 -106 -37"/>
<path d="M -86 -107 L -81 -107 L -77 -106 L -73 -103 L -71 -103 L -71 -100 L -67 -96 L -63 -95 L -61 -92 L -57 -91 L -56 -92 L -54 -92 L -53 -95 L -49 -95 L -47 -95 L -44 -93 L -43 -96 L -37 -95 L -35 -96 C -49 -109 -67 -114 -86 -107 Z" style="fill: rgb(124, 150, 134);"/>
<polygon style="fill: rgb(124, 150, 134);" points="-32 -40 -33 -38 -34 -37 -30 -37 -29 -38 -32 -38"/>
<polygon style="fill: rgb(124, 150, 134);" points="-29 -42 -31 -41 -29 -40"/>
</g>
<g>
<polygon style="fill: rgb(138, 191, 216);" points="-66 -105 -77 -98 -84 -88 -90 -76 -97 -76 -98 -69 -102 -65 -103 -54 -107 -49 -107 -43 -109 -51 -105 -54 -105 -66 -101 -69 -98 -79 -91 -79 -88 -86 -78 -99"/>
<polygon style="fill: rgb(138, 191, 216);" points="-50 -104 -59 -100 -64 -93 -69 -92 -78 -79 -84 -76 -89 -66 -84 -80 -79 -81 -72 -93 -65 -96 -60 -102"/>
<polygon style="fill: rgb(138, 191, 216);" points="-117 -43 -116 -49 -113 -52 -114 -58 -109 -68 -116 -57 -115 -52 -119 -49"/>
<polygon style="fill: rgb(138, 191, 216);" points="-74 -110 -82 -105 -87 -99 -90 -98 -96 -93 -98 -85 -103 -81 -100 -86 -96 -96 -89 -100 -84 -106 -81 -109"/>
<polygon style="fill: rgb(138, 191, 216);" points="-103 -90 -107 -82 -111 -79 -112 -73 -116 -69 -117 -61 -117 -70 -114 -76 -111 -82 -107 -85 -103 -94 -96 -98"/>
<polygon style="fill: rgb(138, 191, 216);" points="-37 -87 -48 -86 -56 -78 -63 -76 -66 -68 -73 -64 -76 -57 -71 -64 -63 -69 -61 -75 -52 -78 -47 -84"/>
<polygon style="fill: rgb(138, 191, 216);" points="-26 -84 -33 -82 -39 -75 -45 -75 -50 -71 -44 -74 -38 -74 -32 -80 -24 -80"/>
<polygon style="fill: rgb(138, 191, 216);" points="-23 -72 -30 -71 -34 -66 -42 -65 -51 -52 -59 -46 -61 -36 -57 -45 -47 -54 -42 -64 -33 -63 -30 -70"/>
<polygon style="fill: rgb(138, 191, 216);" points="-79 -38 -84 -32 -83 -27 -88 -19 -87 -13 -92 -15 -85 -25 -86 -33"/>
<polygon style="fill: rgb(138, 191, 216);" points="-83 -59 -87 -46 -94 -38 -94 -28 -98 -24 -96 -29 -96 -39 -88 -48"/>
<polygon style="fill: rgb(138, 191, 216);" points="-56 -12 -61 -18 -58 -26 -60 -30 -60 -23 -64 -17 -61 -11"/>
<polygon style="fill: rgb(138, 191, 216);" points="-20 -64 -25 -61 -29 -54 -35 -52 -38 -44 -34 -51 -27 -54 -25 -58 -20 -56"/>
<polygon style="fill: rgb(138, 191, 216);" points="-39 -21 -40 -27 -37 -36 -42 -26 -43 -18"/>
<polygon style="fill: rgb(138, 191, 216);" points="-21 -50 -28 -46 -31 -38 -27 -45 -22 -46"/>
<polygon style="fill: rgb(138, 191, 216);" points="-69 -56 -72 -47 -71 -38 -77 -30 -73 -18 -74 -30 -69 -39 -70 -47"/>
<polygon style="fill: rgb(138, 191, 216);" points="-40 -100 -43 -93 -49 -89 -54 -88 -58 -81 -67 -79 -59 -82 -56 -89 -48 -91 -44 -96 -43 -102"/>
</g>
<path d="M 90 50 C 90 62 82 62 76 62 C 72 62 69 60 66 57 C 62 62 42 64 42 64 L 42 36 C 42 36 62 38 66 43 C 69 40 72 38 76 38 C 82 38 90 38 90 50 Z" style="fill: rgb(75, 87, 63);"/>
<path d="M 38 37 L 42 36 L 42 64 L 38 63 L 38 37 Z" style="fill: rgb(224, 225, 230);"/>
<path d="M 38 37 L 32 37 L 32 63 L 38 63 L 38 37 Z" style="fill: rgb(75, 87, 63);"/>
<path d="M 32 37 L 20 37 L 20 63 L 32 63 L 32 37 Z" style="fill: rgb(224, 225, 230);"/>
<path d="M 20 37 L 14 33 L 14 67 L 20 63 L 20 37 Z" style="fill: rgb(75, 87, 63);"/>
<rect x="21" width="21" height="7" style="fill: rgb(78, 76, 78);" y="28"/>
<rect x="21" width="21" height="10" style="fill: rgb(78, 76, 78);" y="17"/>
<rect x="21" width="21" height="14" style="fill: rgb(78, 76, 78);" y="2"/>
<rect x="21" y="65" width="21" height="7" style="fill: rgb(78, 76, 78);"/>
<rect x="21" width="21" height="10" style="fill: rgb(78, 76, 78);" y="73"/>
<rect x="21" width="21" height="14" style="fill: rgb(78, 76, 78);" y="84"/>
<path d="M 90 50 C 90 55 89 56 89 56 C 88 56 88 44 89 44 C 89 44 90 45 90 50 Z" style="fill: rgb(224, 225, 230);"/>
<rect width="100" height="100" style="fill: rgb(61, 69, 50);" y="-441"/>
<path d="M 75 -390 C 75 -378 67 -378 61 -378 C 57 -378 54 -380 51 -383 C 49 -381 44 -379 39 -378 L 39 -402 C 44 -401 49 -399 51 -397 C 54 -400 57 -402 61 -402 C 67 -402 75 -402 75 -390 Z" style="fill: rgb(75, 87, 63);"/>
<path d="M 220 50 C 220 62 212 62 206 62 C 202 62 199 60 196 57 C 192 62 172 64 172 64 L 172 36 C 172 36 192 38 196 43 C 199 40 202 38 206 38 C 212 38 220 38 220 50 Z" style="fill: rgb(75, 87, 63);"/>
<path d="M 168 37 L 172 36 L 172 64 L 168 63 L 168 37 Z" style="fill: rgb(224, 225, 230);"/>
<path d="M 168 37 L 162 37 L 162 63 L 168 63 L 168 37 Z" style="fill: rgb(75, 87, 63);"/>
<path d="M 162 37 L 150 37 L 150 63 L 162 63 L 162 37 Z" style="fill: rgb(224, 225, 230);"/>
<path d="M 150 37 L 144 33 L 144 67 L 150 63 L 150 37 Z" style="fill: rgb(75, 87, 63);"/>
<rect x="151" width="21" height="7" style="fill: rgb(78, 76, 78);" y="28"/>
<rect x="151" width="21" height="10" style="fill: rgb(78, 76, 78);" y="17"/>
<rect x="151" width="21" height="14" style="fill: rgb(78, 76, 78);" y="2"/>
<rect x="151" y="65" width="21" height="7" style="fill: rgb(78, 76, 78);"/>
<rect x="151" width="21" height="10" style="fill: rgb(78, 76, 78);" y="73"/>
<rect x="151" width="21" height="14" style="fill: rgb(78, 76, 78);" y="84"/>
<path d="M 220 50 C 220 55 219 56 219 56 C 218 56 218 44 219 44 C 219 44 220 45 220 50 Z" style="fill: rgb(224, 225, 230);"/>
<polygon style="fill: rgb(78, 76, 78);" points="172 36 174 33 177 34 178 37"/>
<circle style="fill: rgb(38, 37, 38);" cx="175" cy="35" r="1"/>
<polygon style="fill: rgb(78, 76, 78);" points="172 64 174 67 177 66 178 63"/>
<circle style="fill: rgb(38, 37, 38);" cx="175" cy="65" r="1"/>
<circle style="stroke: rgb(50, 59, 42); fill: rgb(37, 36, 37);" cx="56" r="3" cy="50"/>
<path d="M 90 50 C 90 55 89 56 89 56 C 88 56 88 44 89 44 C 89 44 90 45 90 50 Z" style="fill: rgb(224, 225, 230);"/>
<path d="M 111 49 C 111 54 110 55 110 55 C 109 55 109 43 110 43 C 110 43 111 44 111 49 Z" style="fill: rgb(224, 225, 230);" transform="matrix(-0.587379, 0.809312, -0.809312, -0.587379, 217.933308, -1.111505)" bx:origin="0 1"/>
<path d="M 110 50 C 110 54 109 55 109 55 C 108 55 108 45 109 45 C 109 45 110 46 110 50 Z" style="fill: rgb(170, 171, 175);"/>
<rect width="100" height="100" style="fill: rgb(61, 69, 50);" y="-331"/>
<path d="M 96 -280 C 96 -251 77 -251 62 -251 C 53 -251 46 -254 39 -261 L 35 -261 C 29 -257 14 -253 4 -251 L 4 -309 C 14 -307 29 -303 35 -299 L 39 -299 C 46 -306 53 -309 62 -309 C 77 -309 96 -309 96 -280 Z" style="fill: rgb(202, 203, 207); stroke: rgb(75, 87, 63); stroke-width: 2px;"/>
<path d="M 34 -291 L 40 -291 C 41 -301 55 -306 62 -306 C 78 -306 93 -304 93 -280 C 93 -256 78 -254 62 -254 C 55 -254 41 -259 40 -269 L 34 -269 C 34 -261 9 -254 5 -254 L 5 -306 C 9 -306 34 -299 34 -291 Z" style="fill: rgb(224, 225, 230);"/>
<rect y="-291" width="9" height="22" style="fill: rgb(61, 69, 50);" x="39"/>
<ellipse style="fill: rgb(202, 203, 207);" cx="46" cy="-280" rx="7" ry="10"/>
<ellipse style="fill: rgb(224, 225, 230);" cx="47" cy="-280" rx="6" ry="9"/>
<circle style="fill: rgb(10, 140, 200); stroke-width: 2px; stroke: rgb(202, 203, 207);" cx="20" cy="-280" r="5"/>
<rect x="35" y="-291" width="4" height="22" style="fill: rgb(191, 192, 196);"/>
<polygon style="fill: rgb(169, 169, 169);" points="34 -266 34 -273 22 -268 27 -261"/>
<polygon style="fill: rgb(169, 169, 169);" points="11 -300 7 -291 10 -269 16 -267 14 -261 5 -256 5 -304"/>
<polygon style="fill: rgb(169, 169, 169);" points="34 -291 21 -298 23 -301 33 -295"/>
<line style="fill: none; stroke: rgb(216, 27, 27);" x1="37" y1="-269" x2="37" y2="-291"/>
<line style="fill: none; stroke: rgb(202, 203, 207);" x1="70" y1="-254" x2="70" y2="-306"/>
<g style="" transform="matrix(0.452857, 0, 0, 0.452857, 25.23271, -263.472595)">
<polygon style="fill: rgb(201, 158, 147);" points="92 -81 84 -83 83 -77 84 -69 90 -69 89 -64 98 -64 97 -71"/>
<polygon style="fill: rgb(252, 252, 252);" points="114 -2 117 4 120 2 119 -5 115 -7"/>
<polygon style="fill: rgb(201, 158, 147);" points="64 -47 58 -47 57 -45 62 -44 60 -42 65 -44"/>
<polygon style="fill: rgb(201, 158, 147);" points="121 -47 123 -42 123 -39 120 -42 119 -40 118 -46"/>
<polygon style="fill: rgb(252, 252, 252);" points="92 0 89 6 92 7 97 2 96 -1"/>
<polygon style="fill: rgb(53, 165, 202);" points="98 -67 88 -66 80 -62 75 -52 63 -47 65 -44 79 -47 84 -56 85 -39 83 -18 91 0 97 0 92 -19 94 -33 102 -18 114 -3 118 -6 109 -23 103 -39 104 -57 111 -54 118 -45 121 -47 115 -58 105 -65"/>
<polygon style="fill: rgb(193, 53, 73);" points="83 -83 92 -85 97 -83 97 -71 91 -74 91 -78 89 -80 88 -75 86 -76 86 -80"/>
</g>
<polygon style="fill: rgb(75, 87, 63);" points="47 -302 41 -297 40 -291 52 -291 52 -301 59 -301 62 -306 56 -306"/>
<polygon style="fill: rgb(75, 87, 63);" points="47 -258 41 -263 40 -269 55 -269 61 -259 61 -254 56 -254"/>
<rect width="100" height="100" style="fill: rgb(61, 69, 50);" y="-221"/>
<path d="M 96 -170 C 96 -141 77 -141 62 -141 C 53 -141 46 -144 39 -151 L 35 -151 C 29 -147 14 -143 4 -141 L 4 -199 C 14 -197 29 -193 35 -189 L 39 -189 C 46 -196 53 -199 62 -199 C 77 -199 96 -199 96 -170 Z" style="fill: rgb(202, 203, 207); stroke: rgb(75, 87, 63); stroke-width: 2px;"/>
<path d="M 34 -181 L 40 -181 C 41 -191 55 -196 62 -196 C 78 -196 93 -194 93 -170 C 93 -146 78 -144 62 -144 C 55 -144 41 -149 40 -159 L 34 -159 C 34 -151 9 -144 5 -144 L 5 -196 C 9 -196 34 -189 34 -181 Z" style="fill: rgb(224, 225, 230);"/>
<rect y="-181" width="9" height="22" style="fill: rgb(61, 69, 50);" x="39"/>
<ellipse style="fill: rgb(202, 203, 207);" cx="47" cy="-170" rx="7" ry="10"/>
<ellipse style="fill: rgb(240, 241, 246);" cx="48" cy="-170" rx="6" ry="9"/>
<circle style="fill: rgb(10, 140, 200); stroke-width: 2px; stroke: rgb(202, 203, 207);" cx="20" cy="-170" r="5"/>
<rect x="35" y="-181" width="4" height="22" style="fill: rgb(240, 241, 246);"/>
<polygon style="fill: rgb(169, 169, 169);" points="11 -190 7 -181 10 -159 16 -157 14 -151 5 -146 5 -194"/>
<line style="fill: none; stroke: rgb(202, 203, 207);" x1="37" y1="-159" x2="37" y2="-181"/>
<line style="fill: none; stroke: rgb(202, 203, 207);" x1="70" y1="-144" x2="70" y2="-196"/>
<g style="" transform="matrix(0.452857, 0, 0, 0.452857, 24.326307, -151.835602)">
<polygon style="fill: rgb(201, 158, 147);" points="92 -81 84 -83 83 -77 84 -69 90 -69 89 -64 98 -64 97 -71"/>
<polygon style="fill: rgb(252, 252, 252);" points="114 -2 117 4 120 2 119 -5 115 -7"/>
<polygon style="fill: rgb(201, 158, 147);" points="64 -47 58 -47 57 -45 62 -44 60 -42 65 -44"/>
<polygon style="fill: rgb(201, 158, 147);" points="121 -47 123 -42 123 -39 120 -42 119 -40 118 -46"/>
<polygon style="fill: rgb(252, 252, 252);" points="92 0 89 6 92 7 97 2 96 -1"/>
<polygon style="fill: rgb(53, 165, 202);" points="98 -67 88 -66 80 -62 75 -52 63 -47 65 -44 79 -47 84 -56 85 -39 83 -18 91 0 97 0 92 -19 94 -33 102 -18 114 -3 118 -6 109 -23 103 -39 104 -57 111 -54 118 -45 121 -47 115 -58 105 -65"/>
<polygon style="fill: rgb(193, 53, 73);" points="83 -83 92 -85 97 -83 97 -71 91 -74 91 -78 89 -80 88 -75 86 -76 86 -80"/>
</g>
<ellipse style="fill: rgb(169, 169, 169);" cx="89" cy="-170" rx="5" ry="16"/>
<path d="M 59 -191 L 52 -191 L 52 -181 L 40 -181 L 40 -182 C 42 -191 55 -196 62 -196 Z" style="fill: rgb(75, 87, 63);"/>
<path d="M 55 -159 L 61 -149 L 61 -144 C 54 -144 42 -149 40 -158 L 40 -159 Z" style="fill: rgb(75, 87, 63);"/>
<path d="M 21 -188 L 23 -191 C 29 -188 34 -185 34 -181 Z" style="fill: rgb(169, 169, 169);"/>
<path d="M 24 -157 L 31 -167 L 34 -159 C 34 -156 31 -154 27 -151 L 24 -157 Z" style="fill: rgb(169, 169, 169);"/>
<rect width="100" height="100" style="fill: rgb(61, 69, 50);" y="-111"/>
<path d="M 61 -31 C 52 -31 45 -34 38 -41 L 34 -41 C 28 -37 13 -33 3 -31 L 3 -89 C 13 -87 28 -83 34 -79 L 38 -79 C 45 -86 52 -89 61 -89 C 72 -89 86 -89 92 -76 C 95 -76 97 -69 97 -60 C 97 -51 95 -44 92 -44 C 86 -31 72 -31 61 -31 Z" style="fill: rgb(202, 203, 207); stroke: rgb(75, 87, 63); stroke-width: 2px;"/>
<path d="M 33 -71 L 39 -71 C 40 -81 54 -86 61 -86 C 77 -86 92 -84 92 -60 C 92 -36 77 -34 61 -34 C 54 -34 40 -39 39 -49 L 33 -49 C 33 -41 8 -34 4 -34 L 4 -86 C 8 -86 33 -79 33 -71 Z" style="fill: rgb(224, 225, 230);"/>
<rect y="-71" width="9" height="22" style="fill: rgb(61, 69, 50);" x="38"/>
<ellipse style="fill: rgb(202, 203, 207);" cx="46" cy="-60" rx="7" ry="10"/>
<ellipse style="fill: rgb(240, 241, 246);" cx="47" cy="-60" rx="6" ry="9"/>
<circle style="fill: rgb(10, 140, 200); stroke-width: 2px; stroke: rgb(202, 203, 207);" cx="19" cy="-60" r="5"/>
<rect x="34" y="-71" width="4" height="22" style="fill: rgb(240, 241, 246);"/>
<polygon style="fill: rgb(169, 169, 169);" points="10 -80 6 -71 9 -47 18 -50 10 -39 4 -36 4 -84"/>
<line style="fill: none; stroke: rgb(202, 203, 207);" x1="36" y1="-49" x2="36" y2="-71"/>
<line style="fill: none; stroke: rgb(202, 203, 207);" x1="69" y1="-34" x2="69" y2="-86"/>
<path d="M 58 -81 L 51 -81 L 49 -71 L 39 -71 L 39 -72 C 41 -81 54 -86 61 -86 L 58 -81 Z" style="fill: rgb(75, 87, 63);"/>
<path d="M 54 -49 L 60 -39 L 60 -34 C 53 -34 41 -39 39 -48 L 39 -49 Z" style="fill: rgb(75, 87, 63);"/>
<path d="M 20 -78 L 22 -81 C 28 -78 33 -75 33 -71 Z" style="fill: rgb(169, 169, 169);"/>
<path d="M 24 -47 L 30 -57 L 33 -49 C 33 -46 30 -44 26 -41 L 24 -47 Z" style="fill: rgb(169, 169, 169);"/>
<path d="M 91 -73 C 93 -73 93 -47 91 -47 C 89 -47 87 -52 87 -60 C 87 -68 89 -73 91 -73 Z" style="fill: rgb(240, 241, 246);"/>
<rect x="369" y="368" width="66" height="89" style="fill: rgb(255, 255, 255);"/>
<rect x="369" y="361" width="66" height="12" style="fill: rgb(223, 223, 223);"/>
<polygon style="fill: rgb(190, 190, 190);" points="39 180 60 183 64 173 63 144 56 141"/>
<ellipse style="fill: rgb(216, 216, 216);" cx="47" cy="135" rx="12" ry="14"/>
<path d="M 57 142 L 58 148 L 73 157 L 78 171 L 72 173 L 68 164 L 59 160 L 60 174 L 56 182 L 57 192 L 68 202 L 65 214 L 60 214 L 60 205 L 50 198 L 45 187 L 41 197 L 49 209 L 47 215 L 44 220 L 39 219 L 40 211 L 32 197 L 35 178 L 35 171 L 36 161 L 31 164 L 24 172 L 20 169 L 26 156 L 36 149 L 40 148 L 41 145 L 57 142 Z" style="fill: rgb(216, 216, 216);"/>
<polygon style="fill: rgb(190, 190, 190);" points="24 172 23 177 21 176 20 180 17 179 17 173 20 169"/>
<polygon style="fill: rgb(190, 190, 190);" points="72 173 72 178 74 178 74 182 77 182 79 175 78 171"/>
<ellipse style="fill: rgb(233, 233, 233);" cx="58" cy="136" rx="2" ry="4"/>
<path d="M 58 135 C 58 141 54 145 46 145 C 38 145 34 141 34 135 C 34 129 40 127 46 127 C 54 127 58 129 58 135 Z" style="fill: rgb(233, 233, 233);"/>
<path d="M 56 135 C 56 142 52 144 46 144 C 40 144 36 142 36 135 C 36 128 41 128 46 128 C 52 128 56 128 56 135 Z" style="fill: rgb(206, 181, 107);"/>
</svg>