<?xml version="1.0" encoding="utf-8"?>
<svg viewBox="0 0 100 100" xmlns="http://www.w3.org/2000/svg" xmlns:bx="https://boxy-svg.com">
<defs>
<linearGradient gradientUnits="userSpaceOnUse" x1="50" y1="27" x2="50" y2="58" id="gradient-0" gradientTransform="matrix(1, 0, 0, 1, 0, -110)">
<stop offset="0" style="stop-color: rgba(216, 184, 68, 0.36);"/>
<stop offset="1" style="stop-color: rgba(216, 184, 68, 0);"/>
</linearGradient>
</defs>
<circle style="fill: rgb(40, 130, 220);" r="50" cx="-180" cy="-180"/>
<g transform="matrix(1, 0, 0, 1, -230, -230)">
<path d="M 46 17 L 45 18 L 43 19 L 41 21 L 41 22 L 38 23 L 36 26 L 34 30 L 35 33 L 34 35 L 34 39 L 37 40 L 37 42 L 42 46 L 46 44 L 48 45 L 53 43 L 59 47 L 60 52 L 61 56 L 64 58 L 64 62 L 61 66 L 61 69 L 64 71 L 64 75 L 65 79 L 66 82 L 70 83 L 75 79 L 78 74 L 79 73 L 81 69 L 86 64 L 86 58 L 87 51 L 91 47 L 93 38 L 89 40 L 86 36 L 84 35 L 84 32 L 82 31 L 82 29 L 80 28 L 78 24 L 82 28 L 87 34 L 88 38 L 92 35 L 94 31 L 93 30 L 91 28 L 91 26 L 89 28 L 86 23 L 90 26 L 92 25 L 92 27 L 94 28 L 96 31 C 96 31 88 6 59 1 L 52 3 L 57 6 L 54 5 L 51 8 L 49 8 L 46 8 L 49 10 L 49 12 L 45 11 L 43 14 L 43 16 L 45 17 L 48 16 L 50 15 L 51 13 L 52 13 L 52 11 L 55 12 L 56 11 L 58 12 L 59 13 L 62 14 L 66 15 L 67 16 L 68 15 L 70 14 L 69 13 L 69 10 L 70 10 L 73 12 L 72 10 L 74 11 L 74 12 L 77 14 L 77 15 L 73 14 L 71 14 L 70 15 L 71 16 L 73 17 L 74 18 L 76 17 L 77 19 L 77 21 L 74 21 L 69 20 L 67 20 L 67 21 L 64 21 L 62 19 L 60 17 L 54 16 L 51 16 L 48 17 L 46 17 Z" style="fill: rgb(134, 155, 112);"/>
<polygon style="fill: rgb(134, 155, 112);" points="85 74 86 70 87 69 87 66 89 65 91 62 89 69"/>
<path d="M 18 88 L 15 84 L 14 80 L 14 75 L 13 73 L 16 71 L 17 66 L 16 62 L 18 59 L 17 55 L 15 55 L 14 53 L 11 53 L 9 50 L 8 48 L 8 45 L 5 45 L 3 40 L 1 40 C -2 55 2 75 18 88 Z" style="fill: rgb(134, 155, 112);"/>
<polygon style="fill: rgb(134, 155, 112);" points="48 7 50 7 51 7 49 4 48 4 49 6"/>
<polygon style="fill: rgb(134, 155, 112);" points="45 6 47 7 46 5"/>
</g>
<path style="fill: rgb(225, 186, 167);" d="M 65 25"/>
<path style="fill: rgb(216, 216, 216);" d="M 62 21"/>
<path style="fill: rgb(216, 216, 216);" d="M 59 20"/>
<polygon style="fill: rgb(216, 216, 216); stroke: rgb(0, 0, 0);" points="-64 29"/>
<polygon style="fill: rgb(216, 216, 216); stroke: rgb(0, 0, 0);" points="-74 35"/>
<polygon style="fill: rgb(216, 216, 216); stroke: rgb(0, 0, 0);" points="46 25"/>
<polygon style="fill: rgb(216, 216, 216); stroke: rgb(0, 0, 0);" points="35 24"/>
<polygon style="fill: rgb(201, 158, 147);" points="464 129 456 127 455 133 456 141 462 141 461 146 470 146 469 139"/>
<polygon style="fill: rgb(255, 255, 255);" points="486 208 489 214 492 212 491 205 487 203"/>
<polygon style="fill: rgb(201, 158, 147);" points="436 163 430 163 429 165 434 166 432 168 437 166"/>
<polygon style="fill: rgb(201, 158, 147);" points="493 163 495 168 495 171 492 168 491 170 490 164"/>
<polygon style="fill: rgb(255, 255, 255);" points="464 210 461 216 464 217 469 212 468 209"/>
<polygon style="fill: rgb(53, 165, 202);" points="470 143 460 144 452 148 447 158 435 163 437 166 451 163 456 154 457 171 455 192 463 210 469 210 464 191 466 177 474 192 486 207 490 204 481 187 475 171 476 153 483 156 490 165 493 163 487 152 477 145"/>
<polygon style="fill: rgb(193, 53, 73);" points="455 127 464 125 469 127 469 139 463 136 463 132 461 130 460 135 458 134 458 130"/>
<polygon style="fill: rgb(201, 158, 147);" points="554 129 544 127 542 135 545 141 549 141 548 146 557 146 556 139"/>
<polygon style="fill: rgb(53, 165, 202);" points="542 145 529 153 521 169 527 172 533 159 543 154 544 171 542 192 550 210 557 210 551 191 553 177 561 192 572 208 578 204 568 187 564 171 564 154 575 157 583 167 588 162 578 150 561 144"/>
<polygon style="fill: rgb(43, 12, 16);" points="542 127 551 125 556 127 556 139 554 137 554 132 552 131 552 134 550 133 551 130"/>
<polygon style="fill: rgb(201, 158, 147);" points="634 129 624 127 622 136 625 141 629 141 628 146 637 146 636 139"/>
<polygon style="fill: rgb(216, 216, 216);" points="623 127 632 125 637 128 636 139 634 136 634 132 632 131 631 135 630 141 625 142 623 138 629 135 630 130"/>
<polygon style="fill: rgb(53, 165, 202);" points="622 145 609 153 601 169 607 172 613 159 623 154 624 171 622 192 630 210 637 210 631 191 633 177 641 192 652 208 658 204 648 187 644 171 644 154 655 157 663 167 668 162 658 150 641 144"/>
<polygon style="fill: rgb(201, 158, 147);" points="714 129 704 127 702 136 705 141 709 141 708 146 717 146 716 139"/>
<polygon style="fill: rgb(149, 57, 32);" points="703 127 712 125 717 128 716 139 714 136 714 132 712 131 711 135 710 141 705 142 703 138 709 135 710 130"/>
<polygon style="fill: rgb(53, 165, 202);" points="702 145 689 153 681 169 687 172 693 159 703 154 704 171 702 192 710 210 717 210 711 191 713 177 721 192 732 208 738 204 728 187 724 171 724 154 735 157 743 167 748 162 738 150 721 144"/>
<polygon style="fill: rgb(201, 158, 147);" points="-33 301 -34 307 -36 308 -36 304 -38 304 -35 299"/>
<polygon style="fill: rgb(201, 158, 147);" points="-65 299 -65 305 -63 307 -63 302 -61 302 -63 298"/>
<ellipse style="fill: rgba(0, 0, 0, 0.2);" cx="-48" cy="335" rx="18" ry="3"/>
<polygon style="fill: rgb(43, 12, 16);" points="-42 329 -38 330 -33 335 -35 336 -39 336 -43 333"/>
<polygon style="fill: rgb(43, 12, 16);" points="-53 329 -57 330 -62 335 -60 336 -56 336 -52 333"/>
<polygon style="fill: rgb(53, 165, 202);" points="-45 265 -55 266 -63 269 -67 285 -65 299 -62 299 -62 286 -59 277 -58 294 -60 314 -59 331 -52 330 -52 314 -49 299 -45 314 -44 330 -36 331 -37 314 -40 294 -39 276 -37 286 -36 300 -33 301 -32 285 -35 269"/>
<polygon style="fill: rgb(201, 158, 147);" points="-48 250 -58 248 -60 256 -57 262 -53 262 -54 267 -50 270 -45 267 -46 260"/>
<polygon style="fill: rgb(193, 53, 73);" points="-60 248 -51 246 -46 248 -46 260 -48 258 -48 253 -50 252 -50 255 -52 254 -51 251"/>
<polygon style="fill: rgb(201, 158, 147);" points="156 178 154 184 152 185 153 181 151 181 154 177"/>
<polygon style="fill: rgb(201, 158, 147);" points="124 179 125 185 127 187 127 182 129 182 127 179"/>
<ellipse style="fill: rgba(0, 0, 0, 0.2);" cx="139" cy="214" rx="18" ry="3"/>
<polygon style="fill: rgb(43, 12, 16);" points="144 208 148 209 153 214 151 215 147 214 143 212"/>
<polygon style="fill: rgb(43, 12, 16);" points="134 208 130 209 125 214 127 215 131 214 135 212"/>
<polygon style="fill: rgb(85, 84, 87);" points="136 144 146 145 154 149 158 164 156 178 153 178 153 165 150 156 149 173 151 193 150 210 143 209 143 193 140 178 136 193 135 209 127 210 128 193 131 173 130 155 128 165 127 179 124 180 123 164 126 148"/>
<polygon style="fill: rgb(201, 158, 147);" points="142 129 132 127 130 136 133 141 137 141 136 146 140 154 145 146 144 139"/>
<polygon style="fill: rgb(216, 216, 216);" points="131 127 140 125 145 128 144 139 142 136 142 132 140 131 139 135 138 141 133 142 131 138 137 135 138 130"/>
<ellipse style="fill: rgba(0, 0, 0, 0.2);" cx="139" cy="334" rx="18" ry="3"/>
<polygon style="fill: rgb(43, 12, 16);" points="144 328 148 329 153 334 151 335 148 335 143 332"/>
<polygon style="fill: rgb(43, 12, 16);" points="134 328 130 329 125 334 127 335 130 335 135 332"/>
<path d="M 131 293 L 140 280 L 149 293 L 151 313 L 149 330 L 143 329 L 143 313 L 140 298 L 136 313 L 135 329 L 129 330 L 128 313 L 131 293 Z" style="fill: rgb(19, 27, 55);"/>
<polygon style="fill: rgb(201, 158, 147);" points="156 299 154 305 152 306 153 302 151 302 154 298"/>
<polygon style="fill: rgb(201, 158, 147);" points="124 299 125 305 127 307 127 302 129 302 127 299"/>
<path d="M 136 265 L 145 265 L 154 270 L 158 285 L 156 299 L 153 298 L 153 286 L 150 278 L 150 293 L 151 308 L 144 307 L 140 294 L 136 307 L 128 308 L 130 292 L 130 278 L 128 286 L 127 299 L 124 300 L 123 285 L 126 269 L 136 265 Z" style="fill: rgb(85, 84, 87);"/>
<polygon style="fill: rgb(19, 27, 55);" points="137 263 133 265 136 269 134 274 140 291 146 274 145 269 148 265 144 263"/>
<polygon style="fill: rgb(201, 158, 147);" points="142 249 133 248 131 256 133 261 137 261 136 266 140 274 145 266 144 259"/>
<polygon style="fill: rgb(19, 27, 55);" points="131 248 139 245 145 248 144 259 142 256 142 252 140 251 139 255 138 261 133 262 131 257 137 255 138 250"/>
<ellipse style="fill: rgba(0, 0, 0, 0.2);" cx="209" cy="334" rx="18" ry="3"/>
<polygon style="fill: rgb(43, 12, 16);" points="214 328 218 329 223 334 221 335 217 334 213 332"/>
<polygon style="fill: rgb(43, 12, 16);" points="204 328 200 329 195 334 197 335 201 334 205 332"/>
<path d="M 201 293 L 219 293 L 221 313 L 219 330 L 213 329 L 213 313 L 210 298 L 206 313 L 205 329 L 199 329 L 198 313 L 201 293 Z" style="fill: rgb(90, 90, 90);"/>
<polygon style="fill: rgb(201, 158, 147);" points="226 299 224 305 222 306 223 302 221 302 224 298"/>
<polygon style="fill: rgb(201, 158, 147);" points="194 300 195 305 197 307 197 302 199 302 197 299"/>
<path d="M 206 265 L 215 265 L 224 269 L 228 284 L 226 299 L 223 298 L 223 285 L 220 277 L 219 293 L 221 310 L 211 311 L 209 307 L 208 311 L 198 309 L 201 293 L 200 277 L 198 285 L 197 299 L 194 300 L 193 284 L 196 268 L 206 265 Z" style="fill: rgb(230, 228, 236);"/>
<polygon style="fill: rgb(201, 158, 147);" points="214 250 202 247 200 256 203 261 207 261 206 266 210 268 215 266 214 259"/>
<polygon style="fill: rgb(43, 12, 16);" points="201 247 209 245 215 248 214 258 213 255 212 251 210 252 209 255 208 263 203 264 201 258 207 255 208 250"/>
<ellipse style="fill: rgba(0, 0, 0, 0.2);" cx="79" cy="334" rx="18" ry="3"/>
<polygon style="fill: rgb(5, 7, 14);" points="84 328 88 329 93 334 91 335 88 335 83 332"/>
<polygon style="fill: rgb(5, 7, 14);" points="74 328 70 329 65 334 67 335 70 335 75 332"/>
<path d="M 71 293 L 80 280 L 89 293 L 91 313 L 89 330 L 83 329 L 83 313 L 80 298 L 76 313 L 75 329 L 69 330 L 68 313 L 71 293 Z" style="fill: rgb(64, 64, 64);"/>
<polygon style="fill: rgb(182, 143, 133);" points="96 299 94 305 92 306 93 302 91 302 94 298"/>
<polygon style="fill: rgb(182, 143, 133);" points="64 300 65 305 67 307 67 302 69 302 66 299"/>
<path d="M 76 265 L 85 265 L 94 270 L 98 285 L 96 299 L 93 298 L 93 286 L 90 278 L 90 293 L 91 308 L 81 309 L 79 304 L 78 309 L 68 308 L 70 292 L 70 278 L 68 286 L 67 299 L 64 300 L 63 285 L 66 269 L 76 265 Z" style="fill: rgb(96, 96, 96);"/>
<polygon style="fill: rgb(64, 64, 64);" points="77 263 73 265 76 269 74 274 80 292 87 274 85 269 88 265 84 263"/>
<polygon style="fill: rgb(182, 143, 133);" points="82 249 71 248 71 256 73 261 77 261 76 266 80 267 85 266 84 259"/>
<polygon style="fill: rgb(64, 64, 64);" points="70 248 75 244 84 247 84 259 82 256 82 252 80 252 79 255 78 261 73 263 72 258 77 255 78 250"/>
<polygon style="fill: rgb(167, 167, 167);" points="79 267 80 270 78 274 80 281 83 274 81 270 82 267"/>
<polygon style="fill: rgb(201, 158, 147);" points="-1 300 0 306 2 307 2 303 4 303 1 298"/>
<polygon style="fill: rgb(201, 158, 147);" points="31 298 30 304 27 306 28 301 26 301 28 298"/>
<ellipse style="fill: rgba(0, 0, 0, 0.2);" cy="334" rx="18" ry="3" cx="14"/>
<polygon style="fill: rgb(5, 7, 14);" points="8 328 4 329 -1 334 1 335 5 335 9 332"/>
<polygon style="fill: rgb(5, 7, 14);" points="19 328 23 329 28 334 26 335 22 335 18 332"/>
<polygon style="fill: rgb(53, 165, 202);" points="11 264 21 265 29 269 33 285 31 298 28 298 28 286 25 276 24 293 26 313 25 330 18 329 18 313 15 300 11 313 10 329 2 330 3 313 6 293 5 277 3 286 2 299 -1 300 -2 285 1 268"/>
<polygon style="fill: rgb(201, 158, 147);" points="14 249 24 247 26 255 23 261 19 261 20 266 16 269 11 266 12 259"/>
<polygon style="fill: rgb(193, 53, 73);" points="26 247 17 245 12 247 12 259 14 257 14 252 16 251 16 254 18 253 17 250"/>
<polygon style="fill: rgb(216, 216, 216); stroke: rgb(0, 0, 0);" points="185 155"/>
<path d="M 220 -289 C 220 -277 212 -277 206 -277 C 202 -277 199 -279 196 -282 C 192 -277 172 -275 172 -275 L 172 -303 C 172 -303 192 -301 196 -296 C 199 -299 202 -301 206 -301 C 212 -301 220 -301 220 -289 Z" style="fill: rgb(75, 87, 63);"/>
<path d="M 168 -302 L 172 -303 L 172 -275 L 168 -276 L 168 -302 Z" style="fill: rgb(224, 225, 230);"/>
<path d="M 168 -302 L 162 -302 L 162 -276 L 168 -276 L 168 -302 Z" style="fill: rgb(75, 87, 63);"/>
<path d="M 162 -302 L 151 -302 L 151 -276 L 162 -276 L 162 -302 Z" style="fill: rgb(224, 225, 230);"/>
<path d="M 151 -302 L 146 -305 L 146 -273 L 151 -276 L 151 -302 Z" style="fill: rgb(75, 87, 63);"/>
<ellipse style="fill: rgb(216, 216, 216);" cx="209" cy="-294" rx="3" ry="2"/>
<rect x="151" width="21" height="7" style="fill: rgb(78, 76, 78);" y="-311"/>
<rect x="151" width="21" height="10" style="fill: rgb(78, 76, 78);" y="-322"/>
<rect x="151" width="21" height="14" style="fill: rgb(78, 76, 78);" y="-337"/>
<rect x="151" y="-274" width="21" height="7" style="fill: rgb(78, 76, 78);"/>
<rect x="151" width="21" height="10" style="fill: rgb(78, 76, 78);" y="-266"/>
<rect x="151" width="21" height="14" style="fill: rgb(78, 76, 78);" y="-255"/>
<path d="M 135 -289 C 135 -282 120 -281 120 -281 L 120 -297 C 120 -297 135 -296 135 -289 Z" style="fill: rgb(78, 76, 78);"/>
<path d="M 135 -305 L 133 -296 L 133 -282 L 135 -273 L 135 -305 Z" style="fill: rgb(75, 87, 63);"/>
<path d="M 220 -289 C 220 -284 219 -283 219 -283 C 218 -283 218 -295 219 -295 C 219 -295 220 -294 220 -289 Z" style="fill: rgb(224, 225, 230);"/>
<path d="M 146 -305 L 135 -308 L 135 -270 L 146 -273 L 146 -305 Z" style="fill: rgb(224, 225, 230);"/>
<path d="M -34 144 L -34 147 L -19 156 L -14 170 L -20 172 L -24 163 L -33 159 L -32 173 L -36 181 L -36 191 L -24 201 L -27 213 L -32 213 L -32 204 L -42 197 L -47 186 L -52 196 L -43 208 L -45 214 L -48 219 L -53 218 L -52 210 L -60 196 L -57 177 L -57 170 L -54 160 L -61 163 L -68 171 L -72 168 L -66 155 L -54 148 L -51 147 L -51 144 L -34 144 Z" style="fill: rgb(216, 216, 216);"/>
<ellipse style="fill: rgba(0, 0, 0, 0.2);" cx="269" cy="334" rx="18" ry="3"/>
<polygon style="fill: rgb(43, 12, 16);" points="274 328 278 329 283 334 281 335 277 334 273 332"/>
<polygon style="fill: rgb(43, 12, 16);" points="265 328 261 329 256 334 258 335 262 334 266 332"/>
<path d="M 262 293 L 278 293 L 279 314 L 278 329 L 273 329 L 272 314 L 270 298 L 267 314 L 266 329 L 261 329 L 260 313 L 262 293 Z" style="fill: rgb(90, 90, 90);"/>
<polygon style="fill: rgb(201, 158, 147);" points="286 299 284 305 282 306 283 302 281 302 284 298"/>
<polygon style="fill: rgb(201, 158, 147);" points="254 300 255 305 257 307 257 302 259 302 256 299"/>
<path d="M 268 268 L 273 268 L 282 272 L 285 284 L 286 299 L 283 298 L 281 285 L 279 278 L 278 290 L 281 312 L 271 313 L 270 309 L 268 313 L 258 310 L 262 290 L 261 278 L 259 285 L 257 299 L 254 300 L 255 284 L 259 272 L 268 268 Z" style="fill: rgb(230, 228, 236);"/>
<polygon style="fill: rgb(201, 158, 147);" points="272 252 265 252 264 258 266 264 267 264 268 269 271 270 273 269 274 262"/>
<polygon style="fill: rgb(131, 106, 99);" points="265 252 271 250 278 256 276 261 277 266 274 266"/>
<ellipse style="fill: rgba(0, 0, 0, 0.2);" cx="329" cy="334" rx="18" ry="3"/>
<polygon style="fill: rgb(43, 12, 16);" points="334 328 338 329 343 334 341 335 337 334 333 332"/>
<polygon style="fill: rgb(43, 12, 16);" points="324 328 320 329 315 334 317 335 321 334 325 332"/>
<path d="M 322 296 L 338 296 L 341 313 L 339 330 L 334 329 L 333 314 L 330 298 L 326 314 L 325 329 L 320 329 L 318 313 L 322 296 Z" style="fill: rgb(90, 90, 90);"/>
<polygon style="fill: rgb(201, 158, 147);" points="346 299 344 305 342 306 343 302 341 302 344 298"/>
<polygon style="fill: rgb(201, 158, 147);" points="314 300 315 305 317 307 317 302 319 302 317 299"/>
<path d="M 326 264 L 335 264 L 343 269 L 348 284 L 346 299 L 343 298 L 343 285 L 340 278 L 339 293 L 341 310 L 331 311 L 329 309 L 328 311 L 319 308 L 321 293 L 321 277 L 318 285 L 317 299 L 314 300 L 313 284 L 317 269 L 326 264 Z" style="fill: rgb(230, 228, 236);"/>
<polygon style="fill: rgb(201, 158, 147);" points="334 249 323 247 321 254 324 261 327 260 326 265 331 267 334 265 334 258"/>
<polygon style="fill: rgb(131, 106, 99);" points="323 247 330 250 329 254 331 254 332 250 333 251 334 257 336 248 328 244"/>
<polygon style="fill: rgb(216, 140, 93);" points="233 395 236 455 261 458 269 396"/>
<polygon style="fill: rgb(90, 90, 90);" points="246 386 247 369 259 369 258 386"/>
<polygon style="fill: rgb(216, 216, 216);" points="233 395 269 396 258 386 245 386"/>
<polygon style="fill: rgb(216, 165, 114);" points="313 372 317 359 321 372"/>
<polygon style="fill: rgb(101, 101, 101);" points="313 372 313 459 321 459 321 372"/>
<polygon style="fill: rgb(101, 101, 101);" points="315 366 317 359 319 366"/>
<rect y="-450" width="100" height="100" style="fill: rgb(61, 69, 50);" x="124"/>
<path d="M 171 -414 C 171 -414 191 -412 195 -407 C 198 -410 201 -412 205 -412 C 211 -412 219 -412 219 -400 C 219 -388 211 -388 205 -388 C 201 -388 198 -390 195 -393 C 191 -388 171 -386 171 -386 L 167 -387 L 150 -387 L 145 -384 L 134 -381 L 134 -384 L 132 -393 L 132 -407 L 134 -416 L 134 -419 L 145 -416 L 150 -413 L 167 -413 Z" style="fill: rgb(224, 225, 230);"/>
<ellipse style="fill: rgb(52, 143, 247);" cx="208" cy="-405" rx="3" ry="2"/>
<polygon style="fill: rgb(216, 140, 93);" points="161 392 164 452 189 455 197 393" transform="matrix(0.807078, -0.590445, 0.590445, 0.807078, -215.520343, 187.392082)"/>
<polygon style="fill: rgb(90, 90, 90);" points="144 392 145 375 157 375 156 392" transform="matrix(0.807078, -0.590445, 0.590445, 0.807078, -197.400827, 162.847525)"/>
<polygon style="fill: rgb(216, 216, 216);" points="140 399 176 400 165 390 152 390" transform="matrix(0.807078, -0.590445, 0.590445, 0.807078, -202.744027, 169.494464)"/>
<path d="M 340 -289 C 340 -277 332 -277 326 -277 C 322 -277 319 -279 316 -282 C 312 -277 292 -275 292 -275 L 292 -303 C 292 -303 312 -301 316 -296 C 319 -299 322 -301 326 -301 C 332 -301 340 -301 340 -289 Z" style="fill: rgb(75, 87, 63);"/>
<path d="M 340 -289 C 340 -284 339 -283 339 -283 C 338 -283 338 -295 339 -295 C 339 -295 340 -294 340 -289 Z" style="fill: rgb(224, 225, 230);"/>
<path d="M 341 -290 C 341 -285 340 -284 340 -284 C 339 -284 339 -296 340 -296 C 340 -296 341 -295 341 -290 Z" style="fill: rgb(224, 225, 230);" transform="matrix(-0.587379, 0.809312, -0.809312, -0.587379, 308.673662, -725.374727)" bx:origin="0 1"/>
<path d="M 340 -289 C 340 -285 339 -284 339 -284 C 338 -284 338 -294 339 -294 C 339 -294 340 -293 340 -289 Z" style="fill: rgb(170, 171, 175);"/>
<path d="M 288 -302 L 292 -303 L 292 -275 L 288 -276 L 288 -302 Z" style="fill: rgb(224, 225, 230);"/>
<path d="M 288 -302 L 282 -302 L 282 -276 L 288 -276 L 288 -302 Z" style="fill: rgb(75, 87, 63);"/>
<path d="M 282 -302 L 271 -302 L 271 -276 L 282 -276 L 282 -302 Z" style="fill: rgb(224, 225, 230);"/>
<path d="M 271 -302 L 266 -305 L 266 -273 L 271 -276 L 271 -302 Z" style="fill: rgb(75, 87, 63);"/>
<ellipse style="fill: rgb(216, 216, 216);" cx="329" cy="-294" rx="3" ry="2"/>
<rect x="271" width="21" height="7" style="fill: rgb(78, 76, 78);" y="-311"/>
<rect x="271" width="21" height="10" style="fill: rgb(78, 76, 78);" y="-322"/>
<rect x="271" width="21" height="14" style="fill: rgb(78, 76, 78);" y="-337"/>
<rect x="271" y="-274" width="21" height="7" style="fill: rgb(78, 76, 78);"/>
<rect x="271" width="21" height="10" style="fill: rgb(78, 76, 78);" y="-266"/>
<rect x="271" width="21" height="14" style="fill: rgb(78, 76, 78);" y="-255"/>
<path d="M 255 -289 C 255 -282 240 -281 240 -281 L 240 -297 C 240 -297 255 -296 255 -289 Z" style="fill: rgb(78, 76, 78);"/>
<path d="M 255 -305 L 253 -296 L 253 -282 L 255 -273 L 255 -305 Z" style="fill: rgb(75, 87, 63);"/>
<path d="M 266 -305 L 255 -308 L 255 -270 L 266 -273 L 266 -305 Z" style="fill: rgb(224, 225, 230);"/>
<path d="M 470 -289 C 470 -277 462 -277 456 -277 C 452 -277 449 -279 446 -282 C 442 -277 422 -275 422 -275 L 422 -303 C 422 -303 442 -301 446 -296 C 449 -299 452 -301 456 -301 C 462 -301 470 -301 470 -289 Z" style="fill: rgb(75, 87, 63);"/>
<path d="M 470 -289 C 470 -284 469 -283 469 -283 C 468 -283 468 -295 469 -295 C 469 -295 470 -294 470 -289 Z" style="fill: rgb(224, 225, 230);"/>
<path d="M 470 -289 C 470 -285 469 -284 469 -284 C 468 -284 468 -294 469 -294 C 469 -294 470 -293 470 -289 Z" style="fill: rgb(170, 171, 175);"/>
<path d="M 418 -302 L 422 -303 L 422 -275 L 418 -276 L 418 -302 Z" style="fill: rgb(224, 225, 230);"/>
<path d="M 418 -302 L 412 -302 L 412 -276 L 418 -276 L 418 -302 Z" style="fill: rgb(75, 87, 63);"/>
<path d="M 412 -302 L 401 -302 L 401 -276 L 412 -276 L 412 -302 Z" style="fill: rgb(224, 225, 230);"/>
<path d="M 401 -302 L 396 -305 L 396 -273 L 401 -276 L 401 -302 Z" style="fill: rgb(75, 87, 63);"/>
<ellipse style="fill: rgb(216, 216, 216);" cx="459" cy="-294" rx="3" ry="2"/>
<rect x="401" width="21" height="7" style="fill: rgb(78, 76, 78);" y="-311"/>
<rect x="401" width="21" height="10" style="fill: rgb(78, 76, 78);" y="-322"/>
<rect x="401" width="21" height="14" style="fill: rgb(78, 76, 78);" y="-337"/>
<rect x="401" y="-274" width="21" height="7" style="fill: rgb(78, 76, 78);"/>
<rect x="401" width="21" height="10" style="fill: rgb(78, 76, 78);" y="-266"/>
<rect x="401" width="21" height="14" style="fill: rgb(78, 76, 78);" y="-255"/>
<path d="M 385 -289 C 385 -282 370 -281 370 -281 L 370 -297 C 370 -297 385 -296 385 -289 Z" style="fill: rgb(78, 76, 78);"/>
<path d="M 385 -305 L 383 -296 L 383 -282 L 385 -273 L 385 -305 Z" style="fill: rgb(75, 87, 63);"/>
<path d="M 396 -305 L 385 -308 L 385 -270 L 396 -273 L 396 -305 Z" style="fill: rgb(224, 225, 230);"/>
<ellipse style="fill: rgb(170, 171, 175);" cx="473" cy="-289" rx="3" ry="6"/>
<g transform="matrix(1, 0, 0, 1, -230, -230)">
<polygon style="fill: rgba(255, 255, 255, 0.53);" points="9 70 21 76 33 77 46 76 50 82 56 79 62 80 72 75 78 76 83 73 77 79 73 77 63 83 58 81 48 84 44 78 37 79 20 77"/>
<polygon style="fill: rgba(255, 255, 255, 0.53);" points="2 55 10 61 19 62 22 66 38 67 43 70 55 69 40 72 37 68 23 68 17 64 9 63"/>
<polygon style="fill: rgba(255, 255, 255, 0.53);" points="87 84 83 84 79 83 74 87 63 88 76 88 80 85 85 86"/>
<polygon style="fill: rgba(255, 255, 255, 0.53);" points="9 79 18 84 26 85 28 87 35 89 43 87 49 89 43 89 33 91 26 87 18 86 15 86"/>
<polygon style="fill: rgba(255, 255, 255, 0.53);" points="41 94 50 93 54 95 60 93 66 94 73 91 65 96 59 96 52 97 47 95 38 96 30 92"/>
<polygon style="fill: rgba(255, 255, 255, 0.53);" points="10 36 17 45 28 47 33 52 42 51 49 55 56 54 48 53 39 49 33 50 26 44 18 43"/>
<polygon style="fill: rgba(255, 255, 255, 0.53);" points="6 26 12 30 21 32 24 37 30 39 25 35 21 30 13 28 9 21"/>
<polygon style="fill: rgba(255, 255, 255, 0.53);" points="15 16 20 22 26 23 31 29 47 30 56 34 66 30 56 32 43 27 32 28 28 20 21 21"/>
<polygon style="fill: rgba(255, 255, 255, 0.53);" points="73 46 81 47 85 44 94 44 99 40 100 46 87 45 81 49"/>
<polygon style="fill: rgba(255, 255, 255, 0.53);" points="57 61 71 58 81 60 90 55 96 56 90 57 81 62 70 60"/>
<polygon style="fill: rgba(255, 255, 255, 0.53);" points="86 15 81 21 73 23 71 26 77 23 84 23 88 17"/>
<polygon style="fill: rgba(255, 255, 255, 0.53);" points="21 9 26 12 34 12 39 16 47 14 39 14 33 10 29 10 28 5"/>
<polygon style="fill: rgba(255, 255, 255, 0.53);" points="67 3 63 7 54 9 65 8 73 5"/>
<polygon style="fill: rgba(255, 255, 255, 0.53);" points="33 3 40 7 49 5 41 5 39 1"/>
<polygon style="fill: rgba(255, 255, 255, 0.53);" points="53 47 62 45 69 40 79 40 87 31 78 38 67 38 61 43"/>
<polygon style="fill: rgba(255, 255, 255, 0.53);" points="0 45 8 44 14 47 18 50 26 50 32 57 26 52 18 53 12 47 6 46 0 49"/>
</g>
<polygon style="fill: rgb(216, 216, 216); stroke: rgb(0, 0, 0);" points="-7 92"/>
<polygon style="fill: rgb(216, 216, 216);" points="87 15"/>
<circle style="fill: rgb(40, 130, 220);" r="50" cx="-60" cy="-180"/>
<g transform="matrix(1, 0, 0, 1, 10, -120)">
<path d="M -40 -46 L -40 -48 L -40 -50 L -41 -53 L -41 -56 L -42 -60 L -45 -63 L -48 -64 L -49 -66 L -52 -68 L -55 -66 L -57 -67 L -63 -65 L -63 -60 L -65 -59 L -66 -54 L -72 -51 L -77 -52 L -81 -54 L -84 -52 L -88 -54 L -89 -59 L -92 -60 L -95 -59 L -99 -61 L -103 -62 L -106 -63 L -109 -60 L -108 -54 L -105 -48 L -105 -47 L -102 -43 L -101 -36 L -96 -33 L -90 -29 L -89 -23 L -82 -17 L -82 -21 L -77 -22 L -75 -23 L -72 -22 L -70 -23 L -69 -22 L -67 -23 L -62 -23 L -68 -21 L -76 -20 L -79 -21 L -79 -16 L -77 -12 L -75 -13 L -72 -14 L -71 -12 L -71 -15 L -66 -15 L -70 -13 L -70 -11 L -72 -12 L -74 -11 L -78 -11 C -78 -11 -51 -4 -32 -28 L -31 -34 L -36 -31 L -34 -33 L -35 -37 L -34 -39 L -32 -42 L -35 -40 L -37 -41 L -34 -44 L -36 -47 L -37 -48 L -39 -47 L -40 -44 L -40 -42 L -39 -40 L -39 -39 L -38 -38 L -40 -36 L -40 -35 L -42 -34 L -43 -33 L -45 -31 L -48 -28 L -50 -28 L -49 -26 L -50 -24 L -48 -25 L -46 -23 L -46 -22 L -49 -21 L -47 -20 L -49 -19 L -50 -20 L -53 -18 L -54 -19 L -51 -22 L -50 -23 L -50 -25 L -52 -24 L -54 -23 L -55 -23 L -55 -21 L -58 -21 L -59 -22 L -58 -24 L -54 -28 L -53 -30 L -54 -30 L -53 -33 L -50 -34 L -47 -34 L -43 -39 L -42 -42 L -41 -45 L -40 -46 Z" style="fill: rgb(134, 155, 112);"/>
<polygon style="fill: rgb(134, 155, 112);" points="-109 -43 -106 -40 -105 -38 -103 -37 -103 -35 -101 -31 -106 -37"/>
<path d="M -86 -107 L -81 -107 L -77 -106 L -73 -103 L -71 -103 L -71 -100 L -67 -96 L -63 -95 L -61 -92 L -57 -91 L -56 -92 L -54 -92 L -53 -95 L -49 -95 L -47 -95 L -44 -93 L -43 -96 L -37 -95 L -35 -96 C -49 -109 -67 -114 -86 -107 Z" style="fill: rgb(134, 155, 112);"/>
<polygon style="fill: rgb(134, 155, 112);" points="-32 -40 -33 -38 -34 -37 -30 -37 -29 -38 -32 -38"/>
<polygon style="fill: rgb(134, 155, 112);" points="-29 -42 -31 -41 -29 -40"/>
</g>
<g transform="matrix(1, 0, 0, 1, 10, -120)">
<polygon style="fill: rgb(212, 216, 216);" points="-66 -105 -77 -98 -84 -88 -90 -76 -97 -76 -98 -69 -102 -65 -103 -54 -107 -49 -107 -43 -109 -51 -105 -54 -105 -66 -101 -69 -98 -79 -91 -79 -88 -86 -78 -99"/>
<polygon style="fill: rgb(212, 216, 216);" points="-50 -104 -59 -100 -64 -93 -69 -92 -78 -79 -84 -76 -89 -66 -84 -80 -79 -81 -72 -93 -65 -96 -60 -102"/>
<polygon style="fill: rgb(212, 216, 216);" points="-117 -43 -116 -49 -113 -52 -114 -58 -109 -68 -116 -57 -115 -52 -119 -49"/>
<polygon style="fill: rgb(212, 216, 216);" points="-74 -110 -82 -105 -87 -99 -90 -98 -96 -93 -98 -85 -103 -81 -100 -86 -96 -96 -89 -100 -84 -106 -81 -109"/>
<polygon style="fill: rgb(212, 216, 216);" points="-103 -90 -107 -82 -111 -79 -112 -73 -116 -69 -117 -61 -117 -70 -114 -76 -111 -82 -107 -85 -103 -94 -96 -98"/>
<polygon style="fill: rgb(212, 216, 216);" points="-37 -87 -48 -86 -56 -78 -63 -76 -66 -68 -73 -64 -76 -57 -71 -64 -63 -69 -61 -75 -52 -78 -47 -84"/>
<polygon style="fill: rgb(212, 216, 216);" points="-26 -84 -33 -82 -39 -75 -45 -75 -50 -71 -44 -74 -38 -74 -32 -80 -24 -80"/>
<polygon style="fill: rgb(212, 216, 216);" points="-23 -72 -30 -71 -34 -66 -42 -65 -51 -52 -59 -46 -61 -36 -57 -45 -47 -54 -42 -64 -33 -63 -30 -70"/>
<polygon style="fill: rgb(212, 216, 216);" points="-79 -38 -84 -32 -83 -27 -88 -19 -87 -13 -92 -15 -85 -25 -86 -33"/>
<polygon style="fill: rgb(212, 216, 216);" points="-83 -59 -87 -46 -94 -38 -94 -28 -98 -24 -96 -29 -96 -39 -88 -48"/>
<polygon style="fill: rgb(212, 216, 216);" points="-56 -12 -61 -18 -58 -26 -60 -30 -60 -23 -64 -17 -61 -11"/>
<polygon style="fill: rgb(212, 216, 216);" points="-20 -64 -25 -61 -29 -54 -35 -52 -38 -44 -34 -51 -27 -54 -25 -58 -20 -56"/>
<polygon style="fill: rgb(212, 216, 216);" points="-39 -21 -40 -27 -37 -36 -42 -26 -43 -18"/>
<polygon style="fill: rgb(212, 216, 216);" points="-21 -50 -28 -46 -31 -38 -27 -45 -22 -46"/>
<polygon style="fill: rgb(212, 216, 216);" points="-69 -56 -72 -47 -71 -38 -77 -30 -73 -18 -74 -30 -69 -39 -70 -47"/>
<polygon style="fill: rgb(212, 216, 216);" points="-40 -100 -43 -93 -49 -89 -54 -88 -58 -81 -67 -79 -59 -82 -56 -89 -48 -91 -44 -96 -43 -102"/>
</g>
<path d="M 90 -179 C 90 -167 82 -167 76 -167 C 72 -167 69 -169 66 -172 C 62 -167 42 -165 42 -165 L 42 -193 C 42 -193 62 -191 66 -186 C 69 -189 72 -191 76 -191 C 82 -191 90 -191 90 -179 Z" style="fill: rgb(75, 87, 63);"/>
<path d="M 38 -192 L 42 -193 L 42 -165 L 38 -166 L 38 -192 Z" style="fill: rgb(224, 225, 230);"/>
<path d="M 38 -192 L 32 -192 L 32 -166 L 38 -166 L 38 -192 Z" style="fill: rgb(75, 87, 63);"/>
<path d="M 32 -192 L 20 -192 L 20 -166 L 32 -166 L 32 -192 Z" style="fill: rgb(224, 225, 230);"/>
<path d="M 20 -192 L 14 -196 L 14 -162 L 20 -166 L 20 -192 Z" style="fill: rgb(75, 87, 63);"/>
<rect x="21" width="21" height="7" style="fill: rgb(78, 76, 78);" y="-201"/>
<rect x="21" width="21" height="10" style="fill: rgb(78, 76, 78);" y="-212"/>
<rect x="21" width="21" height="14" style="fill: rgb(78, 76, 78);" y="-227"/>
<rect x="21" y="-164" width="21" height="7" style="fill: rgb(78, 76, 78);"/>
<rect x="21" width="21" height="10" style="fill: rgb(78, 76, 78);" y="-156"/>
<rect x="21" width="21" height="14" style="fill: rgb(78, 76, 78);" y="-145"/>
<path d="M 90 -179 C 90 -174 89 -173 89 -173 C 88 -173 88 -185 89 -185 C 89 -185 90 -184 90 -179 Z" style="fill: rgb(224, 225, 230);"/>
<path d="M 220 -179 C 220 -167 212 -167 206 -167 C 202 -167 199 -169 196 -172 C 192 -167 172 -165 172 -165 L 172 -193 C 172 -193 192 -191 196 -186 C 199 -189 202 -191 206 -191 C 212 -191 220 -191 220 -179 Z" style="fill: rgb(75, 87, 63);"/>
<path d="M 168 -192 L 172 -193 L 172 -165 L 168 -166 L 168 -192 Z" style="fill: rgb(224, 225, 230);"/>
<path d="M 168 -192 L 162 -192 L 162 -166 L 168 -166 L 168 -192 Z" style="fill: rgb(75, 87, 63);"/>
<path d="M 162 -192 L 150 -192 L 150 -166 L 162 -166 L 162 -192 Z" style="fill: rgb(224, 225, 230);"/>
<path d="M 150 -192 L 144 -196 L 144 -162 L 150 -166 L 150 -192 Z" style="fill: rgb(75, 87, 63);"/>
<rect x="151" width="21" height="7" style="fill: rgb(78, 76, 78);" y="-201"/>
<rect x="151" width="21" height="10" style="fill: rgb(78, 76, 78);" y="-212"/>
<rect x="151" width="21" height="14" style="fill: rgb(78, 76, 78);" y="-227"/>
<rect x="151" y="-164" width="21" height="7" style="fill: rgb(78, 76, 78);"/>
<rect x="151" width="21" height="10" style="fill: rgb(78, 76, 78);" y="-156"/>
<rect x="151" width="21" height="14" style="fill: rgb(78, 76, 78);" y="-145"/>
<path d="M 220 -179 C 220 -174 219 -173 219 -173 C 218 -173 218 -185 219 -185 C 219 -185 220 -184 220 -179 Z" style="fill: rgb(224, 225, 230);"/>
<polygon style="fill: rgb(78, 76, 78);" points="172 -193 174 -196 177 -195 178 -192"/>
<circle style="fill: rgb(38, 37, 38);" cx="175" cy="-194" r="1"/>
<polygon style="fill: rgb(78, 76, 78);" points="172 -165 174 -162 177 -163 178 -166"/>
<circle style="fill: rgb(38, 37, 38);" cx="175" cy="-164" r="1"/>
<circle style="stroke: rgb(50, 59, 42); fill: rgb(37, 36, 37);" cx="56" r="3" cy="-179"/>
<path d="M 90 -179 C 90 -174 89 -173 89 -173 C 88 -173 88 -185 89 -185 C 89 -185 90 -184 90 -179 Z" style="fill: rgb(224, 225, 230);"/>
<path d="M 111 -180 C 111 -175 110 -174 110 -174 C 109 -174 109 -186 110 -186 C 110 -186 111 -185 111 -180 Z" style="fill: rgb(224, 225, 230);" transform="matrix(-0.587379, 0.809312, -0.809312, -0.587379, 32.600844, -364.621272)" bx:origin="0 1"/>
<path d="M 110 -179 C 110 -175 109 -174 109 -174 C 108 -174 108 -184 109 -184 C 109 -184 110 -183 110 -179 Z" style="fill: rgb(170, 171, 175);"/>
<rect x="369" y="373" width="66" height="84" style="fill: rgb(255, 255, 255);"/>
<rect x="369" y="361" width="66" height="12" style="fill: rgb(223, 223, 223);"/>
<polygon style="fill: rgb(190, 190, 190);" points="39 180 60 183 64 173 63 144 56 141"/>
<ellipse style="fill: rgb(216, 216, 216);" cx="47" cy="135" rx="12" ry="14"/>
<path d="M 57 142 L 58 148 L 73 157 L 78 171 L 72 173 L 68 164 L 59 160 L 60 174 L 56 182 L 57 192 L 68 202 L 65 214 L 60 214 L 60 205 L 50 198 L 45 187 L 41 197 L 49 209 L 47 215 L 44 220 L 39 219 L 40 211 L 32 197 L 35 178 L 35 171 L 36 161 L 31 164 L 24 172 L 20 169 L 26 156 L 36 149 L 40 148 L 41 145 L 57 142 Z" style="fill: rgb(216, 216, 216);"/>
<polygon style="fill: rgb(190, 190, 190);" points="24 172 23 177 21 176 20 180 17 179 17 173 20 169"/>
<polygon style="fill: rgb(190, 190, 190);" points="72 173 72 178 74 178 74 182 77 182 79 175 78 171"/>
<ellipse style="fill: rgb(233, 233, 233);" cx="58" cy="136" rx="2" ry="4"/>
<path d="M 58 135 C 58 141 54 145 46 145 C 38 145 34 141 34 135 C 34 129 40 127 46 127 C 54 127 58 129 58 135 Z" style="fill: rgb(233, 233, 233);"/>
<path d="M 56 135 C 56 142 52 144 46 144 C 40 144 36 142 36 135 C 36 128 41 128 46 128 C 52 128 56 128 56 135 Z" style="fill: rgb(206, 181, 107);"/>
<line style="stroke: rgb(223, 223, 223); stroke-width: 2px;" x1="379.64762830130906" y1="383.94958942259177" x2="424.10256613634215" y2="384.6204143743588"/>
<line style="stroke: rgb(223, 223, 223); stroke-width: 2px;" x1="380" y1="394" x2="424" y2="395"/>
<line style="stroke: rgb(223, 223, 223); stroke-width: 2px;" x1="380" y1="404" x2="424" y2="405"/>
<line style="stroke: rgb(223, 223, 223); stroke-width: 2px;" x1="380" y1="414" x2="424" y2="415"/>
<line style="stroke: rgb(223, 223, 223); stroke-width: 2px;" x1="380" y1="424" x2="424" y2="425"/>
<line style="stroke: rgb(223, 223, 223); stroke-width: 2px;" x1="380" y1="434" x2="424" y2="435"/>
<line style="stroke: rgb(223, 223, 223); stroke-width: 2px;" x1="380" y1="444" x2="424" y2="445"/>
<polygon style="fill: rgb(255, 255, 255);" points="239 208 242 214 245 212 244 205 240 203"/>
<polygon style="fill: rgb(201, 158, 147);" points="189 163 183 163 181 165 187 166 186 168 190 166"/>
<polygon style="fill: rgb(201, 158, 147);" points="246 163 249 169 248 172 245 168 244 170 243 164"/>
<polygon style="fill: rgb(255, 255, 255);" points="217 210 214 216 217 217 222 212 221 209"/>
<polygon style="fill: rgb(53, 165, 202);" points="222 143 213 144 205 148 200 158 188 163 190 166 204 163 209 154 210 171 208 192 216 210 221 209 217 191 219 177 227 192 239 207 243 204 234 187 228 171 229 153 236 156 243 165 246 163 240 152 230 145"/>
<polygon style="fill: rgb(201, 158, 147);" points="219 128 209 126 207 134 210 140 214 140 213 145 217 147 222 144 221 138"/>
<polygon style="fill: rgb(193, 53, 73);" points="207 126 216 124 221 126 221 138 219 136 219 131 217 130 217 133 215 132 216 129"/>
<ellipse style="fill: rgba(0, 0, 0, 0.2);" cx="389" cy="334" rx="18" ry="3"/>
<polygon style="fill: rgb(43, 12, 16);" points="394 328 398 329 403 334 401 335 397 334 393 332"/>
<polygon style="fill: rgb(43, 12, 16);" points="384 328 380 329 375 334 377 335 381 334 385 332"/>
<path d="M 382 295 L 398 295 L 400 315 L 399 330 L 393 329 L 393 315 L 390 298 L 386 315 L 385 329 L 379 329 L 379 315 L 382 295 Z" style="fill: rgb(90, 90, 90);"/>
<polygon style="fill: rgb(201, 158, 147);" points="406 301 404 307 402 308 403 304 401 304 404 300"/>
<polygon style="fill: rgb(201, 158, 147);" points="374 302 375 307 377 309 377 304 378 304 376 301"/>
<path d="M 387 268 L 394 268 L 403 272 L 407 288 L 406 301 L 403 300 L 402 289 L 399 279 L 399 296 L 400 312 L 390 312 L 390 308 L 388 312 L 378 310 L 380 296 L 381 279 L 378 288 L 377 301 L 374 302 L 373 288 L 378 272 L 387 268 Z" style="fill: rgb(230, 228, 236);"/>
<polygon style="fill: rgb(201, 158, 147);" points="394 253 383 251 381 260 384 265 387 264 387 268 390 269 394 268 394 262"/>
<polygon style="fill: rgb(216, 216, 216);" points="383 251 382 249 387 250 391 249 397 252 395 261 393 262 393 256 391 259 391 255 390 253"/>
<ellipse style="fill: rgba(0, 0, 0, 0.2);" cx="449" cy="334" rx="18" ry="3"/>
<polygon style="fill: rgb(43, 12, 16);" points="454 326 458 329 463 334 461 335 457 334 453 332"/>
<polygon style="fill: rgb(43, 12, 16);" points="444 327 440 329 435 334 437 335 441 334 445 332"/>
<path d="M 440 301 L 460 301 L 460 315 L 459 329 L 453 328 L 453 315 L 450 303 L 446 315 L 445 329 L 439 328 L 439 315 L 440 301 Z" style="fill: rgb(90, 90, 90);"/>
<polygon style="fill: rgb(201, 158, 147);" points="467 301 465 307 463 308 464 304 462 304 465 300"/>
<polygon style="fill: rgb(201, 158, 147);" points="433 302 434 307 436 309 436 304 437 304 435 301"/>
<path d="M 446 268 L 455 268 L 464 272 L 468 288 L 467 301 L 464 300 L 462 289 L 460 281 L 461 294 L 460 312 L 451 313 L 450 310 L 448 312 L 439 311 L 439 296 L 440 282 L 438 288 L 435 301 L 432 303 L 432 287 L 437 272 L 446 268 Z" style="fill: rgb(230, 228, 236);"/>
<polygon style="fill: rgb(201, 158, 147);" points="454 254 448 249 443 252 442 259 443 263 447 265 446 269 450 270 455 269 454 263"/>
<polygon style="fill: rgb(216, 216, 216);" points="450 249"/>
<polygon style="fill: rgb(216, 216, 216);" points="448 249 451 256 453 254 453 259 454 263 456 256 454 250"/>
<polygon style="fill: rgb(90, 90, 90);" points="442 254 441 255 441 256 442 257 444 257 445 256 446 257 448 257 449 256 449 255 453 254 446 254 445 255 444 254"/>
<polygon style="fill: rgb(216, 216, 216);" points="443 263 445 267 447 263"/>
<ellipse style="fill: rgba(0, 0, 0, 0.2);" cx="509" cy="334" rx="18" ry="3"/>
<polygon style="fill: rgb(43, 12, 16);" points="514 329 518 330 523 334 521 335 517 334 513 332"/>
<polygon style="fill: rgb(43, 12, 16);" points="504 330 500 330 495 334 497 335 501 334 505 332"/>
<path d="M 502 301 L 518 301 L 517 318 L 518 330 L 514 329 L 513 318 L 510 304 L 506 318 L 504 330 L 500 330 L 502 319 L 502 301 Z" style="fill: rgb(201, 158, 147);"/>
<polygon style="fill: rgb(201, 158, 147);" points="525 306 523 312 521 313 522 309 520 309 523 305"/>
<polygon style="fill: rgb(201, 158, 147);" points="494 308 495 312 497 314 497 309 498 309 496 306"/>
<path d="M 507 277 L 514 277 L 522 284 L 524 294 L 525 306 L 522 305 L 520 295 L 519 289 L 519 303 L 518 325 L 511 324 L 510 318 L 507 324 L 500 325 L 500 302 L 501 290 L 499 296 L 497 306 L 494 308 L 495 295 L 498 284 L 507 277 Z" style="fill: rgb(126, 89, 44);"/>
<polygon style="fill: rgb(216, 216, 216);" points="510 262 517 264 519 271 513 274 507 271"/>
<polygon style="fill: rgb(201, 158, 147);" points="515 268 511 261 506 262 504 267 505 272 507 274 507 278 510 283 514 278 514 272"/>
<polygon style="fill: rgb(126, 89, 44);" points="505 264 517 264 513 258 507 260"/>
<polygon style="fill: rgb(53, 165, 202);" points="372 147 381 148 389 154 393 162 401 169 398 172 389 166 385 159 388 173 401 179 400 196 393 194 394 185 385 182 389 192 386 204 381 204 381 191 372 180 370 159 367 166 370 174 368 177 361 167 365 154"/>
<polygon style="fill: rgb(201, 158, 147);" points="375 133 385 131 387 140 384 145 380 145 381 149 376 152 372 148 373 143"/>
<polygon style="fill: rgb(43, 12, 16);" points="386 131 377 129 372 132 373 143 375 140 375 136 377 135 378 139 379 145 384 146 386 142 380 139 379 134"/>
<polygon style="fill: rgb(255, 255, 255);" points="381 207 387 213 391 211 386 204 382 204"/>
<polygon style="fill: rgb(255, 255, 255);" points="394 199 400 201 405 199 399 196 394 194"/>
<polygon style="fill: rgb(201, 158, 147);" points="401 169 405 170 407 174 402 172 401 174 399 171"/>
<polygon style="fill: rgb(201, 158, 147);" points="370 174 374 175 372 177 375 180 371 182 368 177"/>
<polygon style="fill: rgb(53, 165, 202);" points="292 147 301 148 307 151 314 152 318 144 322 147 315 157 305 158 308 173 318 188 316 202 311 201 311 190 305 182 309 192 306 204 301 204 301 191 292 180 290 159 287 166 290 174 288 177 281 167 285 154"/>
<polygon style="fill: rgb(201, 158, 147);" points="295 133 305 131 307 140 304 145 300 145 301 149 296 152 292 148 293 143"/>
<polygon style="fill: rgb(43, 12, 16);" points="306 131 297 129 292 132 293 143 295 140 295 136 297 135 298 139 299 145 304 146 306 142 300 139 299 134"/>
<polygon style="fill: rgb(255, 255, 255);" points="301 207 307 213 311 211 306 204 302 204"/>
<polygon style="fill: rgb(255, 255, 255);" points="311 205 317 207 322 205 316 202 311 200"/>
<polygon style="fill: rgb(201, 158, 147);" points="318 141 320 142 322 139 324 140 321 147 318 144"/>
<polygon style="fill: rgb(201, 158, 147);" points="290 174 294 175 292 177 295 180 291 182 288 177"/>
<rect width="100" height="100" style="fill: rgb(61, 69, 50);" x="-110" y="-110"/>
<path d="M -49 -30 C -58 -30 -65 -33 -72 -40 L -76 -40 C -82 -36 -97 -32 -107 -30 L -107 -88 C -97 -86 -82 -82 -76 -78 L -72 -78 C -65 -85 -58 -88 -49 -88 C -38 -88 -24 -88 -18 -75 C -15 -75 -13 -68 -13 -59 C -13 -50 -15 -43 -18 -43 C -24 -30 -38 -30 -49 -30 Z" style="fill: rgb(202, 203, 207); stroke: rgb(75, 87, 63); stroke-width: 2px;"/>
<path d="M -77 -70 L -71 -70 C -70 -80 -56 -85 -49 -85 C -33 -85 -18 -83 -18 -59 C -18 -35 -33 -33 -49 -33 C -56 -33 -70 -38 -71 -48 L -77 -48 C -77 -40 -102 -33 -106 -33 L -106 -85 C -102 -85 -77 -78 -77 -70 Z" style="fill: rgb(224, 225, 230);"/>
<rect width="9" height="22" style="fill: rgb(61, 69, 50);" x="-72" y="-70"/>
<ellipse style="fill: rgb(202, 203, 207);" cx="-64" rx="7" ry="10" cy="-59"/>
<ellipse style="fill: rgb(240, 241, 246);" cx="-63" rx="6" ry="9" cy="-59"/>
<circle style="fill: rgb(10, 140, 200); stroke-width: 2px; stroke: rgb(202, 203, 207);" cx="-91" r="5" cy="-59" id="PortholeInside"/>
<rect x="-76" width="4" height="22" style="fill: rgb(202, 203, 207);" y="-70"/>
<polygon style="fill: rgb(169, 169, 169);" points="-100 -79 -105 -68 -102 -46 -94 -48 -94 -44 -106 -35 -106 -83"/>
<line style="fill: none; stroke: rgb(249, 250, 255);" x1="-74" y1="-48" x2="-74" y2="-70"/>
<line style="fill: none; stroke: rgb(202, 203, 207);" x1="-41" y1="-33" x2="-41" y2="-85"/>
<path d="M -52 -80 L -59 -80 L -61 -70 L -71 -70 L -71 -71 C -69 -80 -56 -85 -49 -85 L -52 -80 Z" style="fill: rgb(75, 87, 63);" id="Storage1"/>
<path d="M -56 -48 L -50 -38 L -50 -33 C -57 -33 -69 -38 -71 -47 L -71 -48 Z" style="fill: rgb(75, 87, 63);" id="Storage2"/>
<path d="M -90 -77 L -88 -80 C -82 -77 -77 -74 -77 -70 Z" style="fill: rgb(169, 169, 169);" id="Radio"/>
<path d="M -86 -46 L -80 -56 L -77 -48 C -77 -45 -80 -43 -84 -40 L -86 -46 Z" style="fill: rgb(169, 169, 169);" id="Controls"/>
<g transform="matrix(0.443206, 0, 0, 0.443206, -248.700058, -83.647331)" style="">
<polygon style="fill: rgb(53, 165, 202);" points="341 34 350 35 356 38 363 39 367 31 371 34 364 44 354 45 357 60 367 75 365 89 360 88 360 77 354 69 358 79 355 91 350 91 350 78 341 67 339 46 336 53 339 61 337 64 330 54 334 41"/>
<polygon style="fill: rgb(201, 158, 147);" points="344 20 354 18 356 27 353 32 349 32 350 36 345 39 341 35 342 30"/>
<polygon style="fill: rgb(43, 12, 16);" points="355 18 346 16 341 19 342 30 344 27 344 23 346 22 347 26 348 32 353 33 355 29 349 26 348 21"/>
<polygon style="fill: rgb(255, 255, 255);" points="350 94 356 100 360 98 355 91 351 91"/>
<polygon style="fill: rgb(255, 255, 255);" points="360 92 366 94 371 92 365 89 360 87"/>
<polygon style="fill: rgb(201, 158, 147);" points="367 28 369 29 371 26 373 27 370 34 367 31"/>
<polygon style="fill: rgb(201, 158, 147);" points="339 61 343 62 341 64 344 67 340 69 337 64"/>
</g>
<path d="M -19 -72 C -17 -72 -17 -46 -19 -46 C -21 -46 -23 -51 -23 -59 C -23 -67 -21 -72 -19 -72 Z" style="fill: rgb(240, 241, 246);" id="Hatch"/>
<line style="fill: none; stroke: rgb(202, 203, 207);" x1="-36" y1="-33" x2="-36" y2="-85"/>
<g style="" transform="matrix(0.452857, 0, 0, 0.452857, -84.675804, -40.017632)">
<polygon style="fill: rgb(201, 158, 147);" points="92 -81 84 -83 83 -77 84 -69 90 -69 89 -64 98 -64 97 -71"/>
<polygon style="fill: rgb(252, 252, 252);" points="114 -2 117 4 120 2 119 -5 115 -7"/>
<polygon style="fill: rgb(201, 158, 147);" points="64 -47 58 -47 57 -45 62 -44 60 -42 65 -44"/>
<polygon style="fill: rgb(201, 158, 147);" points="121 -47 123 -42 123 -39 120 -42 119 -40 118 -46"/>
<polygon style="fill: rgb(252, 252, 252);" points="92 0 89 6 92 7 97 2 96 -1"/>
<polygon style="fill: rgb(53, 165, 202);" points="98 -67 88 -66 80 -62 75 -52 63 -47 65 -44 79 -47 84 -56 85 -39 83 -18 91 0 97 0 92 -19 94 -33 102 -18 114 -3 118 -6 109 -23 103 -39 104 -57 111 -54 118 -45 121 -47 115 -58 105 -65"/>
<polygon style="fill: rgb(193, 53, 73);" points="83 -83 92 -85 97 -83 97 -71 91 -74 91 -78 89 -80 88 -75 86 -76 86 -80"/>
</g>
<path d="M -550 -110 L -230 -110 L -230 210 L -550 210 L -550 -110 Z M -390 11 C -412 11 -429 28 -429 50 C -429 72 -412 89 -390 89 C -368 89 -351 72 -351 50 C -351 28 -368 11 -390 11 Z" style="fill: rgb(224, 225, 230);"/>
<path d="M -220 -110 L -120 -110 L -120 -10 L -220 -10 Z M -170 -99 C -192 -99 -209 -82 -209 -60 C -209 -38 -192 -21 -170 -21 C -148 -21 -131 -38 -131 -60 C -131 -82 -148 -99 -170 -99 Z" style="fill: rgb(224, 225, 230);"/>
<circle style="stroke: rgb(202, 203, 207); stroke-width: 8px; fill: none;" cx="-170" r="39" cy="-60"/>
<rect width="100" height="100" style="fill: rgb(43, 31, 137);" x="110" y="-110"/>
<polygon style="fill: rgb(58, 41, 183);" points="136 -27 148 -32 158 -28 172 -31 187 -28 197 -31 208 -28 206 -40 208 -53 206 -65 208 -87 201 -91 182 -89 170 -92 160 -89 148 -92 136 -89 125 -92 112 -89 114 -73 112 -61 115 -47 113 -40 112 -29 123 -31"/>
<path d="M 125 -83 L 196 -84 L 195 -40 L 127 -42 L 125 -83 Z" style="fill: rgb(217, 212, 217);"/>
<path d="M 127 -42 L 195 -40 L 204 -33 L 116 -33 L 127 -42 Z" style="fill: rgb(250, 244, 250);"/>
<path d="M 127 -42 L 125 -83 L 116 -87 L 116 -33 L 127 -42 Z" style="fill: rgb(227, 221, 227);"/>
<path d="M 195 -40 L 196 -84 L 204 -87 L 204 -33 L 195 -40 Z" style="fill: rgb(227, 221, 227);"/>
<path d="M 125 -83 L 196 -84 L 204 -87 L 116 -87 L 125 -83 Z" style="fill: rgb(250, 244, 250);"/>
<rect width="100" height="100" style="fill: rgb(169, 169, 169);" x="-110"/>
<rect width="100" height="100" style="fill: rgb(43, 31, 137);" y="-110"/>
<polygon style="fill: rgb(58, 41, 183);" points="26 -27 38 -32 48 -28 62 -31 77 -28 87 -31 98 -28 96 -40 98 -53 96 -65 98 -87 91 -91 72 -89 60 -92 50 -89 38 -92 26 -89 15 -92 2 -89 4 -73 2 -61 5 -47 3 -40 2 -29 13 -31"/>
<path d="M 15 -84 L 85 -82 L 83 -41 L 15 -39 L 15 -84 Z" style="fill: rgb(124, 98, 75);"/>
<path d="M 15 -39 L 83 -41 L 94 -33 L 6 -33 L 15 -39 Z" style="fill: rgb(98, 77, 59);"/>
<path d="M 15 -39 L 15 -84 L 6 -87 L 6 -33 L 15 -39 Z" style="fill: rgb(156, 123, 95);"/>
<path d="M 83 -41 L 85 -82 L 94 -87 L 94 -33 L 83 -41 Z" style="fill: rgb(156, 123, 95);"/>
<path d="M 15 -84 L 85 -82 L 94 -87 L 6 -87 L 15 -84 Z" style="fill: rgb(98, 77, 59);"/>
<rect width="100" height="100" style="fill: rgb(43, 31, 137);" x="220" y="-110"/>
<polygon style="fill: rgb(58, 41, 183);" points="246 -27 258 -32 268 -28 282 -31 297 -28 307 -31 318 -28 316 -40 318 -53 316 -65 318 -87 311 -91 292 -89 280 -92 270 -89 258 -92 246 -89 235 -92 222 -89 224 -73 222 -61 225 -47 223 -40 222 -29 233 -31"/>
<path d="M 226 -87 L 314 -87 L 314 -60 L 226 -60 L 226 -87 Z" style="fill: rgb(108, 106, 108);"/>
<path d="M 226 -60 L 314 -60 L 314 -33 L 226 -33 L 226 -60 Z" style="fill: rgb(126, 123, 126);"/>
<path d="M 289 -50 C 290 -45 280 -46 283 -42 C 286 -38 300 -44 296 -37" style="fill: none; stroke-linecap: round; stroke: rgb(159, 159, 159);"/>
<g style="" transform="matrix(3.690097, 0, 0, 3.690097, 721.866272, -43.011864)"/>
<polygon style="fill: rgb(79, 79, 79);" points="19 -69 19 -48 46 -49 45 -71"/>
<polygon style="fill: rgb(61, 48, 37);" points="19 -70 19 -38 18 -38 18 -69"/>
<polygon style="fill: rgb(61, 48, 37);" points="46 -71 47 -39 46 -39 45 -72"/>
<polygon style="fill: rgb(216, 216, 216); stroke: rgb(0, 0, 0);" points="102 122"/>
<polygon style="fill: rgb(98, 77, 59);" points="12 -37 12 -78 8 -79 8 -34"/>
<ellipse style="stroke: rgb(98, 77, 59); stroke-width: 0.5px; fill: rgb(203, 203, 203);" cx="26" cy="-77" rx="3" ry="3"/>
<circle style="fill: rgb(216, 184, 68);" cx="50" cy="-79" r="1"/>
<polygon style="fill: none; stroke-linecap: round; stroke-width: 0.5px;" points="17 -50 83 -50 50 -83"/>
<line style="stroke-linecap: round; stroke-width: 0.5px; fill: none; stroke: rgb(163, 163, 163);" x1="26" y1="-77" x2="25" y2="-77"/>
<line style="stroke-linecap: round; stroke-width: 0.5px; fill: none; stroke: rgb(163, 163, 163);" x1="26" y1="-77" x2="26" y2="-79"/>
<g transform="matrix(0.401383, 0, 0, 0.401383, -124.301453, -170.764709)" style="">
<ellipse style="fill: rgba(0, 0, 0, 0.2);" cx="449" cy="334" rx="18" ry="3"/>
<polygon style="fill: rgb(43, 12, 16);" points="454 326 458 329 463 334 461 335 457 334 453 332"/>
<polygon style="fill: rgb(43, 12, 16);" points="444 327 440 329 435 334 437 335 441 334 445 332"/>
<path d="M 440 301 L 460 301 L 460 315 L 459 329 L 453 328 L 453 315 L 450 303 L 446 315 L 445 329 L 439 328 L 439 315 L 440 301 Z" style="fill: rgb(90, 90, 90);"/>
<polygon style="fill: rgb(201, 158, 147);" points="467 301 465 307 463 308 464 304 462 304 465 300"/>
<polygon style="fill: rgb(201, 158, 147);" points="433 302 434 307 436 309 436 304 437 304 435 301"/>
<path d="M 446 268 L 455 268 L 464 272 L 468 288 L 467 301 L 464 300 L 462 289 L 460 281 L 461 294 L 460 312 L 451 313 L 450 310 L 448 312 L 439 311 L 439 296 L 440 282 L 438 288 L 435 301 L 432 303 L 432 287 L 437 272 L 446 268 Z" style="fill: rgb(230, 228, 236);"/>
<polygon style="fill: rgb(201, 158, 147);" points="454 254 448 249 443 252 442 259 443 263 447 265 446 269 450 270 455 269 454 263"/>
<polygon style="fill: rgb(216, 216, 216);" points="448 249 451 256 453 254 453 259 454 263 456 256 454 250"/>
<polygon style="fill: rgb(90, 90, 90);" points="442 254 441 255 441 256 442 257 444 257 445 256 446 257 448 257 449 256 449 255 453 254 446 254 445 255 444 254"/>
<polygon style="fill: rgb(216, 216, 216);" points="443 263 445 267 447 263"/>
</g>
<polygon style="fill: rgb(71, 56, 43);" points="12 -37 12 -78 10 -78 10 -37"/>
<polygon style="fill: rgb(71, 56, 43);" points="12 -78 8 -79 10 -78"/>
<polygon style="fill: rgb(216, 216, 216); stroke: rgb(0, 0, 0);" points="-6 79"/>
<path d="M 20 -60 C 22 -45 21 -60 22 -61 C 25 -64 43 -66 44 -64" style="fill: none; stroke-linecap: round; stroke-width: 0.3px; stroke: rgb(114, 114, 114);"/>
<path d="M 25 -61 C 25 -61 27 -61 26 -60 C 26 -60 25 -59 26 -59" style="fill: none; stroke-linecap: round; stroke-linejoin: round; stroke-width: 0.3px; stroke: rgb(114, 114, 114);"/>
<line style="fill: none; stroke-linecap: round; stroke-linejoin: round; stroke-width: 0.3px; stroke: rgb(114, 114, 114);" x1="23" y1="-56" x2="25" y2="-58"/>
<line style="fill: none; stroke-linecap: round; stroke-linejoin: round; stroke-width: 0.3px; stroke: rgb(114, 114, 114);" x1="23" y1="-58" x2="25" y2="-56"/>
<line style="fill: none; stroke-linecap: round; stroke-linejoin: round; stroke-width: 0.3px; stroke: rgb(114, 114, 114);" x1="28" y1="-58" x2="29" y2="-56"/>
<line style="fill: none; stroke-linecap: round; stroke-linejoin: round; stroke-width: 0.3px; stroke: rgb(114, 114, 114);" x1="30" y1="-58" x2="28" y2="-54"/>
<path d="M 33 -58 L 34 -58 L 33 -56 L 34 -56" style="fill: none; stroke-linecap: round; stroke-linejoin: round; stroke-width: 0.3px; stroke: rgb(114, 114, 114);"/>
<path d="M 39 -58 C 38 -58 37 -56 39 -56" style="fill: none; stroke-linecap: round; stroke-linejoin: round; stroke-width: 0.3px; stroke: rgb(114, 114, 114);"/>
<path d="M 41 -60 C 41 -60 40 -56 42 -56" style="fill: none; stroke-linecap: round; stroke-linejoin: round; stroke-width: 0.3px; stroke: rgb(114, 114, 114);"/>
<line style="stroke-width: 0.3px; stroke-linecap: round; stroke: rgb(114, 114, 114);" x1="25" y1="-57" x2="27" y2="-57"/>
<line style="fill: none; stroke-width: 0.3px; stroke-linecap: round; stroke: rgb(114, 114, 114);" x1="26" y1="-58" x2="26" y2="-56"/>
<path d="M 29 -61 C 29 -61 31 -61 30 -60 C 30 -60 29 -59 30 -59" style="fill: none; stroke-linecap: round; stroke-linejoin: round; stroke-width: 0.3px; stroke: rgb(114, 114, 114);"/>
<path d="M 34 -61 C 34 -61 36 -61 35 -60 C 35 -60 34 -59 35 -59" style="fill: none; stroke-linecap: round; stroke-linejoin: round; stroke-width: 0.3px; stroke: rgb(114, 114, 114);"/>
<path d="M 38 -61 C 38 -61 40 -61 39 -60 C 39 -60 38 -59 39 -59" style="fill: none; stroke-linecap: round; stroke-linejoin: round; stroke-width: 0.3px; stroke: rgb(114, 114, 114);"/>
<path d="M 42 -61 C 42 -61 44 -61 43 -60 C 43 -60 42 -59 43 -59" style="fill: none; stroke-linecap: round; stroke-linejoin: round; stroke-width: 0.3px; stroke: rgb(114, 114, 114);"/>
<line style="stroke-width: 0.3px; stroke-linecap: round; stroke: rgb(114, 114, 114);" x1="40" y1="-58" x2="42" y2="-58"/>
<line style="stroke-width: 0.3px; stroke-linecap: round; stroke: rgb(114, 114, 114);" x1="30" y1="-57" x2="32" y2="-57"/>
<line style="fill: none; stroke-width: 0.3px; stroke-linecap: round; stroke: rgb(114, 114, 114);" x1="31" y1="-58" x2="31" y2="-56"/>
<line style="stroke-width: 0.3px; stroke-linecap: round; stroke: rgb(114, 114, 114);" x1="35" y1="-57" x2="37" y2="-57"/>
<line style="fill: none; stroke-width: 0.3px; stroke-linecap: round; stroke: rgb(114, 114, 114);" x1="36" y1="-58" x2="36" y2="-56"/>
<polygon style="fill: url(#gradient-0);" points="18 -52 82 -52 50 -83"/>
<polygon style="fill: rgb(98, 77, 59);" points="45 -79 55 -79 50 -85"/>
<polygon style="fill: rgb(61, 48, 37);" points="37 -49 38 -47 44 -47 45 -50"/>
<polygon style="fill: rgb(166, 166, 166);" points="70 -40 70 -65 72 -63 74 -50 73 -37"/>
<polygon style="fill: rgb(209, 209, 209);" points="70 -65 83 -65 85 -63 72 -63"/>
<polygon style="fill: rgb(185, 185, 185);" points="73 -37 87 -37 87 -50 74 -50"/>
<polygon style="fill: rgb(198, 198, 198);" points="72 -63 85 -63 87 -50 74 -50"/>
<polygon style="fill: rgb(61, 48, 37);" points="74 -61 84 -61 85 -54 75 -54"/>
<polygon style="fill: rgb(216, 216, 216);" points="39 -49 41 -49 41 -50 39 -50"/>
<path d="M 124 -39 L 123 -77 L 118 -78 L 118 -35 L 124 -39 Z" style="fill: rgb(193, 188, 193);"/>
<path d="M 197 -38 L 198 -78 L 203 -80 L 202 -34 L 197 -38 Z" style="fill: rgb(193, 188, 193);"/>
<path d="M 124 -39 L 123 -77 L 121 -77 L 121 -39 L 124 -39 Z" style="fill: rgb(174, 169, 174);"/>
<path d="M 197 -38 L 198 -78 L 200 -78 L 200 -38 L 197 -38 Z" style="fill: rgb(174, 169, 174);"/>
<g transform="matrix(0.398488, 0, 0, 0.398488, 10.721924, -168.960022)" style="">
<polygon style="fill: rgb(201, 158, 147);" points="-1 300 0 306 2 307 2 303 4 303 1 298"/>
<polygon style="fill: rgb(201, 158, 147);" points="31 298 30 304 27 306 28 301 26 301 28 298"/>
<ellipse style="fill: rgba(0, 0, 0, 0.2);" cx="-14" cy="334" rx="18" ry="3" transform="matrix(-1, 0, 0, 1, 0, 0)"/>
<polygon style="fill: rgb(5, 7, 14);" points="8 328 4 329 -1 334 1 335 5 335 9 332"/>
<polygon style="fill: rgb(5, 7, 14);" points="19 328 23 329 28 334 26 335 22 335 18 332"/>
<polygon style="fill: rgb(53, 165, 202);" points="11 264 21 265 29 269 33 285 31 298 28 298 28 286 25 276 24 293 26 313 25 330 18 329 18 313 15 300 11 313 10 329 2 330 3 313 6 293 5 277 3 286 2 299 -1 300 -2 285 1 268"/>
<polygon style="fill: rgb(201, 158, 147);" points="14 249 24 247 26 255 23 261 19 261 20 266 16 269 11 266 12 259"/>
<polygon style="fill: rgb(193, 53, 73);" points="26 247 17 245 12 247 12 259 14 257 14 252 16 251 16 254 18 253 17 250"/>
</g>
<g transform="matrix(0.398488, 0, 0, 0.398488, 129.721924, -170.960022)" style="">
<polygon style="fill: rgb(201, 158, 147);" points="-1 300 0 306 2 307 2 303 4 303 1 298"/>
<polygon style="fill: rgb(201, 158, 147);" points="31 298 30 304 27 306 28 301 26 301 28 298"/>
<ellipse style="fill: rgba(0, 0, 0, 0.2);" cx="-14" cy="334" rx="18" ry="3" transform="matrix(-1, 0, 0, 1, 0, 0)"/>
<polygon style="fill: rgb(5, 7, 14);" points="8 328 4 329 -1 334 1 335 5 335 9 332"/>
<polygon style="fill: rgb(5, 7, 14);" points="19 328 23 329 28 334 26 335 22 335 18 332"/>
<polygon style="fill: rgb(53, 165, 202);" points="11 264 21 265 29 269 33 285 31 298 28 298 28 286 25 276 24 293 26 313 25 330 18 329 18 313 15 300 11 313 10 329 2 330 3 313 6 293 5 277 3 286 2 299 -1 300 -2 285 1 268"/>
<polygon style="fill: rgb(201, 158, 147);" points="14 249 24 247 26 255 23 261 19 261 20 266 16 269 11 266 12 259"/>
<polygon style="fill: rgb(193, 53, 73);" points="26 247 17 245 12 247 12 259 14 257 14 252 16 251 16 254 18 253 17 250"/>
</g>
<g transform="matrix(0.433975, 0, 0, 0.433975, 65.684723, -181.87027)" style="">
<ellipse style="fill: rgba(0, 0, 0, 0.2);" cx="269" cy="334" rx="18" ry="3"/>
<polygon style="fill: rgb(43, 12, 16);" points="274 328 278 329 283 334 281 335 277 334 273 332"/>
<polygon style="fill: rgb(43, 12, 16);" points="265 328 261 329 256 334 258 335 262 334 266 332"/>
<path d="M 262 293 L 278 293 L 279 314 L 278 329 L 273 329 L 272 314 L 270 298 L 267 314 L 266 329 L 261 329 L 260 313 L 262 293 Z" style="fill: rgb(90, 90, 90);"/>
<polygon style="fill: rgb(201, 158, 147);" points="286 299 284 305 282 306 283 302 281 302 284 298"/>
<polygon style="fill: rgb(201, 158, 147);" points="254 300 255 305 257 307 257 302 259 302 256 299"/>
<path d="M 268 268 L 273 268 L 282 272 L 285 284 L 286 299 L 283 298 L 281 285 L 279 278 L 278 290 L 281 312 L 271 313 L 270 309 L 268 313 L 258 310 L 262 290 L 261 278 L 259 285 L 257 299 L 254 300 L 255 284 L 259 272 L 268 268 Z" style="fill: rgb(230, 228, 236);"/>
<polygon style="fill: rgb(201, 158, 147);" points="272 252 265 252 264 258 266 264 267 264 268 269 271 270 273 269 274 262"/>
<polygon style="fill: rgb(131, 106, 99);" points="265 252 271 250 278 256 276 261 277 266 274 266"/>
</g>
<g transform="matrix(0.45446, 0, 0, 0.45446, -66.130486, -187.08168)" style="">
<ellipse style="fill: rgba(0, 0, 0, 0.2);" cx="509" cy="334" rx="18" ry="3"/>
<polygon style="fill: rgb(43, 12, 16);" points="514 329 518 330 523 334 521 335 517 334 513 332"/>
<polygon style="fill: rgb(43, 12, 16);" points="504 330 500 330 495 334 497 335 501 334 505 332"/>
<path d="M 502 301 L 518 301 L 517 318 L 518 330 L 514 329 L 513 318 L 510 304 L 506 318 L 504 330 L 500 330 L 502 319 L 502 301 Z" style="fill: rgb(201, 158, 147);"/>
<polygon style="fill: rgb(201, 158, 147);" points="525 306 523 312 521 313 522 309 520 309 523 305"/>
<polygon style="fill: rgb(201, 158, 147);" points="494 308 495 312 497 314 497 309 498 309 496 306"/>
<path d="M 507 277 L 514 277 L 522 284 L 524 294 L 525 306 L 522 305 L 520 295 L 519 289 L 519 303 L 518 325 L 511 324 L 510 318 L 507 324 L 500 325 L 500 302 L 501 290 L 499 296 L 497 306 L 494 308 L 495 295 L 498 284 L 507 277 Z" style="fill: rgb(126, 89, 44);"/>
<polygon style="fill: rgb(216, 216, 216);" points="510 262 517 264 519 271 513 274 507 271"/>
<polygon style="fill: rgb(201, 158, 147);" points="515 268 511 261 506 262 504 267 505 272 507 274 507 278 510 283 514 278 514 272"/>
<polygon style="fill: rgb(126, 89, 44);" points="505 264 517 264 513 258 507 260"/>
</g>
<polygon style="fill: rgb(98, 77, 59);" points="67 -73 68 -72 86 -72 84 -73"/>
<polygon style="fill: rgb(203, 203, 203);" points="69 -73 69 -79 70 -79 70 -72"/>
<polygon style="fill: rgb(163, 163, 163);" points="71 -72 71 -79 70 -79 70 -72"/>
<polygon style="fill: rgb(203, 203, 203);" points="71 -73 71 -79 72 -79 72 -72"/>
<polygon style="fill: rgb(163, 163, 163);" points="73 -72 73 -79 72 -79 72 -72"/>
<polygon style="fill: rgb(203, 203, 203);" points="73 -73 73 -79 74 -79 74 -72"/>
<polygon style="fill: rgb(163, 163, 163);" points="75 -72 75 -79 74 -79 74 -72"/>
<ellipse style="fill: rgb(216, 216, 216);" cx="85" cy="397" rx="21" ry="6"/>
<rect x="64" y="391" width="42" height="6" style="fill: rgb(216, 216, 216);"/>
<ellipse style="fill: rgb(246, 246, 246);" cx="85" cy="391" rx="21" ry="6"/>
<ellipse style="fill: rgb(255, 255, 255);" cx="5" cy="448" rx="27" ry="8"/>
<rect x="-22" y="399" width="54" height="49" style="fill: rgb(255, 255, 255);"/>
<ellipse style="fill: rgb(225, 225, 225);" cx="5" cy="399" rx="27" ry="8"/>
<ellipse style="fill: rgb(255, 255, 255);" cx="5" cy="396" rx="21" ry="6"/>
<rect x="-16" y="381" width="42" height="15" style="fill: rgb(255, 255, 255);"/>
<ellipse style="fill: rgb(225, 225, 225);" cx="5" cy="381" rx="21" ry="6"/>
<ellipse style="fill: rgb(216, 216, 216);" cx="85" cy="437" rx="21" ry="6" transform="matrix(0.5, 0.866025, -0.866025, 0.5, 418.354998, 143.387859)"/>
<rect x="64" y="431" width="42" height="6" style="fill: rgb(216, 216, 216);" transform="matrix(0.5, 0.866025, -0.866025, 0.5, 418.355011, 143.387848)"/>
<ellipse style="fill: rgb(246, 246, 246);" cx="85" cy="431" rx="21" ry="6" transform="matrix(0.5, 0.866025, -0.866025, 0.5, 418.354998, 143.387859)"/>
<path d="M 260 -59 C 260 -51 265 -51 269 -51 C 272 -51 274 -52 276 -54 C 279 -51 292 -49 292 -49 L 292 -68 C 292 -68 279 -67 276 -63 C 274 -65 272 -67 269 -67 C 265 -67 260 -67 260 -59 Z" style="fill: rgb(75, 87, 63);"/>
<path d="M 295 -67 L 292 -68 L 292 -49 L 295 -50 L 295 -67 Z" style="fill: rgb(224, 225, 230);"/>
<rect x="296" y="-87" width="2" height="24" style="fill: rgb(159, 159, 159);"/>
<path d="M 295 -67 L 299 -67 L 299 -50 L 295 -50 L 295 -67 Z" style="fill: rgb(75, 87, 63);"/>
<path d="M 311 -53 L 314 -45 L 301 -48 L 311 -53 Z" style="fill: rgb(189, 170, 51);"/>
<rect x="301" y="-87" width="2" height="24" style="fill: rgb(159, 159, 159);"/>
<path d="M 299 -67 L 307 -67 L 307 -50 L 299 -50 L 299 -67 Z" style="fill: rgb(224, 225, 230);"/>
<path d="M 307 -67 L 311 -70 L 311 -47 L 307 -50 L 307 -67 Z" style="fill: rgb(75, 87, 63);"/>
<circle style="stroke: rgb(50, 59, 42); fill: rgb(37, 36, 37);" cx="283" r="2" cy="-58"/>
<path d="M 308 -55 L 311 -55 L 311 -71 L 307 -73 L 311 -73 L 311 -80 L 314 -84 L 314 -37 L 301 -40 L 311 -45 L 311 -53 L 308 -55 Z" style="fill: rgb(215, 194, 58); stroke-linejoin: bevel; stroke-width: 0.5px;"/>
<path d="M 255 -67 C 255 -67 262 -64 261 -63 C 261 -63 254 -66 255 -67 Z" style="fill: rgb(224, 225, 230);"/>
<polyline style="fill: none; stroke: rgb(215, 194, 58); stroke-linejoin: bevel; stroke-width: 0.5px;" points="290 -73 293 -75 296 -73 299 -75 302 -73 305 -75 308 -73 311 -75"/>
<polyline style="fill: none; stroke: rgb(215, 194, 58); stroke-linejoin: bevel; stroke-width: 0.5px;" points="290 -75 293 -73 296 -75 299 -73 302 -75 305 -73 308 -75 311 -73"/>
<polyline style="fill: none; stroke: rgb(215, 194, 58); stroke-width: 0.5px;" points="311 -75 290 -75 290 -73 311 -73"/>
<polyline style="fill: none; stroke: rgb(215, 194, 58); stroke-linejoin: bevel; stroke-width: 0.5px;" points="301 -55 304 -57 307 -55 310 -57 313 -55"/>
<polyline style="fill: none; stroke: rgb(215, 194, 58); stroke-linejoin: bevel; stroke-width: 0.5px;" points="301 -57 304 -55 307 -57 310 -55 313 -57"/>
<polyline style="fill: none; stroke: rgb(215, 194, 58); stroke-width: 0.5px;" points="311 -57 301 -57 301 -55 311 -55"/>
<rect x="234" y="-87" width="2" height="13" style="fill: rgb(159, 159, 159);"/>
<rect x="226" y="-76" width="51" height="2" style="fill: rgb(159, 159, 159);"/>
<rect x="238" y="-87" width="2" height="13" style="fill: rgb(159, 159, 159);"/>
<rect x="275" y="-87" width="2" height="13" style="fill: rgb(159, 159, 159);"/>
<rect x="245" y="-76" width="2" height="8" style="fill: rgb(159, 159, 159);"/>
<rect x="226" width="21" height="2" style="fill: rgb(159, 159, 159);" y="-70"/>
<path d="M 260 -59 C 260 -56 261 -55 261 -55 C 262 -55 262 -63 261 -63 C 261 -63 260 -62 260 -59 Z" style="fill: rgb(50, 59, 42);"/>
<path d="M 286 -51 C 287 -46 278 -46 276 -43 C 274 -40 267 -43 261 -41" style="fill: none; stroke-linecap: round; stroke: rgb(159, 159, 159);"/>
<polygon style="fill: rgb(216, 216, 216);" points="232 -65 248 -65 249 -62 233 -62"/>
<polygon style="fill: rgb(181, 181, 181);" points="233 -59 249 -59 249 -62 233 -62"/>
<polygon style="fill: rgb(158, 158, 158);" points="232 -65 232 -60 233 -59 233 -62"/>
<g transform="matrix(-0.200564, 0, 0, 0.200564, 299.707153, -121.574799)" style="">
<ellipse style="fill: rgba(0, 0, 0, 0.2);" cx="329" cy="334" rx="18" ry="3"/>
<polygon style="fill: rgb(43, 12, 16);" points="334 328 338 329 343 334 341 335 337 334 333 332"/>
<polygon style="fill: rgb(43, 12, 16);" points="324 328 320 329 315 334 317 335 321 334 325 332"/>
<path d="M 322 296 L 338 296 L 341 313 L 339 330 L 334 329 L 333 314 L 330 298 L 326 314 L 325 329 L 320 329 L 318 313 L 322 296 Z" style="fill: rgb(90, 90, 90);"/>
<polygon style="fill: rgb(201, 158, 147);" points="346 299 344 305 342 306 343 302 341 302 344 298"/>
<polygon style="fill: rgb(201, 158, 147);" points="314 300 315 305 317 307 317 302 319 302 317 299"/>
<path d="M 326 264 L 335 264 L 343 269 L 348 284 L 346 299 L 343 298 L 343 285 L 340 278 L 339 293 L 341 310 L 331 311 L 329 309 L 328 311 L 319 308 L 321 293 L 321 277 L 318 285 L 317 299 L 314 300 L 313 284 L 317 269 L 326 264 Z" style="fill: rgb(230, 228, 236);"/>
<polygon style="fill: rgb(201, 158, 147);" points="334 249 323 247 321 254 324 261 327 260 326 265 331 267 334 265 334 258"/>
<polygon style="fill: rgb(43, 12, 16);" points="323 247 330 250 329 254 331 254 332 250 333 251 334 257 336 248 328 244"/>
</g>
<g transform="matrix(0.398488, 0, 0, 0.398488, 239.721924, -170.960022)" style="">
<polygon style="fill: rgb(201, 158, 147);" points="-1 300 0 306 2 307 2 303 4 303 1 298"/>
<polygon style="fill: rgb(201, 158, 147);" points="31 298 30 304 27 306 28 301 26 301 28 298"/>
<ellipse style="fill: rgba(0, 0, 0, 0.2);" cx="-14" cy="334" rx="18" ry="3" transform="matrix(-1, 0, 0, 1, 0, 0)"/>
<polygon style="fill: rgb(5, 7, 14);" points="8 328 4 329 -1 334 1 335 5 335 9 332"/>
<polygon style="fill: rgb(5, 7, 14);" points="19 328 23 329 28 334 26 335 22 335 18 332"/>
<polygon style="fill: rgb(53, 165, 202);" points="11 264 21 265 29 269 33 285 31 298 28 298 28 286 25 276 24 293 26 313 25 330 18 329 18 313 15 300 11 313 10 329 2 330 3 313 6 293 5 277 3 286 2 299 -1 300 -2 285 1 268"/>
<polygon style="fill: rgb(201, 158, 147);" points="14 249 24 247 26 255 23 261 19 261 20 266 16 269 11 266 12 259"/>
<polygon style="fill: rgb(193, 53, 73);" points="26 247 17 245 12 247 12 259 14 257 14 252 16 251 16 254 18 253 17 250"/>
</g>
<g transform="matrix(0.393853, 0, 0, 0.393853, 191.584122, -169.460373)" style="">
<ellipse style="fill: rgba(0, 0, 0, 0.2);" cx="209" cy="334" rx="18" ry="3"/>
<polygon style="fill: rgb(43, 12, 16);" points="214 328 218 329 223 334 221 335 217 334 213 332"/>
<polygon style="fill: rgb(43, 12, 16);" points="204 328 200 329 195 334 197 335 201 334 205 332"/>
<path d="M 201 293 L 219 293 L 221 313 L 219 330 L 213 329 L 213 313 L 210 298 L 206 313 L 205 329 L 199 329 L 198 313 L 201 293 Z" style="fill: rgb(90, 90, 90);"/>
<polygon style="fill: rgb(201, 158, 147);" points="226 299 224 305 222 306 223 302 221 302 224 298"/>
<polygon style="fill: rgb(201, 158, 147);" points="194 300 195 305 197 307 197 302 199 302 197 299"/>
<path d="M 206 265 L 215 265 L 224 269 L 228 284 L 226 299 L 223 298 L 223 285 L 220 277 L 219 293 L 221 310 L 211 311 L 209 307 L 208 311 L 198 309 L 201 293 L 200 277 L 198 285 L 197 299 L 194 300 L 193 284 L 196 268 L 206 265 Z" style="fill: rgb(230, 228, 236);"/>
<polygon style="fill: rgb(201, 158, 147);" points="214 250 202 247 200 256 203 261 207 261 206 266 210 268 215 266 214 259"/>
<polygon style="fill: rgb(43, 12, 16);" points="201 247 209 245 215 248 214 258 213 255 212 251 210 252 209 255 208 263 203 264 201 258 207 255 208 250"/>
</g>
<polygon style="fill: rgb(245, 245, 245);" points="146 -77 146 -60 158 -60 159 -77"/>
<polygon style="fill: rgb(232, 232, 232);" points="147 -59 146 -60 158 -60 157 -59"/>
<line style="fill: none; stroke: rgb(255, 9, 0);" x1="152" y1="-71" x2="152" y2="-67"/>
<line style="fill: none; stroke: rgb(255, 9, 0);" x1="150" y1="-69" x2="154" y2="-69"/>
</svg>